<svg width="57" height="56" viewBox="0 0 57 56" fill="none" xmlns="http://www.w3.org/2000/svg">
<path d="M15.0132 11.9233C18.6579 8.85267 23.3595 7 28.4999 7C40.0989 7 49.4999 16.401 49.4999 28C49.4999 31.3763 48.6832 34.5567 47.2669 37.3823L41.0112 34.2557" stroke="#9D446E" stroke-width="3" stroke-linecap="round" stroke-linejoin="round"/>
<path d="M41.9867 44.0767C38.342 47.1473 33.6403 49 28.5 49C16.901 49 7.5 39.5967 7.5 28C7.5 24.6237 8.31667 21.4433 9.733 18.6177L15.9887 21.7443" stroke="#9D446E" stroke-width="3" stroke-linecap="round" stroke-linejoin="round"/>
<path d="M28.5002 16.3334V19.25" stroke="#9D446E" stroke-width="3" stroke-linecap="round" stroke-linejoin="round"/>
<path d="M28.5002 39.6667V36.75" stroke="#9D446E" stroke-width="3" stroke-linecap="round" stroke-linejoin="round"/>
<path d="M34.3028 23.3333C34.1512 21.056 32.2728 19.25 29.9582 19.25H26.7615C24.4982 19.25 22.6665 21.084 22.6665 23.345C22.6665 25.2233 23.9452 26.8613 25.7652 27.3187L31.2322 28.6907C33.0545 29.148 34.3308 30.786 34.3308 32.6643C34.3308 34.9277 32.4968 36.7593 30.2358 36.7593H27.0392C24.7198 36.7593 22.8415 34.9487 22.6922 32.6667" stroke="#9D446E" stroke-width="3" stroke-linecap="round" stroke-linejoin="round"/>
</svg>
