<svg width="57" height="56" viewBox="0 0 57 56" fill="none" xmlns="http://www.w3.org/2000/svg">
<path d="M22.7227 27.8179V33.2451C22.7224 34.4384 23.3966 35.5293 24.464 36.0626L25.6826 36.6719C27.4563 37.5583 29.5438 37.5583 31.3176 36.6719L32.5361 36.0626C33.6035 35.5293 34.2777 34.4384 34.2775 33.2451V27.8179" stroke="#9D446E" stroke-width="3" stroke-linecap="round" stroke-linejoin="round"/>
<path fill-rule="evenodd" clip-rule="evenodd" d="M28.5 49.0087C40.1028 49.0087 49.5087 39.6028 49.5087 28C49.5087 16.3971 40.1028 6.99121 28.5 6.99121C16.8971 6.99121 7.49121 16.3971 7.49121 28C7.49121 39.6028 16.8971 49.0087 28.5 49.0087Z" stroke="#9D446E" stroke-width="3" stroke-linecap="round" stroke-linejoin="round"/>
<path fill-rule="evenodd" clip-rule="evenodd" d="M18.9597 25.9364L26.1657 29.5359C27.64 30.2713 29.3741 30.2713 30.8484 29.5359L38.0474 25.9364C38.639 25.6413 39.013 25.0371 39.013 24.3759C39.013 23.7147 38.639 23.1105 38.0474 22.8154L30.8344 19.2159C29.3606 18.4783 27.6255 18.4783 26.1517 19.2159L18.9597 22.8154C18.3681 23.1105 17.9941 23.7147 17.9941 24.3759C17.9941 25.0371 18.3681 25.6413 18.9597 25.9364V25.9364Z" stroke="#9D446E" stroke-width="3" stroke-linecap="round" stroke-linejoin="round"/>
<path d="M39.0046 24.3748V28.5765" stroke="#9D446E" stroke-width="3" stroke-linecap="round" stroke-linejoin="round"/>
</svg>
