<svg width="20" height="20" viewBox="0 0 20 20" fill="none" xmlns="http://www.w3.org/2000/svg">
<path fill-rule="evenodd" clip-rule="evenodd" d="M11.6666 11.6667H13.3333C13.7933 11.6667 14.1666 12.0401 14.1666 12.5001V15.8334C14.1666 16.2934 13.7933 16.6667 13.3333 16.6667H11.6666C11.2066 16.6667 10.8333 16.2934 10.8333 15.8334V12.5001C10.8333 12.0401 11.2066 11.6667 11.6666 11.6667Z" stroke="#586474" stroke-width="1.5" stroke-linecap="round" stroke-linejoin="round"/>
<path d="M17.5 14.1667H14.1667" stroke="currentColor" stroke-width="1.5" stroke-linecap="round" stroke-linejoin="round"/>
<path d="M10.8333 14.1667H2.5" stroke="currentColor" stroke-width="1.5" stroke-linecap="round" stroke-linejoin="round"/>
<path fill-rule="evenodd" clip-rule="evenodd" d="M8.33331 8.33325H6.66665C6.20665 8.33325 5.83331 7.95992 5.83331 7.49992V4.16659C5.83331 3.70659 6.20665 3.33325 6.66665 3.33325H8.33331C8.79331 3.33325 9.16665 3.70659 9.16665 4.16659V7.49992C9.16665 7.95992 8.79331 8.33325 8.33331 8.33325Z" stroke="currentColor" stroke-width="1.5" stroke-linecap="round" stroke-linejoin="round"/>
<path d="M2.5 5.83317H5.83333" stroke="currentColor" stroke-width="1.5" stroke-linecap="round" stroke-linejoin="round"/>
<path d="M9.16669 5.83317H17.5" stroke="currentColor" stroke-width="1.5" stroke-linecap="round" stroke-linejoin="round"/>
</svg>
