<svg width="30" height="32" viewBox="0 0 30 32" fill="none" xmlns="http://www.w3.org/2000/svg">
<path fill-rule="evenodd" clip-rule="evenodd" d="M25.0174 4.46623V4.46623C27.6734 7.1074 29.1667 10.6985 29.1667 14.4442C29.1667 18.1898 27.6734 21.7809 25.0174 24.4221V24.4221L19.1167 30.2995C16.8432 32.5641 13.1676 32.5672 10.8903 30.3064L10.8473 30.2637L4.98268 24.4222C2.32674 21.781 0.833393 18.1899 0.833374 14.4442C0.833355 10.6986 2.32667 7.10745 4.98258 4.46623V4.46623C10.5056 -1.0261 19.4213 -1.04699 24.97 4.41938L25.0172 4.46623H25.0174Z" fill="currentColor"/>
<path fill-rule="evenodd" clip-rule="evenodd" d="M10.1051 11.8811L13.4384 9.21452C14.3514 8.48416 15.6487 8.48416 16.5617 9.21452L19.8951 11.8811C20.4882 12.3555 20.8334 13.0739 20.8334 13.8334V18.6667C20.8334 19.5872 20.0872 20.3334 19.1667 20.3334H10.8334C9.91294 20.3334 9.16675 19.5872 9.16675 18.6667V13.8334C9.16673 13.0739 9.51199 12.3555 10.1051 11.8811V11.8811Z" stroke="white" stroke-linecap="round" stroke-linejoin="round"/>
</svg>
