<svg width="40" height="40" viewBox="0 0 40 40" fill="none" xmlns="http://www.w3.org/2000/svg">
<circle cx="20" cy="20" r="15" fill="#E5AC8A"/>
<path d="M30 20L29.2858 19.9999" stroke="white" stroke-width="2" stroke-linecap="round" stroke-linejoin="round"/>
<path d="M10.7143 20H10" stroke="white" stroke-width="2" stroke-linecap="round" stroke-linejoin="round"/>
<path d="M27.0711 12.929L26.566 13.434" stroke="white" stroke-width="2" stroke-linecap="round" stroke-linejoin="round"/>
<path d="M12.929 12.9289L13.434 13.4341" stroke="white" stroke-width="2" stroke-linecap="round" stroke-linejoin="round"/>
<path d="M12.9289 27.0711L13.4341 26.5661" stroke="white" stroke-width="2" stroke-linecap="round" stroke-linejoin="round"/>
<path d="M27.0711 27.0711L26.5661 26.566" stroke="white" stroke-width="2" stroke-linecap="round" stroke-linejoin="round"/>
<path d="M20 13.3333V14.6798" stroke="white" stroke-width="2" stroke-linecap="round" stroke-linejoin="round"/>
<path d="M16.6666 17.3727C16.8614 15.7184 18.3417 14.5225 20 14.6798" stroke="white" stroke-width="2" stroke-linecap="round" stroke-linejoin="round"/>
<path d="M20 26.6667V25.3203" stroke="white" stroke-width="2" stroke-linecap="round" stroke-linejoin="round"/>
<path d="M23.3333 22.6273C23.1386 24.2816 21.6583 25.4775 20 25.3202" stroke="white" stroke-width="2" stroke-linecap="round" stroke-linejoin="round"/>
<path d="M23.2485 16.7851C22.7469 15.445 21.4281 14.5902 20 14.6798" stroke="white" stroke-width="2" stroke-linecap="round" stroke-linejoin="round"/>
<path d="M16.7516 23.2148C17.2531 24.555 18.5719 25.4097 20 25.3202" stroke="white" stroke-width="2" stroke-linecap="round" stroke-linejoin="round"/>
<path d="M16.6666 17.3727V17.3727C16.6666 18.5127 17.4713 19.4943 18.5892 19.7179L21.4107 20.2822C22.5286 20.5058 23.3333 21.4874 23.3333 22.6274V22.6274" stroke="white" stroke-width="2" stroke-linecap="round" stroke-linejoin="round"/>
</svg>
