<svg width="40" height="40" viewBox="0 0 40 40" fill="none" xmlns="http://www.w3.org/2000/svg">
<rect x="4.16675" y="4.16663" width="31.6667" height="31.6667" rx="15.8333" fill="#E5AC8A"/>
<path d="M17.0835 18.75H22.9168" stroke="white" stroke-width="2" stroke-linecap="round" stroke-linejoin="round"/>
<path d="M17.0835 22.9167H22.9168" stroke="white" stroke-width="2" stroke-linecap="round" stroke-linejoin="round"/>
<path d="M17.2221 13.6917L19.2627 12.6759C19.7323 12.442 20.2847 12.443 20.7536 12.6786L22.7696 13.6913L24.8295 12.6727C25.2984 12.4408 25.8491 12.4425 26.3166 12.6775L27.4149 13.2294C27.9779 13.5123 28.3332 14.0886 28.3332 14.7186V25.8334C28.3332 26.7539 27.587 27.5001 26.6665 27.5001H13.3332C12.4127 27.5001 11.6665 26.7539 11.6665 25.8334V14.7191C11.6665 14.089 12.0218 13.5128 12.5848 13.2299L13.6832 12.678C14.1507 12.443 14.7013 12.4413 15.1703 12.6732L17.2302 13.6918" stroke="white" stroke-width="2" stroke-linecap="round" stroke-linejoin="round"/>
</svg>
