<svg width="40" height="40" viewBox="0 0 40 40" fill="none" xmlns="http://www.w3.org/2000/svg">
<circle cx="20" cy="20" r="15.0062" fill="#E5AC8A"/>
<path fill-rule="evenodd" clip-rule="evenodd" d="M24.0553 12.1517L27.8484 15.9448C28.2017 16.298 28.3779 16.791 28.3287 17.2881C28.2795 17.7852 28.01 18.2341 27.5943 18.5111L24.8209 20.3602C24.4757 20.5903 24.2288 20.9407 24.1282 21.3431L22.9743 25.9587C22.9014 26.2501 22.6775 26.4798 22.388 26.5599C22.0986 26.6401 21.7884 26.5584 21.576 26.346L13.6541 18.4241C13.4417 18.2117 13.36 17.9015 13.4402 17.6121C13.5204 17.3226 13.75 17.0987 14.0414 17.0258L18.657 15.8719C19.0594 15.7713 19.4099 15.5244 19.6399 15.1792L21.489 12.4058C21.7661 11.9902 22.215 11.7207 22.712 11.6715C23.2091 11.6222 23.7021 11.7985 24.0553 12.1517Z" stroke="white" stroke-width="2" stroke-linecap="round" stroke-linejoin="round"/>
<path d="M13.3306 26.6694L17.615 22.385" stroke="white" stroke-width="2" stroke-linecap="round" stroke-linejoin="round"/>
</svg>
