<svg width="40" height="40" viewBox="0 0 40 40" fill="none" xmlns="http://www.w3.org/2000/svg">
<path fill-rule="evenodd" clip-rule="evenodd" d="M35.0063 20V20C35.0063 28.2877 28.2877 35.0063 20 35.0063V35.0063C11.7123 35.0063 4.99377 28.2877 4.99377 20V20C4.99377 11.7123 11.7123 4.99377 20 4.99377V4.99377C23.9799 4.99377 27.7968 6.57479 30.611 9.389C33.4253 12.2032 35.0063 16.0201 35.0063 20V20Z" fill="#E5AC8A"/>
<path fill-rule="evenodd" clip-rule="evenodd" d="M13.3306 21.9841C13.3306 24.8187 17.2889 26.9112 19.108 27.7265C19.6752 27.9849 20.3265 27.9849 20.8937 27.7265C22.7111 26.9112 26.6695 24.8103 26.6695 21.9841V16.5419C26.6692 15.6047 26.0819 14.7681 25.2005 14.4493L21.8058 13.2288C20.6369 12.8087 19.3581 12.8087 18.1893 13.2288L14.7978 14.4493C13.9175 14.77 13.3314 15.6066 13.3306 16.5435V21.9841Z" stroke="white" stroke-width="2" stroke-linecap="round" stroke-linejoin="round"/>
</svg>
