<svg width="84" height="16" viewBox="0 0 84 16" fill="none" xmlns="http://www.w3.org/2000/svg">
<path fill-rule="evenodd" clip-rule="evenodd" d="M5.15408 13.8885C4.81603 14.0649 4.40707 14.0338 4.09956 13.8083C3.79204 13.5828 3.63947 13.2021 3.70614 12.8267L4.2457 9.73406L1.97409 7.55715C1.69642 7.29236 1.59466 6.89208 1.71215 6.52683C1.82964 6.16158 2.14568 5.89569 2.52565 5.84244L5.67963 5.39158L7.10356 2.55107C7.27239 2.2104 7.61973 1.99489 7.99993 1.99489C8.38013 1.99489 8.72747 2.2104 8.8963 2.55107L10.3202 5.39158L13.4742 5.84244C13.8542 5.89569 14.1702 6.16158 14.2877 6.52683C14.4052 6.89208 14.3034 7.29236 14.0258 7.55715L11.7542 9.73406L12.2937 12.8273C12.3604 13.2028 12.2078 13.5835 11.9003 13.809C11.5928 14.0345 11.1838 14.0656 10.8458 13.8891L7.99993 12.4185L5.15408 13.8885Z" fill="#E3E5E8"/>
<path fill-rule="evenodd" clip-rule="evenodd" d="M22.1541 13.8885C21.816 14.0649 21.4071 14.0338 21.0996 13.8083C20.792 13.5828 20.6395 13.2021 20.7061 12.8267L21.2457 9.73406L18.9741 7.55715C18.6964 7.29236 18.5947 6.89208 18.7122 6.52683C18.8296 6.16158 19.1457 5.89569 19.5256 5.84244L22.6796 5.39158L24.1036 2.55107C24.2724 2.2104 24.6197 1.99489 24.9999 1.99489C25.3801 1.99489 25.7275 2.2104 25.8963 2.55107L27.3202 5.39158L30.4742 5.84244C30.8542 5.89569 31.1702 6.16158 31.2877 6.52683C31.4052 6.89208 31.3034 7.29236 31.0258 7.55715L28.7542 9.73406L29.2937 12.8273C29.3604 13.2028 29.2078 13.5835 28.9003 13.809C28.5928 14.0345 28.1838 14.0656 27.8458 13.8891L24.9999 12.4185L22.1541 13.8885Z" fill="#E3E5E8"/>
<path fill-rule="evenodd" clip-rule="evenodd" d="M39.1541 13.8885C38.816 14.0649 38.4071 14.0338 38.0996 13.8083C37.792 13.5828 37.6395 13.2021 37.7061 12.8267L38.2457 9.73406L35.9741 7.55715C35.6964 7.29236 35.5947 6.89208 35.7122 6.52683C35.8296 6.16158 36.1457 5.89569 36.5256 5.84244L39.6796 5.39158L41.1036 2.55107C41.2724 2.2104 41.6197 1.99489 41.9999 1.99489C42.3801 1.99489 42.7275 2.2104 42.8963 2.55107L44.3202 5.39158L47.4742 5.84244C47.8542 5.89569 48.1702 6.16158 48.2877 6.52683C48.4052 6.89208 48.3034 7.29236 48.0258 7.55715L45.7542 9.73406L46.2937 12.8273C46.3604 13.2028 46.2078 13.5835 45.9003 13.809C45.5928 14.0345 45.1838 14.0656 44.8458 13.8891L41.9999 12.4185L39.1541 13.8885Z" fill="#E3E5E8"/>
<path fill-rule="evenodd" clip-rule="evenodd" d="M56.1541 13.8885C55.816 14.0649 55.4071 14.0338 55.0996 13.8083C54.792 13.5828 54.6395 13.2021 54.7061 12.8267L55.2457 9.73406L52.9741 7.55715C52.6964 7.29236 52.5947 6.89208 52.7122 6.52683C52.8296 6.16158 53.1457 5.89569 53.5256 5.84244L56.6796 5.39158L58.1036 2.55107C58.2724 2.2104 58.6197 1.99489 58.9999 1.99489C59.3801 1.99489 59.7275 2.2104 59.8963 2.55107L61.3202 5.39158L64.4742 5.84244C64.8542 5.89569 65.1702 6.16158 65.2877 6.52683C65.4052 6.89208 65.3034 7.29236 65.0258 7.55715L62.7542 9.73406L63.2937 12.8273C63.3604 13.2028 63.2078 13.5835 62.9003 13.809C62.5928 14.0345 62.1838 14.0656 61.8458 13.8891L58.9999 12.4185L56.1541 13.8885Z" fill="#FFD600"/>
<path fill-rule="evenodd" clip-rule="evenodd" d="M73.1541 13.8885C72.816 14.0649 72.4071 14.0338 72.0996 13.8083C71.792 13.5828 71.6395 13.2021 71.7061 12.8267L72.2457 9.73406L69.9741 7.55715C69.6964 7.29236 69.5947 6.89208 69.7122 6.52683C69.8296 6.16158 70.1457 5.89569 70.5256 5.84244L73.6796 5.39158L75.1036 2.55107C75.2724 2.2104 75.6197 1.99489 75.9999 1.99489C76.3801 1.99489 76.7275 2.2104 76.8963 2.55107L78.3202 5.39158L81.4742 5.84244C81.8542 5.89569 82.1702 6.16158 82.2877 6.52683C82.4052 6.89208 82.3034 7.29236 82.0258 7.55715L79.7542 9.73406L80.2937 12.8273C80.3604 13.2028 80.2078 13.5835 79.9003 13.809C79.5928 14.0345 79.1838 14.0656 78.8458 13.8891L75.9999 12.4185L73.1541 13.8885Z" fill="#FFD600"/>
</svg>
