<svg width="63" height="12" viewBox="0 0 63 12" fill="none" xmlns="http://www.w3.org/2000/svg">
<path fill-rule="evenodd" clip-rule="evenodd" d="M3.86556 10.4164C3.61202 10.5487 3.3053 10.5254 3.07467 10.3563C2.84403 10.1872 2.7296 9.90165 2.77961 9.62006L3.18427 7.30059L1.48057 5.66791C1.27232 5.46932 1.196 5.16911 1.28411 4.89517C1.37223 4.62123 1.60926 4.42182 1.89424 4.38188L4.25972 4.04374L5.32767 1.91335C5.45429 1.65785 5.7148 1.49622 5.99995 1.49622C6.2851 1.49622 6.5456 1.65785 6.67223 1.91335L7.74017 4.04374L10.1057 4.38188C10.3906 4.42182 10.6277 4.62123 10.7158 4.89517C10.8039 5.16911 10.7276 5.46932 10.5193 5.66791L8.81562 7.30059L9.22029 9.62056C9.27029 9.90215 9.15586 10.1877 8.92523 10.3568C8.69459 10.5259 8.38787 10.5492 8.13434 10.4169L5.99995 9.31393L3.86556 10.4164Z" fill="#E3E5E8"/>
<path fill-rule="evenodd" clip-rule="evenodd" d="M16.6156 10.4164C16.362 10.5487 16.0553 10.5254 15.8247 10.3563C15.594 10.1872 15.4796 9.90165 15.5296 9.62006L15.9343 7.30059L14.2306 5.66791C14.0223 5.46932 13.946 5.16911 14.0341 4.89517C14.1222 4.62123 14.3593 4.42182 14.6442 4.38188L17.0097 4.04374L18.0777 1.91335C18.2043 1.65785 18.4648 1.49622 18.7499 1.49622C19.0351 1.49622 19.2956 1.65785 19.4222 1.91335L20.4902 4.04374L22.8557 4.38188C23.1406 4.42182 23.3777 4.62123 23.4658 4.89517C23.5539 5.16911 23.4776 5.46932 23.2693 5.66791L21.5656 7.30059L21.9703 9.62056C22.0203 9.90215 21.9059 10.1877 21.6752 10.3568C21.4446 10.5259 21.1379 10.5492 20.8843 10.4169L18.7499 9.31393L16.6156 10.4164Z" fill="#E3E5E8"/>
<path fill-rule="evenodd" clip-rule="evenodd" d="M29.3656 10.4164C29.112 10.5487 28.8053 10.5254 28.5747 10.3563C28.344 10.1872 28.2296 9.90165 28.2796 9.62006L28.6843 7.30059L26.9806 5.66791C26.7723 5.46932 26.696 5.16911 26.7841 4.89517C26.8722 4.62123 27.1093 4.42182 27.3942 4.38188L29.7597 4.04374L30.8277 1.91335C30.9543 1.65785 31.2148 1.49622 31.4999 1.49622C31.7851 1.49622 32.0456 1.65785 32.1722 1.91335L33.2402 4.04374L35.6057 4.38188C35.8906 4.42182 36.1277 4.62123 36.2158 4.89517C36.3039 5.16911 36.2276 5.46932 36.0193 5.66791L34.3156 7.30059L34.7203 9.62056C34.7703 9.90215 34.6559 10.1877 34.4252 10.3568C34.1946 10.5259 33.8879 10.5492 33.6343 10.4169L31.4999 9.31393L29.3656 10.4164Z" fill="#E3E5E8"/>
<path fill-rule="evenodd" clip-rule="evenodd" d="M42.1156 10.4164C41.862 10.5487 41.5553 10.5254 41.3247 10.3563C41.094 10.1872 40.9796 9.90165 41.0296 9.62006L41.4343 7.30059L39.7306 5.66791C39.5223 5.46932 39.446 5.16911 39.5341 4.89517C39.6222 4.62123 39.8593 4.42182 40.1442 4.38188L42.5097 4.04374L43.5777 1.91335C43.7043 1.65785 43.9648 1.49622 44.2499 1.49622C44.5351 1.49622 44.7956 1.65785 44.9222 1.91335L45.9902 4.04374L48.3557 4.38188C48.6406 4.42182 48.8777 4.62123 48.9658 4.89517C49.0539 5.16911 48.9776 5.46932 48.7693 5.66791L47.0656 7.30059L47.4703 9.62056C47.5203 9.90215 47.4059 10.1877 47.1752 10.3568C46.9446 10.5259 46.6379 10.5492 46.3843 10.4169L44.2499 9.31393L42.1156 10.4164Z" fill="#FFD600"/>
<path fill-rule="evenodd" clip-rule="evenodd" d="M54.8656 10.4164C54.612 10.5487 54.3053 10.5254 54.0747 10.3563C53.844 10.1872 53.7296 9.90165 53.7796 9.62006L54.1843 7.30059L52.4806 5.66791C52.2723 5.46932 52.196 5.16911 52.2841 4.89517C52.3722 4.62123 52.6093 4.42182 52.8942 4.38188L55.2597 4.04374L56.3277 1.91335C56.4543 1.65785 56.7148 1.49622 56.9999 1.49622C57.2851 1.49622 57.5456 1.65785 57.6722 1.91335L58.7402 4.04374L61.1057 4.38188C61.3906 4.42182 61.6277 4.62123 61.7158 4.89517C61.8039 5.16911 61.7276 5.46932 61.5193 5.66791L59.8156 7.30059L60.2203 9.62056C60.2703 9.90215 60.1559 10.1877 59.9252 10.3568C59.6946 10.5259 59.3879 10.5492 59.1343 10.4169L56.9999 9.31393L54.8656 10.4164Z" fill="#FFD600"/>
</svg>