<svg width="63" height="12" viewBox="0 0 63 12" fill="none" xmlns="http://www.w3.org/2000/svg">
<path fill-rule="evenodd" clip-rule="evenodd" d="M3.86556 10.4163C3.61202 10.5487 3.3053 10.5254 3.07467 10.3562C2.84403 10.1871 2.7296 9.90159 2.77961 9.62L3.18427 7.30053L1.48057 5.66785C1.27232 5.46926 1.196 5.16905 1.28411 4.89511C1.37223 4.62117 1.60926 4.42176 1.89424 4.38182L4.25972 4.04368L5.32767 1.91329C5.45429 1.65779 5.7148 1.49615 5.99995 1.49615C6.2851 1.49615 6.5456 1.65779 6.67223 1.91329L7.74017 4.04368L10.1057 4.38182C10.3906 4.42176 10.6277 4.62117 10.7158 4.89511C10.8039 5.16905 10.7276 5.46926 10.5193 5.66785L8.81562 7.30053L9.22029 9.6205C9.27029 9.90209 9.15586 10.1876 8.92523 10.3567C8.69459 10.5259 8.38787 10.5492 8.13434 10.4168L5.99995 9.31387L3.86556 10.4163Z" fill="#FFD600"/>
<path fill-rule="evenodd" clip-rule="evenodd" d="M16.6156 10.4163C16.362 10.5487 16.0553 10.5254 15.8247 10.3562C15.594 10.1871 15.4796 9.90159 15.5296 9.62L15.9343 7.30053L14.2306 5.66785C14.0223 5.46926 13.946 5.16905 14.0341 4.89511C14.1222 4.62117 14.3593 4.42176 14.6442 4.38182L17.0097 4.04368L18.0777 1.91329C18.2043 1.65779 18.4648 1.49615 18.7499 1.49615C19.0351 1.49615 19.2956 1.65779 19.4222 1.91329L20.4902 4.04368L22.8557 4.38182C23.1406 4.42176 23.3777 4.62117 23.4658 4.89511C23.5539 5.16905 23.4776 5.46926 23.2693 5.66785L21.5656 7.30053L21.9703 9.6205C22.0203 9.90209 21.9059 10.1876 21.6752 10.3567C21.4446 10.5259 21.1379 10.5492 20.8843 10.4168L18.7499 9.31387L16.6156 10.4163Z" fill="#FFD600"/>
<path fill-rule="evenodd" clip-rule="evenodd" d="M29.3656 10.4163C29.112 10.5487 28.8053 10.5254 28.5747 10.3562C28.344 10.1871 28.2296 9.90159 28.2796 9.62L28.6843 7.30053L26.9806 5.66785C26.7723 5.46926 26.696 5.16905 26.7841 4.89511C26.8722 4.62117 27.1093 4.42176 27.3942 4.38182L29.7597 4.04368L30.8277 1.91329C30.9543 1.65779 31.2148 1.49615 31.4999 1.49615C31.7851 1.49615 32.0456 1.65779 32.1722 1.91329L33.2402 4.04368L35.6057 4.38182C35.8906 4.42176 36.1277 4.62117 36.2158 4.89511C36.3039 5.16905 36.2276 5.46926 36.0193 5.66785L34.3156 7.30053L34.7203 9.6205C34.7703 9.90209 34.6559 10.1876 34.4252 10.3567C34.1946 10.5259 33.8879 10.5492 33.6343 10.4168L31.4999 9.31387L29.3656 10.4163Z" fill="#FFD600"/>
<path fill-rule="evenodd" clip-rule="evenodd" d="M42.1156 10.4163C41.862 10.5487 41.5553 10.5254 41.3247 10.3562C41.094 10.1871 40.9796 9.90159 41.0296 9.62L41.4343 7.30053L39.7306 5.66785C39.5223 5.46926 39.446 5.16905 39.5341 4.89511C39.6222 4.62117 39.8593 4.42176 40.1442 4.38182L42.5097 4.04368L43.5777 1.91329C43.7043 1.65779 43.9648 1.49615 44.2499 1.49615C44.5351 1.49615 44.7956 1.65779 44.9222 1.91329L45.9902 4.04368L48.3557 4.38182C48.6406 4.42176 48.8777 4.62117 48.9658 4.89511C49.0539 5.16905 48.9776 5.46926 48.7693 5.66785L47.0656 7.30053L47.4703 9.6205C47.5203 9.90209 47.4059 10.1876 47.1752 10.3567C46.9446 10.5259 46.6379 10.5492 46.3843 10.4168L44.2499 9.31387L42.1156 10.4163Z" fill="#FFD600"/>
<path fill-rule="evenodd" clip-rule="evenodd" d="M54.8656 10.4163C54.612 10.5487 54.3053 10.5254 54.0747 10.3562C53.844 10.1871 53.7296 9.90159 53.7796 9.62L54.1843 7.30053L52.4806 5.66785C52.2723 5.46926 52.196 5.16905 52.2841 4.89511C52.3722 4.62117 52.6093 4.42176 52.8942 4.38182L55.2597 4.04368L56.3277 1.91329C56.4543 1.65779 56.7148 1.49615 56.9999 1.49615C57.2851 1.49615 57.5456 1.65779 57.6722 1.91329L58.7402 4.04368L61.1057 4.38182C61.3906 4.42176 61.6277 4.62117 61.7158 4.89511C61.8039 5.16905 61.7276 5.46926 61.5193 5.66785L59.8156 7.30053L60.2203 9.6205C60.2703 9.90209 60.1559 10.1876 59.9252 10.3567C59.6946 10.5259 59.3879 10.5492 59.1343 10.4168L56.9999 9.31387L54.8656 10.4163Z" fill="#FFD600"/>
</svg>
