<svg width="20" height="20" viewBox="0 0 20 20" fill="none" xmlns="http://www.w3.org/2000/svg">
<path d="M13.4787 9.87743C14.0899 9.28022 14.3328 8.40062 14.1148 7.57443C13.8968 6.74823 13.2515 6.10298 12.4254 5.88499C11.5992 5.667 10.7196 5.90993 10.1223 6.52104L9.16612 7.47727C8.72086 7.92227 8.4707 8.52596 8.4707 9.15547C8.4707 9.78497 8.72086 10.3887 9.16612 10.8337" stroke="#4E4B59" stroke-width="1.2" stroke-linecap="round" stroke-linejoin="round"/>
<rect x="2.49707" y="2.49683" width="15.0062" height="15.0062" rx="5" stroke="#4E4B59" stroke-width="1.2" stroke-linecap="round" stroke-linejoin="round"/>
<path d="M6.52128 10.1226C5.91017 10.7198 5.66725 11.5994 5.88524 12.4256C6.10322 13.2518 6.74848 13.897 7.57467 14.115C8.40087 14.333 9.28046 14.0901 9.87768 13.479L10.9031 12.4536C11.3484 12.0086 11.5985 11.4049 11.5985 10.7754C11.5985 10.1459 11.3484 9.54217 10.9031 9.09717" stroke="#4E4B59" stroke-width="1.2" stroke-linecap="round" stroke-linejoin="round"/>
</svg>
