<svg width="32" height="32" viewBox="0 0 32 32" fill="none" xmlns="http://www.w3.org/2000/svg">
<path d="M23.3364 16.004C23.3364 16.3708 23.6366 16.671 24.0034 16.667C24.3702 16.667 24.6703 16.3668 24.6703 16C24.6703 15.6332 24.3702 15.3331 24.0034 15.3331C23.6366 15.3331 23.3364 15.6332 23.3364 16.004" stroke="#323232" stroke-width="2" stroke-linecap="round" stroke-linejoin="round"/>
<path d="M15.3333 16.004C15.3333 16.3708 15.6334 16.671 16.0002 16.667C16.367 16.667 16.6671 16.3668 16.6671 16C16.6671 15.6332 16.367 15.3331 16.0002 15.3331C15.6334 15.3331 15.3333 15.6332 15.3333 16.004" stroke="#323232" stroke-width="2" stroke-linecap="round" stroke-linejoin="round"/>
<path d="M7.32983 16.004C7.32983 16.3708 7.62996 16.671 7.99678 16.667C8.3636 16.667 8.66372 16.3668 8.66372 16C8.66372 15.6332 8.3636 15.3331 7.99678 15.3331C7.62996 15.3331 7.32983 15.6332 7.32983 16.004" stroke="#323232" stroke-width="2" stroke-linecap="round" stroke-linejoin="round"/>
</svg>
