<svg width="20" height="21" viewBox="0 0 20 21" fill="none" xmlns="http://www.w3.org/2000/svg">
<path fill-rule="evenodd" clip-rule="evenodd" d="M10.4243 5.4785L10 5.90926L9.57572 5.47843C8.80214 4.69255 7.74554 4.25 6.6428 4.25C5.54007 4.25 4.48346 4.69255 3.70988 5.47843V5.47843C2.09675 7.13614 2.09675 9.77687 3.70988 11.4346L8.20376 15.9976C8.67754 16.4789 9.32467 16.75 10 16.75C10.6754 16.75 11.3226 16.4789 11.7963 15.9976L16.2902 11.4347C17.9033 9.77695 17.9033 7.13622 16.2902 5.4785V5.4785C15.5166 4.6926 14.46 4.25003 13.3572 4.25003C12.2545 4.25003 11.1978 4.69259 10.4243 5.4785Z" stroke="#9D446E" stroke-width="1.5" stroke-linecap="round" stroke-linejoin="round"/>
</svg>
