<svg width="20" height="20" viewBox="0 0 20 20" fill="none" xmlns="http://www.w3.org/2000/svg">
<path d="M11.275 6.26672L7.89166 8.80006" stroke="#9D446E" stroke-width="1.5" stroke-linecap="round" stroke-linejoin="round"/>
<path d="M13.6707 3.86852C14.332 4.52981 14.332 5.60197 13.6707 6.26326C13.0094 6.92454 11.9372 6.92454 11.2759 6.26326C10.6146 5.60197 10.6146 4.52981 11.2759 3.86852C11.9372 3.20724 13.0094 3.20724 13.6707 3.86852" stroke="#9D446E" stroke-width="1.5" stroke-linecap="round" stroke-linejoin="round"/>
<path d="M11.275 13.7334L7.89166 11.2001" stroke="#9D446E" stroke-width="1.5" stroke-linecap="round" stroke-linejoin="round"/>
<path d="M13.6707 13.7369C14.332 14.3982 14.332 15.4704 13.6707 16.1317C13.0094 16.793 11.9372 16.793 11.2759 16.1317C10.6146 15.4704 10.6146 14.3982 11.2759 13.7369C11.9372 13.0756 13.0094 13.0756 13.6707 13.7369" stroke="#9D446E" stroke-width="1.5" stroke-linecap="round" stroke-linejoin="round"/>
<path d="M7.88785 8.80395C8.54849 9.46459 8.54849 10.5357 7.88785 11.1963C7.22722 11.857 6.15611 11.857 5.49548 11.1963C4.83484 10.5357 4.83484 9.46458 5.49548 8.80395C6.15611 8.14331 7.22722 8.14331 7.88785 8.80395" stroke="#9D446E" stroke-width="1.5" stroke-linecap="round" stroke-linejoin="round"/>
</svg>
