<svg width="20" height="20" viewBox="0 0 20 20" fill="none" xmlns="http://www.w3.org/2000/svg">
<path d="M7.49894 10.8335H5.83158C3.98986 10.8335 2.49686 9.3405 2.49686 7.49878V7.49878C2.49686 5.65707 3.98986 4.16406 5.83158 4.16406H7.49894" stroke="#4E4B59" stroke-width="1.2" stroke-linecap="round" stroke-linejoin="round"/>
<path d="M11.6674 4.16406H13.3347C15.1764 4.16406 16.6694 5.65707 16.6694 7.49878" stroke="#4E4B59" stroke-width="1.2" stroke-linecap="round" stroke-linejoin="round"/>
<path d="M5.83157 7.49887H12.501" stroke="#4E4B59" stroke-width="1.2" stroke-linecap="round" stroke-linejoin="round"/>
<path d="M13.7516 10C15.8235 10 17.5031 11.6796 17.5031 13.7516C17.5031 15.8235 15.8235 17.5031 13.7516 17.5031C11.6796 17.5031 10 15.8235 10 13.7516C10 11.6796 11.6796 10 13.7516 10" stroke="#4E4B59" stroke-width="1.2" stroke-linecap="round" stroke-linejoin="round"/>
<path d="M12.7745 13.7518C12.7745 13.7748 12.7558 13.7935 12.7328 13.7935C12.7098 13.7935 12.6911 13.7748 12.6911 13.7518C12.6911 13.7288 12.7098 13.7101 12.7328 13.7101" stroke="#4E4B59" stroke-width="1.2" stroke-linecap="round" stroke-linejoin="round"/>
<path d="M12.7328 13.7105C12.7558 13.7105 12.7745 13.7291 12.7745 13.7521" stroke="#4E4B59" stroke-width="1.2" stroke-linecap="round" stroke-linejoin="round"/>
<path d="M14.812 13.7518C14.812 13.7748 14.7933 13.7935 14.7703 13.7935C14.7473 13.7935 14.7286 13.7748 14.7286 13.7518C14.7286 13.7288 14.7473 13.7101 14.7703 13.7101" stroke="#4E4B59" stroke-width="1.2" stroke-linecap="round" stroke-linejoin="round"/>
<path d="M14.7703 13.7105C14.7933 13.7105 14.812 13.7291 14.812 13.7521" stroke="#4E4B59" stroke-width="1.2" stroke-linecap="round" stroke-linejoin="round"/>
</svg>
