<svg width="20" height="21" viewBox="0 0 20 21" fill="none" xmlns="http://www.w3.org/2000/svg">
<path d="M11.275 6.76672L7.89166 9.30006" stroke="#9D446E" stroke-width="1.5" stroke-linecap="round" stroke-linejoin="round"/>
<path d="M13.6707 4.36852C14.332 5.02981 14.332 6.10197 13.6707 6.76326C13.0094 7.42454 11.9372 7.42454 11.2759 6.76326C10.6146 6.10197 10.6146 5.02981 11.2759 4.36852C11.9372 3.70724 13.0094 3.70724 13.6707 4.36852" stroke="#9D446E" stroke-width="1.5" stroke-linecap="round" stroke-linejoin="round"/>
<path d="M11.275 14.2334L7.89166 11.7001" stroke="#9D446E" stroke-width="1.5" stroke-linecap="round" stroke-linejoin="round"/>
<path d="M13.6707 14.2369C14.332 14.8982 14.332 15.9704 13.6707 16.6317C13.0094 17.293 11.9372 17.293 11.2759 16.6317C10.6146 15.9704 10.6146 14.8982 11.2759 14.2369C11.9372 13.5756 13.0094 13.5756 13.6707 14.2369" stroke="#9D446E" stroke-width="1.5" stroke-linecap="round" stroke-linejoin="round"/>
<path d="M7.88785 9.30395C8.54849 9.96459 8.54849 11.0357 7.88785 11.6963C7.22722 12.357 6.15611 12.357 5.49548 11.6963C4.83484 11.0357 4.83484 9.96458 5.49548 9.30395C6.15611 8.64331 7.22722 8.64331 7.88785 9.30395" stroke="#9D446E" stroke-width="1.5" stroke-linecap="round" stroke-linejoin="round"/>
</svg>
