<svg width="20" height="20" viewBox="0 0 20 20" fill="none" xmlns="http://www.w3.org/2000/svg">
<path fill-rule="evenodd" clip-rule="evenodd" d="M10 2.5V2.5C14.1425 2.5 17.5 5.8575 17.5 10V10C17.5 14.1425 14.1425 17.5 10 17.5V17.5C5.8575 17.5 2.5 14.1425 2.5 10V10C2.5 5.8575 5.8575 2.5 10 2.5Z" stroke="#BD3E59" stroke-width="1.2" stroke-linecap="round" stroke-linejoin="round"/>
<path d="M10.0007 10.4167V6.25" stroke="#BD3E59" stroke-width="1.2" stroke-linecap="round" stroke-linejoin="round"/>
<path d="M9.99982 13.3333C9.88482 13.3333 9.79149 13.4267 9.79232 13.5417C9.79232 13.6567 9.88565 13.75 10.0007 13.75C10.1157 13.75 10.209 13.6567 10.209 13.5417C10.209 13.4267 10.1157 13.3333 9.99982 13.3333" stroke="#BD3E59" stroke-width="1.2" stroke-linecap="round" stroke-linejoin="round"/>
</svg>
