<svg width="222" height="106" viewBox="0 0 222 106" fill="none" xmlns="http://www.w3.org/2000/svg">
<g opacity="0.1" clip-path="url(#clip0_4195_12073)">
<path d="M118.295 142C86.1709 142 60.0273 115.856 60.0273 83.7327V-15.5345C60.0273 -19.0882 62.9233 -22 66.4926 -22H171.004C174.073 -22 176.578 -19.5109 176.578 -16.4269C176.578 -13.3585 174.088 -10.8537 171.004 -10.8537H71.1734V83.7327C71.1734 109.72 92.3232 130.869 118.31 130.869C144.297 130.869 165.447 109.72 165.447 83.7327C165.447 80.6644 167.936 78.1596 171.02 78.1596C174.088 78.1596 176.593 80.6488 176.593 83.7327C176.562 115.856 150.418 142 118.295 142Z" fill="#9D446E"/>
<path d="M37.4305 112.866C36.0059 112.866 34.5813 112.318 33.5012 111.238C31.3251 109.062 31.3251 105.54 33.5012 103.364L123.704 13.1606C139.985 -3.12043 166.504 -3.12043 182.801 13.1606L187.811 18.1702C190.018 20.3775 190.676 23.6807 189.486 26.5768C188.28 29.473 185.494 31.3358 182.363 31.3358H175.553C168.962 31.3358 163.609 36.7055 163.609 43.2805V45.8949C163.609 75.4355 139.578 99.4657 110.037 99.4657H88.4807C85.4124 99.4657 82.9079 96.9766 82.9079 93.8926C82.9079 90.8086 85.3967 88.3195 88.4807 88.3195H110.037C133.441 88.3195 152.478 69.2832 152.478 45.8792V43.2649C152.478 31.0228 162.059 20.9724 174.129 20.2209C162.121 9.0747 143.288 9.3408 131.61 21.0193L41.4069 111.222C40.2798 112.334 38.8551 112.866 37.4305 112.866Z" fill="#9D446E"/>
</g>
<defs>
<clipPath id="clip0_4195_12073">
<rect width="222" height="106" fill="white"/>
</clipPath>
</defs>
</svg>
