<svg width="16" height="16" viewBox="0 0 16 16" fill="none" xmlns="http://www.w3.org/2000/svg">
<path fill-rule="evenodd" clip-rule="evenodd" d="M5.15408 13.8884C4.81603 14.0649 4.40707 14.0338 4.09956 13.8083C3.79204 13.5828 3.63947 13.2021 3.70614 12.8267L4.2457 9.73404L1.97409 7.55714C1.69642 7.29234 1.59466 6.89207 1.71215 6.52681C1.82964 6.16156 2.14568 5.89568 2.52565 5.84242L5.67963 5.39157L7.10356 2.55105C7.27239 2.21039 7.61973 1.99487 7.99993 1.99487C8.38013 1.99487 8.72747 2.21039 8.8963 2.55105L10.3202 5.39157L13.4742 5.84242C13.8542 5.89568 14.1702 6.16156 14.2877 6.52681C14.4052 6.89207 14.3034 7.29234 14.0258 7.55714L11.7542 9.73404L12.2937 12.8273C12.3604 13.2028 12.2078 13.5835 11.9003 13.809C11.5928 14.0345 11.1838 14.0656 10.8458 13.8891L7.99993 12.4185L5.15408 13.8884Z" fill="#FFD600"/>
</svg>
