<svg width="451" height="272" viewBox="0 0 451 272" fill="none" xmlns="http://www.w3.org/2000/svg">
<g clip-path="url(#clip0_6713_12751)">
<g clip-path="url(#clip1_6713_12751)">
<path d="M300.032 6.91797H272.57V43.3903H300.032V6.91797Z" fill="#C57E59"/>
<path d="M312.89 6.91797H300.031V43.3903H312.89V6.91797Z" fill="#FAC2A8"/>
<path d="M316.659 0H268.785V6.91806H316.659V0Z" fill="#E5AC8A"/>
<path d="M316.676 0H303.521V6.91806H316.676V0Z" fill="#FACFBC"/>
<path d="M0 258.321H451V263.148C451 268.044 447.022 272.018 442.12 272.018H8.88043C3.97787 272.018 0 268.044 0 263.148V258.321Z" fill="#6EBB5A"/>
<path d="M424.672 136.392H35.4512V258.321H424.672V136.392Z" fill="#C57E59"/>
<path d="M424.674 136.392H211.09V258.321H424.674V136.392Z" fill="#FBB693"/>
<g style="mix-blend-mode:multiply" opacity="0.34">
<path d="M424.691 241.975H35.5918V258.286H424.691V241.975Z" fill="#FBB693"/>
</g>
<path d="M441.387 141.672H19.0176L82.7333 36.6465H377.654L441.387 141.672Z" fill="#E5AC8A"/>
<path d="M441.387 141.672H194.375L258.091 36.6465H377.654L441.387 141.672Z" fill="#FACFBC"/>
<path d="M331.781 106.806C341.561 99.1274 343.257 84.9843 335.57 75.2163C327.882 65.4484 313.722 63.7544 303.942 71.4328C294.162 79.1111 292.466 93.2542 300.154 103.022C307.842 112.79 322.002 114.484 331.781 106.806Z" fill="#FBB693"/>
<path d="M336.428 89.1505C336.428 93.2805 335.085 97.0793 332.799 100.164C331.839 101.436 330.74 102.586 329.502 103.562C328.385 104.485 327.146 105.252 325.82 105.879C323.413 107.012 320.726 107.657 317.882 107.657C317.481 107.657 317.062 107.639 316.661 107.622C307.013 106.995 299.354 98.9787 299.354 89.1505C299.354 86.0487 300.121 83.1386 301.447 80.577C302.913 77.7889 305.076 75.419 307.693 73.6938C308.914 72.8922 310.223 72.23 311.619 71.7247C313.084 71.2019 314.619 70.8534 316.225 70.714C316.783 70.6617 317.324 70.6443 317.882 70.6443C328.123 70.6443 336.428 78.9216 336.428 89.1505Z" fill="#FADCD0"/>
<path d="M325.82 105.879C323.413 107.012 320.726 107.657 317.882 107.657C317.481 107.657 317.062 107.639 316.661 107.622L301.447 80.5771C302.913 77.7889 305.076 75.419 307.693 73.6938L325.82 105.879Z" fill="white"/>
<path d="M332.8 100.164C331.84 101.436 330.741 102.586 329.502 103.562L311.619 71.7248C313.085 71.202 314.62 70.8535 316.225 70.7141L332.8 100.164Z" fill="white"/>
<path d="M193.033 84.829L152.417 30.2861H123.246L111.783 120.97H163.879L193.033 90.1091V84.829Z" fill="#FAC2A8"/>
<path d="M163.879 84.829L123.245 30.2861L82.6289 84.829V120.97H163.879V84.829Z" fill="#C57E59"/>
<path d="M159.674 87.9657L123.245 39.0514L86.8334 87.9657H73.7832L123.245 21.521L172.724 87.9657H159.674Z" fill="#FADCD0"/>
<path d="M123.244 21.521H150.182L200.516 87.9657H172.723L123.244 21.521Z" fill="#FACFBC"/>
<path d="M123.246 59.823C111.888 59.823 102.693 69.0238 102.693 80.3506V113.181H143.815V80.3506C143.815 69.0064 134.604 59.823 123.263 59.823H123.246Z" fill="#FBB693"/>
<path d="M141.441 81.0652V110.114H105.064V81.0652C105.064 79.34 105.309 77.6672 105.762 76.0988C106.53 73.3456 107.943 70.8711 109.827 68.8148C110.822 67.717 111.973 66.7412 113.23 65.9221C113.439 65.7827 113.648 65.6433 113.858 65.5213C114.922 64.8766 116.056 64.3364 117.277 63.9182C117.417 63.8659 117.574 63.8136 117.731 63.7613C119.476 63.2037 121.325 62.9075 123.261 62.9075C133.293 62.9075 141.441 71.0453 141.441 81.0652Z" fill="#FADCD0"/>
<path d="M133.085 110.114H122.949L105.764 79.5664V76.0987C106.531 73.3454 107.945 70.8709 109.829 68.8147L133.085 110.114Z" fill="white"/>
<path d="M141.442 106.873V110.114H138.075L113.23 65.9219C113.44 65.7825 113.649 65.6431 113.859 65.5211C114.923 64.8764 116.057 64.3362 117.278 63.918L141.442 106.873Z" fill="white"/>
<path d="M370.674 165.737H265.086V228.749H370.674V165.737Z" fill="#FAC2A8"/>
<path d="M366.277 170.024H269.482V224.463H366.277V170.024Z" fill="#FADCD0"/>
<path d="M330.79 224.497H316.431L316.414 224.463L285.01 170.024H298.461L330.773 224.463L330.79 224.497Z" fill="white"/>
<path d="M347.975 224.497H340.804L309.871 170.634C312.104 170.268 314.39 170.076 316.71 170.024L347.975 224.497Z" fill="white"/>
<path d="M121.623 165.737H55.6562V228.749H121.623V165.737Z" fill="#FAC2A8"/>
<path d="M117.226 170.024H60.0703V224.463H117.226V170.024Z" fill="#F5DED0"/>
<path d="M104.507 224.497H90.1486L90.1312 224.463L60.0703 172.359V170.024H72.1784L104.49 224.463L104.507 224.497Z" fill="white"/>
<path d="M117.225 216.691V224.463H114.521L83.6055 170.634C85.8387 170.268 88.1242 170.076 90.4446 170.024L117.225 216.691Z" fill="white"/>
<path d="M382.224 228.749H253.414V236.66H382.224V228.749Z" fill="#FACFBC"/>
<path d="M170.856 258.319H190.711V246.4H170.856V258.319Z" fill="#7F4124"/>
<path d="M133.957 258.302H177.486V252.394H133.957V258.302Z" fill="#5B2F20"/>
<path d="M139.958 252.324H183.488V246.417H139.958V252.324Z" fill="#E5AC8A"/>
<path d="M146.134 246.401H186.541V183.877H146.134V246.401Z" fill="#7F4124"/>
<path d="M151.019 246.401H186.541V187.013H151.019V246.401Z" fill="#FADCD0"/>
<path d="M155.713 222.492C156.585 222.492 157.283 221.795 157.283 220.924V215.783C157.283 214.912 156.585 214.215 155.713 214.215C154.84 214.215 154.143 214.912 154.143 215.783V220.924C154.143 221.795 154.84 222.492 155.713 222.492Z" fill="#7F4124"/>
<path d="M176.788 183.878H191.723V177.273H176.788V183.878Z" fill="#E5AC8A"/>
<path d="M140.97 183.878H182.912V177.273H140.97V183.878Z" fill="#5B2F20"/>
<path d="M351.449 221.291C349.756 214.024 349.372 206.461 350.332 199.055C351.658 199.613 352.112 201.234 352.391 202.645C353.56 208.396 354.711 214.129 355.88 219.879C354.292 212.787 354.572 205.276 356.683 198.306C358.584 205.712 359.579 213.31 360.329 220.907C360.329 211.027 361.55 201.147 363.941 191.545C364.499 201.181 365.232 210.818 366.104 220.437C366.645 216.621 367.168 212.787 367.709 208.971C368.093 206.27 368.634 203.29 370.797 201.652C371.059 208.483 370.937 215.331 370.413 222.145" fill="#5BA341"/>
<path d="M352.443 219.026C352.548 216.447 352.67 213.867 352.775 211.288C352.827 210.173 352.862 209.058 352.914 207.943C353.002 205.782 353.106 203.639 353.159 201.478C353.228 198.916 353.298 196.233 354.52 193.967C354.659 202.349 355.13 210.731 355.95 219.078C356.84 219.252 357.677 218.416 357.887 217.527C358.096 216.638 357.852 215.715 357.712 214.808C356.927 209.982 358.672 205.102 358.567 200.223C358.515 197.905 358.061 195.623 358.026 193.305C357.991 190.987 358.515 188.53 360.103 186.857C361.394 195.483 362.702 204.179 362.301 212.892C362.179 215.558 362.022 218.59 363.923 220.472C366.872 213.711 362.405 205.033 366.383 198.829C367.587 203.482 368.093 208.326 367.849 213.136C367.727 215.575 367.483 218.259 368.931 220.245C371.914 217.126 368.599 211.062 371.617 207.978C372.699 212.683 373.031 217.579 372.56 222.389" fill="#6EBB5A"/>
<path d="M376.222 218.346H348.953L351.849 228.749H373.326L376.222 218.346Z" fill="#E5AC8A"/>
<path d="M428.459 238.943C424.062 238.943 420.067 240.651 417.101 243.456C413.054 236.817 405.726 232.374 397.351 232.374C384.58 232.374 374.234 242.707 374.234 255.463C374.234 256.439 374.287 257.38 374.409 258.321H444.754C444.929 257.397 444.999 256.456 444.999 255.48C444.999 246.349 437.584 238.943 428.442 238.943H428.459Z" fill="#5BA341"/>
<path d="M441.387 141.672H19.0176V150.402H441.387V141.672Z" fill="#FADCD0"/>
<g style="mix-blend-mode:multiply" opacity="0.24">
<path d="M211.089 153.208H202.941V158.558H211.089V153.208Z" fill="#FBB693"/>
<path d="M219.238 161.207H211.09V166.556H219.238V161.207Z" fill="#C57E59"/>
<path d="M211.089 169.344H202.941V174.694H211.089V169.344Z" fill="#FBB693"/>
<path d="M219.238 177.343H211.09V182.693H219.238V177.343Z" fill="#C57E59"/>
<path d="M211.089 185.498H202.941V190.848H211.089V185.498Z" fill="#FBB693"/>
<path d="M219.238 193.497H211.09V198.846H219.238V193.497Z" fill="#C57E59"/>
<path d="M211.089 201.635H202.941V206.984H211.089V201.635Z" fill="#FBB693"/>
<path d="M219.238 209.633H211.09V214.983H219.238V209.633Z" fill="#C57E59"/>
<path d="M211.089 217.788H202.941V223.138H211.089V217.788Z" fill="#FBB693"/>
<path d="M219.238 225.787H211.09V231.136H219.238V225.787Z" fill="#C57E59"/>
<path d="M211.089 233.942H202.941V239.292H211.089V233.942Z" fill="#FBB693"/>
<path d="M219.238 241.94H211.09V247.29H219.238V241.94Z" fill="#C57E59"/>
<path d="M211.089 250.078H202.941V255.428H211.089V250.078Z" fill="#FBB693"/>
</g>
<path d="M37.2838 148.311V249.364H32.957V254.417H38.8541C40.5638 254.417 41.9596 253.023 41.9596 251.315V148.311H37.2838Z" fill="white"/>
<path d="M126.078 19.1089C126.412 19.0853 126.655 19.0686 126.738 19.064L128.707 19.8343L127.703 21.0786L129.934 23.2884C130.39 23.7395 129.98 25.0886 129.692 24.5157C129.677 24.4859 129.675 24.4469 129.686 24.399C129.846 23.7175 127.742 22.2736 125.639 20.9968C124.795 20.4844 125.093 19.1784 126.078 19.1089Z" fill="#692C49"/>
<path d="M129.587 18.9224C129.922 18.8988 130.165 18.8821 130.248 18.8775L132.217 19.6478L131.212 20.8921L133.444 23.1019C133.9 23.553 133.49 24.9021 133.202 24.3292C133.187 24.2994 133.185 24.2603 133.196 24.2125C133.356 23.5309 131.252 22.0871 129.149 20.8103C128.305 20.2979 128.603 18.9918 129.587 18.9224Z" fill="#692C49"/>
<path d="M136.622 16.6674C136.709 14.4427 137.429 12.9475 137.778 12.478L133.516 14.9339C130.254 15.8007 124.126 18.0182 125.715 19.9539C127.702 22.3737 130.663 21.8681 132 21.7236C133.336 21.5792 136.514 19.4483 136.622 16.6674Z" fill="#9D446E"/>
<path d="M123.728 14.5728C120.55 13.6194 115.5 11.3948 116.5 10C117.337 9.44227 118.453 9.66131 119.129 10.4051C121.013 12.476 122.91 13.2486 124.956 13.6699C127.412 14.1756 128.207 15.259 128.893 15.1507C129.442 15.064 131.096 13.2847 131.855 12.4059C134.195 10.499 136.441 10.9372 137.272 11.3947L138.5 12.1531C138.139 12.3939 137.149 13.2149 136.08 14.5728C134.744 16.2703 129.435 19.5207 125.859 20.0624C122.999 20.4958 120.936 22.121 120.261 22.8794C121.388 19.8168 123.283 17.8955 124.09 17.3176C123.743 16.9131 123.704 15.3192 123.728 14.5728Z" fill="#C06D94"/>
</g>
</g>
<defs>
<clipPath id="clip0_6713_12751">
<rect width="451" height="272" fill="white"/>
</clipPath>
<clipPath id="clip1_6713_12751">
<rect width="451" height="272" fill="white"/>
</clipPath>
</defs>
</svg>
