<svg width="336" height="367" viewBox="0 0 336 367" fill="none" xmlns="http://www.w3.org/2000/svg">
<mask id="mask0_12802_46743" style="mask-type:alpha" maskUnits="userSpaceOnUse" x="0" y="0" width="336" height="367">
<rect x="1" y="1" width="334" height="365" fill="#E8B7CE" stroke="#CF84A7"/>
</mask>
<g mask="url(#mask0_12802_46743)">
<g opacity="0.15">
<rect opacity="0.9" x="-12" y="1" width="24" height="24" stroke="#CF84A7"/>
<rect opacity="0.7" x="12" y="1" width="24" height="24" stroke="#CF84A7"/>
<rect opacity="0.2" x="36" y="1" width="24" height="24" stroke="#CF84A7"/>
<rect opacity="0.3" x="60" y="1" width="24" height="24" stroke="#CF84A7"/>
<rect opacity="0.4" x="84" y="1" width="24" height="24" stroke="#CF84A7"/>
<rect opacity="0.7" x="108" y="1" width="24" height="24" stroke="#CF84A7"/>
<rect x="132" y="1" width="24" height="24" stroke="#CF84A7"/>
<rect opacity="0.9" x="156" y="1" width="24" height="24" stroke="#CF84A7"/>
<rect opacity="0.5" x="180" y="1" width="24" height="24" stroke="#CF84A7"/>
<rect opacity="0.4" x="204" y="1" width="24" height="24" stroke="#CF84A7"/>
<rect opacity="0.8" x="228" y="1" width="24" height="24" stroke="#CF84A7"/>
<rect opacity="0.2" x="252" y="1" width="24" height="24" stroke="#CF84A7"/>
<rect opacity="0.4" x="276" y="1" width="24" height="24" stroke="#CF84A7"/>
<rect opacity="0.6" x="300" y="1" width="24" height="24" stroke="#CF84A7"/>
<rect opacity="0.8" x="324" y="1" width="24" height="24" stroke="#CF84A7"/>
</g>
<g opacity="0.15">
<rect opacity="0.9" width="24" height="24" transform="matrix(-1 0 0 1 348 25)" stroke="#CF84A7"/>
<rect opacity="0.7" width="24" height="24" transform="matrix(-1 0 0 1 324 25)" stroke="#CF84A7"/>
<rect opacity="0.2" width="24" height="24" transform="matrix(-1 0 0 1 300 25)" stroke="#CF84A7"/>
<rect opacity="0.3" width="24" height="24" transform="matrix(-1 0 0 1 276 25)" stroke="#CF84A7"/>
<rect opacity="0.4" width="24" height="24" transform="matrix(-1 0 0 1 252 25)" stroke="#CF84A7"/>
<rect opacity="0.7" width="24" height="24" transform="matrix(-1 0 0 1 228 25)" stroke="#CF84A7"/>
<rect width="24" height="24" transform="matrix(-1 0 0 1 204 25)" stroke="#CF84A7"/>
<rect opacity="0.9" width="24" height="24" transform="matrix(-1 0 0 1 180 25)" stroke="#CF84A7"/>
<rect width="24" height="24" transform="matrix(-1 0 0 1 156 25)" fill="#E8B7CE" stroke="#CF84A7"/>
<rect opacity="0.4" width="24" height="24" transform="matrix(-1 0 0 1 132 25)" stroke="#CF84A7"/>
<rect opacity="0.8" width="24" height="24" transform="matrix(-1 0 0 1 108 25)" stroke="#CF84A7"/>
<rect opacity="0.2" width="24" height="24" transform="matrix(-1 0 0 1 84 25)" stroke="#CF84A7"/>
<rect width="24" height="24" transform="matrix(-1 0 0 1 60 25)" fill="#E8B7CE" stroke="#CF84A7"/>
<rect opacity="0.6" width="24" height="24" transform="matrix(-1 0 0 1 36 25)" stroke="#CF84A7"/>
<rect opacity="0.8" width="24" height="24" transform="matrix(-1 0 0 1 12 25)" stroke="#CF84A7"/>
</g>
<g opacity="0.15">
<rect opacity="0.9" x="-12" y="49" width="24" height="24" stroke="#CF84A7"/>
<rect opacity="0.7" x="12" y="49" width="24" height="24" stroke="#CF84A7"/>
<rect x="36" y="49" width="24" height="24" fill="#E8B7CE" stroke="#CF84A7"/>
<rect opacity="0.3" x="60" y="49" width="24" height="24" stroke="#CF84A7"/>
<rect x="84" y="49" width="24" height="24" fill="#E8B7CE" stroke="#CF84A7"/>
<rect opacity="0.7" x="108" y="49" width="24" height="24" stroke="#CF84A7"/>
<rect x="132" y="49" width="24" height="24" stroke="#CF84A7"/>
<rect opacity="0.9" x="156" y="49" width="24" height="24" stroke="#CF84A7"/>
<rect opacity="0.5" x="180" y="49" width="24" height="24" stroke="#CF84A7"/>
<rect opacity="0.4" x="204" y="49" width="24" height="24" stroke="#CF84A7"/>
<rect x="228" y="49" width="24" height="24" fill="#E8B7CE" stroke="#CF84A7"/>
<rect x="252" y="49" width="24" height="24" fill="#E8B7CE" stroke="#CF84A7"/>
<rect opacity="0.4" x="276" y="49" width="24" height="24" stroke="#CF84A7"/>
<rect x="300" y="49" width="24" height="24" fill="#E8B7CE" stroke="#CF84A7"/>
<rect opacity="0.8" x="324" y="49" width="24" height="24" stroke="#CF84A7"/>
</g>
<g opacity="0.15">
<rect opacity="0.9" width="24" height="24" transform="matrix(-1 0 0 1 348 73)" stroke="#CF84A7"/>
<rect opacity="0.7" width="24" height="24" transform="matrix(-1 0 0 1 324 73)" stroke="#CF84A7"/>
<rect width="24" height="24" transform="matrix(-1 0 0 1 300 73)" fill="#E8B7CE" stroke="#CF84A7"/>
<rect opacity="0.3" width="24" height="24" transform="matrix(-1 0 0 1 276 73)" stroke="#CF84A7"/>
<rect opacity="0.4" width="24" height="24" transform="matrix(-1 0 0 1 252 73)" stroke="#CF84A7"/>
<rect opacity="0.7" width="24" height="24" transform="matrix(-1 0 0 1 228 73)" stroke="#CF84A7"/>
<rect width="24" height="24" transform="matrix(-1 0 0 1 204 73)" stroke="#CF84A7"/>
<rect opacity="0.9" width="24" height="24" transform="matrix(-1 0 0 1 180 73)" stroke="#CF84A7"/>
<rect opacity="0.5" width="24" height="24" transform="matrix(-1 0 0 1 156 73)" stroke="#CF84A7"/>
<rect opacity="0.4" width="24" height="24" transform="matrix(-1 0 0 1 132 73)" stroke="#CF84A7"/>
<rect opacity="0.8" width="24" height="24" transform="matrix(-1 0 0 1 108 73)" stroke="#CF84A7"/>
<rect opacity="0.2" width="24" height="24" transform="matrix(-1 0 0 1 84 73)" stroke="#CF84A7"/>
<rect opacity="0.4" width="24" height="24" transform="matrix(-1 0 0 1 60 73)" stroke="#CF84A7"/>
<rect opacity="0.6" width="24" height="24" transform="matrix(-1 0 0 1 36 73)" stroke="#CF84A7"/>
<rect opacity="0.8" width="24" height="24" transform="matrix(-1 0 0 1 12 73)" stroke="#CF84A7"/>
</g>
<g opacity="0.15">
<rect opacity="0.9" width="24" height="24" transform="matrix(-1 0 0 1 348 97)" stroke="#CF84A7"/>
<rect opacity="0.7" width="24" height="24" transform="matrix(-1 0 0 1 324 97)" stroke="#CF84A7"/>
<rect opacity="0.2" width="24" height="24" transform="matrix(-1 0 0 1 300 97)" stroke="#CF84A7"/>
<rect opacity="0.3" width="24" height="24" transform="matrix(-1 0 0 1 276 97)" stroke="#CF84A7"/>
<rect opacity="0.4" width="24" height="24" transform="matrix(-1 0 0 1 252 97)" stroke="#CF84A7"/>
<rect opacity="0.7" width="24" height="24" transform="matrix(-1 0 0 1 228 97)" stroke="#CF84A7"/>
<rect width="24" height="24" transform="matrix(-1 0 0 1 204 97)" stroke="#CF84A7"/>
<rect opacity="0.9" width="24" height="24" transform="matrix(-1 0 0 1 180 97)" stroke="#CF84A7"/>
<rect opacity="0.5" width="24" height="24" transform="matrix(-1 0 0 1 156 97)" stroke="#CF84A7"/>
<rect opacity="0.4" width="24" height="24" transform="matrix(-1 0 0 1 132 97)" stroke="#CF84A7"/>
<rect opacity="0.8" width="24" height="24" transform="matrix(-1 0 0 1 108 97)" stroke="#CF84A7"/>
<rect width="24" height="24" transform="matrix(-1 0 0 1 84 97)" fill="#E8B7CE" stroke="#CF84A7"/>
<rect opacity="0.4" width="24" height="24" transform="matrix(-1 0 0 1 60 97)" stroke="#CF84A7"/>
<rect opacity="0.6" width="24" height="24" transform="matrix(-1 0 0 1 36 97)" stroke="#CF84A7"/>
<rect opacity="0.8" width="24" height="24" transform="matrix(-1 0 0 1 12 97)" stroke="#CF84A7"/>
</g>
<g opacity="0.15">
<rect opacity="0.9" x="-12" y="121" width="24" height="24" stroke="#CF84A7"/>
<rect opacity="0.7" x="12" y="121" width="24" height="24" stroke="#CF84A7"/>
<rect opacity="0.2" x="36" y="121" width="24" height="24" stroke="#CF84A7"/>
<rect opacity="0.3" x="60" y="121" width="24" height="24" stroke="#CF84A7"/>
<rect opacity="0.4" x="84" y="121" width="24" height="24" stroke="#CF84A7"/>
<rect opacity="0.7" x="108" y="121" width="24" height="24" stroke="#CF84A7"/>
<rect x="132" y="121" width="24" height="24" stroke="#CF84A7"/>
<rect opacity="0.9" x="156" y="121" width="24" height="24" stroke="#CF84A7"/>
<rect opacity="0.5" x="180" y="121" width="24" height="24" stroke="#CF84A7"/>
<rect opacity="0.4" x="204" y="121" width="24" height="24" stroke="#CF84A7"/>
<rect opacity="0.8" x="228" y="121" width="24" height="24" stroke="#CF84A7"/>
<rect opacity="0.2" x="252" y="121" width="24" height="24" stroke="#CF84A7"/>
<rect opacity="0.4" x="276" y="121" width="24" height="24" stroke="#CF84A7"/>
<rect opacity="0.6" x="300" y="121" width="24" height="24" stroke="#CF84A7"/>
<rect opacity="0.8" x="324" y="121" width="24" height="24" stroke="#CF84A7"/>
</g>
<g opacity="0.15">
<rect opacity="0.9" width="24" height="24" transform="matrix(-1 0 0 1 348 145)" stroke="#CF84A7"/>
<rect width="24" height="24" transform="matrix(-1 0 0 1 324 145)" fill="#E8B7CE" stroke="#CF84A7"/>
<rect opacity="0.2" width="24" height="24" transform="matrix(-1 0 0 1 300 145)" stroke="#CF84A7"/>
<rect opacity="0.3" width="24" height="24" transform="matrix(-1 0 0 1 276 145)" stroke="#CF84A7"/>
<rect opacity="0.4" width="24" height="24" transform="matrix(-1 0 0 1 252 145)" stroke="#CF84A7"/>
<rect opacity="0.7" width="24" height="24" transform="matrix(-1 0 0 1 228 145)" stroke="#CF84A7"/>
<rect width="24" height="24" transform="matrix(-1 0 0 1 204 145)" fill="#E8B7CE" stroke="#CF84A7"/>
<rect opacity="0.9" width="24" height="24" transform="matrix(-1 0 0 1 180 145)" stroke="#CF84A7"/>
<rect opacity="0.5" width="24" height="24" transform="matrix(-1 0 0 1 156 145)" stroke="#CF84A7"/>
<rect opacity="0.4" width="24" height="24" transform="matrix(-1 0 0 1 132 145)" stroke="#CF84A7"/>
<rect opacity="0.8" width="24" height="24" transform="matrix(-1 0 0 1 108 145)" stroke="#CF84A7"/>
<rect opacity="0.2" width="24" height="24" transform="matrix(-1 0 0 1 84 145)" stroke="#CF84A7"/>
<rect opacity="0.4" width="24" height="24" transform="matrix(-1 0 0 1 60 145)" stroke="#CF84A7"/>
<rect width="24" height="24" transform="matrix(-1 0 0 1 36 145)" fill="#E8B7CE" stroke="#CF84A7"/>
<rect opacity="0.8" width="24" height="24" transform="matrix(-1 0 0 1 12 145)" stroke="#CF84A7"/>
</g>
<g opacity="0.15">
<rect opacity="0.9" x="-12" y="169" width="24" height="24" stroke="#CF84A7"/>
<rect opacity="0.7" x="12" y="169" width="24" height="24" stroke="#CF84A7"/>
<rect opacity="0.2" x="36" y="169" width="24" height="24" stroke="#CF84A7"/>
<rect opacity="0.3" x="60" y="169" width="24" height="24" stroke="#CF84A7"/>
<rect opacity="0.4" x="84" y="169" width="24" height="24" stroke="#CF84A7"/>
<rect opacity="0.7" x="108" y="169" width="24" height="24" stroke="#CF84A7"/>
<rect x="132" y="169" width="24" height="24" stroke="#CF84A7"/>
<rect opacity="0.9" x="156" y="169" width="24" height="24" stroke="#CF84A7"/>
<rect opacity="0.5" x="180" y="169" width="24" height="24" stroke="#CF84A7"/>
<rect opacity="0.4" x="204" y="169" width="24" height="24" stroke="#CF84A7"/>
<rect opacity="0.8" x="228" y="169" width="24" height="24" stroke="#CF84A7"/>
<rect opacity="0.2" x="252" y="169" width="24" height="24" stroke="#CF84A7"/>
<rect opacity="0.4" x="276" y="169" width="24" height="24" stroke="#CF84A7"/>
<rect opacity="0.6" x="300" y="169" width="24" height="24" stroke="#CF84A7"/>
<rect opacity="0.8" x="324" y="169" width="24" height="24" stroke="#CF84A7"/>
</g>
<g opacity="0.15">
<rect opacity="0.9" width="24" height="24" transform="matrix(-1 0 0 1 348 193)" stroke="#CF84A7"/>
<rect opacity="0.7" width="24" height="24" transform="matrix(-1 0 0 1 324 193)" stroke="#CF84A7"/>
<rect opacity="0.2" width="24" height="24" transform="matrix(-1 0 0 1 300 193)" stroke="#CF84A7"/>
<rect opacity="0.3" width="24" height="24" transform="matrix(-1 0 0 1 276 193)" stroke="#CF84A7"/>
<rect opacity="0.4" width="24" height="24" transform="matrix(-1 0 0 1 252 193)" stroke="#CF84A7"/>
<rect opacity="0.7" width="24" height="24" transform="matrix(-1 0 0 1 228 193)" stroke="#CF84A7"/>
<rect width="24" height="24" transform="matrix(-1 0 0 1 204 193)" stroke="#CF84A7"/>
<rect width="24" height="24" transform="matrix(-1 0 0 1 180 193)" fill="#E8B7CE" stroke="#CF84A7"/>
<rect opacity="0.5" width="24" height="24" transform="matrix(-1 0 0 1 156 193)" stroke="#CF84A7"/>
<rect opacity="0.4" width="24" height="24" transform="matrix(-1 0 0 1 132 193)" stroke="#CF84A7"/>
<rect opacity="0.8" width="24" height="24" transform="matrix(-1 0 0 1 108 193)" stroke="#CF84A7"/>
<rect width="24" height="24" transform="matrix(-1 0 0 1 84 193)" fill="#E8B7CE" stroke="#CF84A7"/>
<rect opacity="0.4" width="24" height="24" transform="matrix(-1 0 0 1 60 193)" stroke="#CF84A7"/>
<rect opacity="0.6" width="24" height="24" transform="matrix(-1 0 0 1 36 193)" stroke="#CF84A7"/>
<rect opacity="0.8" width="24" height="24" transform="matrix(-1 0 0 1 12 193)" stroke="#CF84A7"/>
</g>
<g opacity="0.15">
<rect opacity="0.9" x="-12" y="217" width="24" height="24" stroke="#CF84A7"/>
<rect opacity="0.7" x="12" y="217" width="24" height="24" stroke="#CF84A7"/>
<rect opacity="0.2" x="36" y="217" width="24" height="24" stroke="#CF84A7"/>
<rect x="60" y="217" width="24" height="24" fill="#E8B7CE" stroke="#CF84A7"/>
<rect x="84" y="217" width="24" height="24" fill="#E8B7CE" stroke="#CF84A7"/>
<rect opacity="0.7" x="108" y="217" width="24" height="24" stroke="#CF84A7"/>
<rect x="132" y="217" width="24" height="24" stroke="#CF84A7"/>
<rect opacity="0.9" x="156" y="217" width="24" height="24" stroke="#CF84A7"/>
<rect opacity="0.5" x="180" y="217" width="24" height="24" stroke="#CF84A7"/>
<rect opacity="0.4" x="204" y="217" width="24" height="24" stroke="#CF84A7"/>
<rect opacity="0.8" x="228" y="217" width="24" height="24" stroke="#CF84A7"/>
<rect opacity="0.2" x="252" y="217" width="24" height="24" stroke="#CF84A7"/>
<rect opacity="0.4" x="276" y="217" width="24" height="24" stroke="#CF84A7"/>
<rect opacity="0.6" x="300" y="217" width="24" height="24" stroke="#CF84A7"/>
<rect opacity="0.8" x="324" y="217" width="24" height="24" stroke="#CF84A7"/>
</g>
<g opacity="0.15">
<rect opacity="0.9" width="24" height="24" transform="matrix(-1 0 0 1 348 241)" stroke="#CF84A7"/>
<rect opacity="0.7" width="24" height="24" transform="matrix(-1 0 0 1 324 241)" stroke="#CF84A7"/>
<rect width="24" height="24" transform="matrix(-1 0 0 1 300 241)" fill="#E8B7CE" stroke="#CF84A7"/>
<rect opacity="0.3" width="24" height="24" transform="matrix(-1 0 0 1 276 241)" stroke="#CF84A7"/>
<rect opacity="0.4" width="24" height="24" transform="matrix(-1 0 0 1 252 241)" stroke="#CF84A7"/>
<rect opacity="0.7" width="24" height="24" transform="matrix(-1 0 0 1 228 241)" stroke="#CF84A7"/>
<rect width="24" height="24" transform="matrix(-1 0 0 1 204 241)" stroke="#CF84A7"/>
<rect opacity="0.9" width="24" height="24" transform="matrix(-1 0 0 1 180 241)" stroke="#CF84A7"/>
<rect opacity="0.5" width="24" height="24" transform="matrix(-1 0 0 1 156 241)" stroke="#CF84A7"/>
<rect opacity="0.4" width="24" height="24" transform="matrix(-1 0 0 1 132 241)" stroke="#CF84A7"/>
<rect opacity="0.8" width="24" height="24" transform="matrix(-1 0 0 1 108 241)" stroke="#CF84A7"/>
<rect opacity="0.2" width="24" height="24" transform="matrix(-1 0 0 1 84 241)" stroke="#CF84A7"/>
<rect opacity="0.4" width="24" height="24" transform="matrix(-1 0 0 1 60 241)" stroke="#CF84A7"/>
<rect opacity="0.6" width="24" height="24" transform="matrix(-1 0 0 1 36 241)" stroke="#CF84A7"/>
<rect opacity="0.8" width="24" height="24" transform="matrix(-1 0 0 1 12 241)" stroke="#CF84A7"/>
</g>
<g opacity="0.15">
<rect opacity="0.9" width="24" height="24" transform="matrix(-1 0 0 1 348 265)" stroke="#CF84A7"/>
<rect opacity="0.7" width="24" height="24" transform="matrix(-1 0 0 1 324 265)" stroke="#CF84A7"/>
<rect opacity="0.2" width="24" height="24" transform="matrix(-1 0 0 1 300 265)" stroke="#CF84A7"/>
<rect opacity="0.3" width="24" height="24" transform="matrix(-1 0 0 1 276 265)" stroke="#CF84A7"/>
<rect opacity="0.4" width="24" height="24" transform="matrix(-1 0 0 1 252 265)" stroke="#CF84A7"/>
<rect opacity="0.7" width="24" height="24" transform="matrix(-1 0 0 1 228 265)" stroke="#CF84A7"/>
<rect width="24" height="24" transform="matrix(-1 0 0 1 204 265)" fill="#E8B7CE" stroke="#CF84A7"/>
<rect opacity="0.9" width="24" height="24" transform="matrix(-1 0 0 1 180 265)" stroke="#CF84A7"/>
<rect opacity="0.5" width="24" height="24" transform="matrix(-1 0 0 1 156 265)" stroke="#CF84A7"/>
<rect opacity="0.4" width="24" height="24" transform="matrix(-1 0 0 1 132 265)" stroke="#CF84A7"/>
<rect opacity="0.8" width="24" height="24" transform="matrix(-1 0 0 1 108 265)" stroke="#CF84A7"/>
<rect width="24" height="24" transform="matrix(-1 0 0 1 84 265)" fill="#E8B7CE" stroke="#CF84A7"/>
<rect opacity="0.4" width="24" height="24" transform="matrix(-1 0 0 1 60 265)" stroke="#CF84A7"/>
<rect opacity="0.6" width="24" height="24" transform="matrix(-1 0 0 1 36 265)" stroke="#CF84A7"/>
<rect opacity="0.8" width="24" height="24" transform="matrix(-1 0 0 1 12 265)" stroke="#CF84A7"/>
</g>
<g opacity="0.15">
<rect opacity="0.9" x="-12" y="289" width="24" height="24" stroke="#CF84A7"/>
<rect opacity="0.7" x="12" y="289" width="24" height="24" stroke="#CF84A7"/>
<rect opacity="0.2" x="36" y="289" width="24" height="24" stroke="#CF84A7"/>
<rect opacity="0.3" x="60" y="289" width="24" height="24" stroke="#CF84A7"/>
<rect opacity="0.4" x="84" y="289" width="24" height="24" stroke="#CF84A7"/>
<rect opacity="0.7" x="108" y="289" width="24" height="24" stroke="#CF84A7"/>
<rect x="132" y="289" width="24" height="24" stroke="#CF84A7"/>
<rect opacity="0.9" x="156" y="289" width="24" height="24" stroke="#CF84A7"/>
<rect opacity="0.5" x="180" y="289" width="24" height="24" stroke="#CF84A7"/>
<rect opacity="0.4" x="204" y="289" width="24" height="24" stroke="#CF84A7"/>
<rect opacity="0.8" x="228" y="289" width="24" height="24" stroke="#CF84A7"/>
<rect opacity="0.2" x="252" y="289" width="24" height="24" stroke="#CF84A7"/>
<rect opacity="0.4" x="276" y="289" width="24" height="24" stroke="#CF84A7"/>
<rect opacity="0.6" x="300" y="289" width="24" height="24" stroke="#CF84A7"/>
<rect opacity="0.8" x="324" y="289" width="24" height="24" stroke="#CF84A7"/>
</g>
<g opacity="0.15">
<rect opacity="0.9" width="24" height="24" transform="matrix(-1 0 0 1 348 313)" stroke="#CF84A7"/>
<rect opacity="0.7" width="24" height="24" transform="matrix(-1 0 0 1 324 313)" stroke="#CF84A7"/>
<rect opacity="0.2" width="24" height="24" transform="matrix(-1 0 0 1 300 313)" stroke="#CF84A7"/>
<rect opacity="0.3" width="24" height="24" transform="matrix(-1 0 0 1 276 313)" stroke="#CF84A7"/>
<rect opacity="0.4" width="24" height="24" transform="matrix(-1 0 0 1 252 313)" stroke="#CF84A7"/>
<rect opacity="0.7" width="24" height="24" transform="matrix(-1 0 0 1 228 313)" stroke="#CF84A7"/>
<rect width="24" height="24" transform="matrix(-1 0 0 1 204 313)" stroke="#CF84A7"/>
<rect opacity="0.9" width="24" height="24" transform="matrix(-1 0 0 1 180 313)" stroke="#CF84A7"/>
<rect opacity="0.5" width="24" height="24" transform="matrix(-1 0 0 1 156 313)" stroke="#CF84A7"/>
<rect opacity="0.4" width="24" height="24" transform="matrix(-1 0 0 1 132 313)" stroke="#CF84A7"/>
<rect opacity="0.8" width="24" height="24" transform="matrix(-1 0 0 1 108 313)" stroke="#CF84A7"/>
<rect opacity="0.2" width="24" height="24" transform="matrix(-1 0 0 1 84 313)" stroke="#CF84A7"/>
<rect opacity="0.4" width="24" height="24" transform="matrix(-1 0 0 1 60 313)" stroke="#CF84A7"/>
<rect opacity="0.6" width="24" height="24" transform="matrix(-1 0 0 1 36 313)" stroke="#CF84A7"/>
<rect opacity="0.8" width="24" height="24" transform="matrix(-1 0 0 1 12 313)" stroke="#CF84A7"/>
</g>
<g opacity="0.15">
<rect opacity="0.9" width="24" height="29" transform="matrix(-1 0 0 1 348 337)" stroke="#CF84A7"/>
<rect opacity="0.7" width="24" height="29" transform="matrix(-1 0 0 1 324 337)" stroke="#CF84A7"/>
<rect opacity="0.2" width="24" height="29" transform="matrix(-1 0 0 1 300 337)" stroke="#CF84A7"/>
<rect opacity="0.3" width="24" height="29" transform="matrix(-1 0 0 1 276 337)" stroke="#CF84A7"/>
<rect opacity="0.4" width="24" height="29" transform="matrix(-1 0 0 1 252 337)" stroke="#CF84A7"/>
<rect opacity="0.7" width="24" height="29" transform="matrix(-1 0 0 1 228 337)" stroke="#CF84A7"/>
<rect width="24" height="29" transform="matrix(-1 0 0 1 204 337)" stroke="#CF84A7"/>
<rect opacity="0.9" width="24" height="29" transform="matrix(-1 0 0 1 180 337)" stroke="#CF84A7"/>
<rect opacity="0.5" width="24" height="29" transform="matrix(-1 0 0 1 156 337)" stroke="#CF84A7"/>
<rect opacity="0.4" width="24" height="29" transform="matrix(-1 0 0 1 132 337)" stroke="#CF84A7"/>
<rect opacity="0.8" width="24" height="29" transform="matrix(-1 0 0 1 108 337)" stroke="#CF84A7"/>
<rect opacity="0.2" width="24" height="29" transform="matrix(-1 0 0 1 84 337)" stroke="#CF84A7"/>
<rect opacity="0.4" width="24" height="29" transform="matrix(-1 0 0 1 60 337)" stroke="#CF84A7"/>
<rect opacity="0.6" width="24" height="29" transform="matrix(-1 0 0 1 36 337)" stroke="#CF84A7"/>
<rect opacity="0.8" width="24" height="29" transform="matrix(-1 0 0 1 12 337)" stroke="#CF84A7"/>
</g>
<g filter="url(#filter0_d_12802_46743)">
<path d="M44 -30C44 -38.8366 51.1634 -46 60 -46H375V306H60C51.1634 306 44 298.837 44 290V-30Z" fill="white"/>
<path d="M45 -30C45 -38.2843 51.7157 -45 60 -45H374V305H60C51.7157 305 45 298.284 45 290V-30Z" stroke="url(#paint0_linear_12802_46743)" stroke-width="2"/>
</g>
<rect x="76" y="164" width="109" height="10" rx="5" fill="#F6F6F8"/>
<rect x="195" y="164" width="61" height="10" rx="5" fill="#F6F6F8"/>
<rect x="266" y="164" width="184" height="10" rx="5" fill="#F6F6F8"/>
<rect x="76" y="181" width="184" height="10" rx="5" fill="#F6F6F8"/>
<rect x="270" y="181" width="184" height="10" rx="5" fill="#F6F6F8"/>
<rect x="76" y="198" width="128" height="10" rx="5" fill="#F6F6F8"/>
<rect x="214" y="198" width="240" height="10" rx="5" fill="#F6F6F8"/>
<rect x="76" y="66" width="148" height="10" rx="5" fill="#F6F6F8"/>
<rect x="234" y="66" width="61" height="10" rx="5" fill="#F6F6F8"/>
<rect x="305" y="66" width="184" height="10" rx="5" fill="#F6F6F8"/>
<rect x="76" y="83" width="94" height="10" rx="5" fill="#F6F6F8"/>
<rect x="180" y="83" width="184" height="10" rx="5" fill="#F6F6F8"/>
<rect x="76" y="100" width="187" height="10" rx="5" fill="#F6F6F8"/>
<rect x="273" y="100" width="240" height="10" rx="5" fill="#F6F6F8"/>
<path d="M90 136L83 143L79 139" stroke="#E3E5E8" stroke-width="2" stroke-linecap="round" stroke-linejoin="round"/>
<path d="M104.686 144.244H105.708V135.984H104.686V135.228H109.656C110.085 135.228 110.473 135.279 110.818 135.382C111.173 135.485 111.471 135.643 111.714 135.858C111.966 136.063 112.157 136.329 112.288 136.656C112.428 136.973 112.498 137.347 112.498 137.776C112.498 138.448 112.302 139.003 111.91 139.442C111.527 139.871 111.005 140.151 110.342 140.282L112.05 143.32C112.237 143.647 112.437 143.885 112.652 144.034C112.876 144.174 113.151 144.244 113.478 144.244H113.576V145H112.498C112.199 145 111.943 144.977 111.728 144.93C111.523 144.874 111.341 144.795 111.182 144.692C111.023 144.58 110.883 144.445 110.762 144.286C110.641 144.118 110.524 143.922 110.412 143.698L108.774 140.576H107.374V144.244H108.396V145H104.686V144.244ZM107.374 139.792H109.236C109.731 139.792 110.109 139.652 110.37 139.372C110.641 139.092 110.776 138.719 110.776 138.252V137.594C110.776 137.127 110.641 136.754 110.37 136.474C110.109 136.194 109.731 136.054 109.236 136.054H107.374V139.792ZM117.519 145.168C116.978 145.168 116.497 145.079 116.077 144.902C115.657 144.715 115.303 144.454 115.013 144.118C114.724 143.782 114.5 143.381 114.341 142.914C114.192 142.447 114.117 141.929 114.117 141.36C114.117 140.781 114.197 140.259 114.355 139.792C114.523 139.325 114.752 138.929 115.041 138.602C115.34 138.266 115.69 138.009 116.091 137.832C116.502 137.645 116.95 137.552 117.435 137.552C117.93 137.552 118.373 137.636 118.765 137.804C119.157 137.963 119.489 138.191 119.759 138.49C120.039 138.789 120.254 139.148 120.403 139.568C120.553 139.988 120.627 140.455 120.627 140.968V141.346H115.811V141.794C115.811 142.522 115.993 143.087 116.357 143.488C116.721 143.88 117.211 144.076 117.827 144.076C118.369 144.076 118.803 143.959 119.129 143.726C119.465 143.483 119.713 143.185 119.871 142.83L120.473 143.194C120.389 143.437 120.263 143.675 120.095 143.908C119.937 144.141 119.736 144.351 119.493 144.538C119.251 144.725 118.966 144.879 118.639 145C118.313 145.112 117.939 145.168 117.519 145.168ZM115.811 140.604H119.003V140.45C119.003 139.778 118.873 139.26 118.611 138.896C118.359 138.523 117.967 138.336 117.435 138.336C116.913 138.336 116.511 138.518 116.231 138.882C115.951 139.237 115.811 139.75 115.811 140.422V140.604ZM125.775 147.044H127.007V143.908H126.937C126.788 144.244 126.545 144.538 126.209 144.79C125.873 145.042 125.434 145.168 124.893 145.168C124.445 145.168 124.039 145.084 123.675 144.916C123.311 144.739 123.003 144.487 122.751 144.16C122.499 143.833 122.303 143.437 122.163 142.97C122.023 142.494 121.953 141.957 121.953 141.36C121.953 140.763 122.023 140.231 122.163 139.764C122.303 139.288 122.499 138.887 122.751 138.56C123.003 138.233 123.311 137.986 123.675 137.818C124.039 137.641 124.445 137.552 124.893 137.552C125.472 137.552 125.934 137.678 126.279 137.93C126.634 138.182 126.886 138.476 127.035 138.812H127.105L127.889 137.72H128.561V147.044H129.513V147.8H125.775V147.044ZM125.383 144.16C125.588 144.16 125.789 144.132 125.985 144.076C126.181 144.011 126.354 143.917 126.503 143.796C126.662 143.675 126.783 143.53 126.867 143.362C126.96 143.194 127.007 143.003 127.007 142.788V139.932C127.007 139.717 126.96 139.526 126.867 139.358C126.783 139.19 126.662 139.045 126.503 138.924C126.354 138.803 126.181 138.714 125.985 138.658C125.789 138.593 125.588 138.56 125.383 138.56C124.851 138.56 124.426 138.742 124.109 139.106C123.792 139.47 123.633 139.974 123.633 140.618V142.102C123.633 142.746 123.792 143.25 124.109 143.614C124.426 143.978 124.851 144.16 125.383 144.16ZM133.62 145.168C132.733 145.168 132.103 144.944 131.73 144.496C131.357 144.039 131.17 143.357 131.17 142.452V138.84L130.218 138.658V138.042L132.738 137.552V142.368C132.738 142.975 132.855 143.418 133.088 143.698C133.321 143.978 133.69 144.118 134.194 144.118C134.381 144.118 134.563 144.095 134.74 144.048C134.927 143.992 135.09 143.913 135.23 143.81C135.379 143.698 135.496 143.563 135.58 143.404C135.673 143.245 135.72 143.054 135.72 142.83V138.84L134.768 138.658V138.042L137.288 137.552V143.88L138.24 144.062V144.678L135.762 145.168V143.866H135.692C135.636 144.025 135.547 144.183 135.426 144.342C135.314 144.501 135.169 144.641 134.992 144.762C134.824 144.883 134.623 144.981 134.39 145.056C134.166 145.131 133.909 145.168 133.62 145.168ZM141.024 136.362C140.725 136.362 140.492 136.278 140.324 136.11C140.156 135.933 140.072 135.709 140.072 135.438V135.354C140.072 135.083 140.156 134.864 140.324 134.696C140.492 134.519 140.725 134.43 141.024 134.43C141.323 134.43 141.556 134.519 141.724 134.696C141.892 134.864 141.976 135.083 141.976 135.354V135.438C141.976 135.709 141.892 135.933 141.724 136.11C141.556 136.278 141.323 136.362 141.024 136.362ZM139.288 144.244H140.24V138.84L139.288 138.658V138.042L141.808 137.552V144.244H142.76V145H139.288V144.244ZM146.795 145.168C146.319 145.168 145.932 145.075 145.633 144.888C145.335 144.701 145.139 144.496 145.045 144.272H144.989V145H143.925V142.83H144.989V143.082C144.989 143.474 145.111 143.782 145.353 144.006C145.596 144.23 145.988 144.342 146.529 144.342C147.537 144.342 148.041 143.987 148.041 143.278C148.041 142.727 147.677 142.363 146.949 142.186L146.193 142.004C145.447 141.827 144.891 141.556 144.527 141.192C144.163 140.828 143.981 140.329 143.981 139.694C143.981 139.013 144.21 138.485 144.667 138.112C145.125 137.739 145.731 137.552 146.487 137.552C146.954 137.552 147.327 137.631 147.607 137.79C147.887 137.949 148.069 138.14 148.153 138.364H148.209V137.72H149.273V139.89H148.209V139.484C148.209 138.747 147.71 138.378 146.711 138.378C146.282 138.378 145.951 138.462 145.717 138.63C145.493 138.789 145.381 139.031 145.381 139.358C145.381 139.937 145.755 140.319 146.501 140.506L147.215 140.674C147.971 140.842 148.536 141.099 148.909 141.444C149.283 141.78 149.469 142.279 149.469 142.942C149.469 143.614 149.227 144.155 148.741 144.566C148.265 144.967 147.617 145.168 146.795 145.168ZM152.508 136.362C152.21 136.362 151.976 136.278 151.808 136.11C151.64 135.933 151.556 135.709 151.556 135.438V135.354C151.556 135.083 151.64 134.864 151.808 134.696C151.976 134.519 152.21 134.43 152.508 134.43C152.807 134.43 153.04 134.519 153.208 134.696C153.376 134.864 153.46 135.083 153.46 135.354V135.438C153.46 135.709 153.376 135.933 153.208 136.11C153.04 136.278 152.807 136.362 152.508 136.362ZM150.772 144.244H151.724V138.84L150.772 138.658V138.042L153.292 137.552V144.244H154.244V145H150.772V144.244ZM157.538 145.112C157.006 145.112 156.632 145 156.418 144.776C156.203 144.552 156.096 144.197 156.096 143.712V138.532H155.144V137.72H155.382C155.727 137.72 155.965 137.659 156.096 137.538C156.226 137.417 156.334 137.239 156.418 137.006L156.852 135.774H157.664V137.72H159.414V138.532H157.664V144.202H159.414V144.818C159.255 144.893 158.998 144.958 158.644 145.014C158.298 145.079 157.93 145.112 157.538 145.112ZM163.744 144.342C164.332 144.342 164.762 144.16 165.032 143.796C165.312 143.432 165.452 142.947 165.452 142.34V140.38C165.452 139.773 165.312 139.288 165.032 138.924C164.762 138.56 164.332 138.378 163.744 138.378C163.156 138.378 162.722 138.56 162.442 138.924C162.172 139.288 162.036 139.773 162.036 140.38V142.34C162.036 142.947 162.172 143.432 162.442 143.796C162.722 144.16 163.156 144.342 163.744 144.342ZM163.744 145.168C163.231 145.168 162.764 145.079 162.344 144.902C161.924 144.725 161.565 144.473 161.266 144.146C160.968 143.819 160.734 143.423 160.566 142.956C160.408 142.48 160.328 141.948 160.328 141.36C160.328 140.772 160.408 140.245 160.566 139.778C160.734 139.302 160.968 138.901 161.266 138.574C161.565 138.247 161.924 137.995 162.344 137.818C162.764 137.641 163.231 137.552 163.744 137.552C164.258 137.552 164.724 137.641 165.144 137.818C165.564 137.995 165.924 138.247 166.222 138.574C166.521 138.901 166.75 139.302 166.908 139.778C167.076 140.245 167.16 140.772 167.16 141.36C167.16 141.948 167.076 142.48 166.908 142.956C166.75 143.423 166.521 143.819 166.222 144.146C165.924 144.473 165.564 144.725 165.144 144.902C164.724 145.079 164.258 145.168 163.744 145.168ZM171.35 145.168C170.874 145.168 170.487 145.075 170.188 144.888C169.889 144.701 169.693 144.496 169.6 144.272H169.544V145H168.48V142.83H169.544V143.082C169.544 143.474 169.665 143.782 169.908 144.006C170.151 144.23 170.543 144.342 171.084 144.342C172.092 144.342 172.596 143.987 172.596 143.278C172.596 142.727 172.232 142.363 171.504 142.186L170.748 142.004C170.001 141.827 169.446 141.556 169.082 141.192C168.718 140.828 168.536 140.329 168.536 139.694C168.536 139.013 168.765 138.485 169.222 138.112C169.679 137.739 170.286 137.552 171.042 137.552C171.509 137.552 171.882 137.631 172.162 137.79C172.442 137.949 172.624 138.14 172.708 138.364H172.764V137.72H173.828V139.89H172.764V139.484C172.764 138.747 172.265 138.378 171.266 138.378C170.837 138.378 170.505 138.462 170.272 138.63C170.048 138.789 169.936 139.031 169.936 139.358C169.936 139.937 170.309 140.319 171.056 140.506L171.77 140.674C172.526 140.842 173.091 141.099 173.464 141.444C173.837 141.78 174.024 142.279 174.024 142.942C174.024 143.614 173.781 144.155 173.296 144.566C172.82 144.967 172.171 145.168 171.35 145.168ZM181.563 145.168C181.115 145.168 180.709 145.084 180.345 144.916C179.981 144.739 179.673 144.487 179.421 144.16C179.169 143.833 178.973 143.437 178.833 142.97C178.693 142.494 178.623 141.957 178.623 141.36C178.623 140.763 178.693 140.231 178.833 139.764C178.973 139.288 179.169 138.887 179.421 138.56C179.673 138.233 179.981 137.986 180.345 137.818C180.709 137.641 181.115 137.552 181.563 137.552C182.114 137.552 182.552 137.678 182.879 137.93C183.215 138.182 183.458 138.476 183.607 138.812H183.677V135.648L182.725 135.466V134.85L185.245 134.36V143.88L186.197 144.062V144.678L183.677 145.168V143.908H183.607C183.458 144.244 183.215 144.538 182.879 144.79C182.543 145.042 182.104 145.168 181.563 145.168ZM182.053 144.16C182.258 144.16 182.459 144.132 182.655 144.076C182.851 144.011 183.024 143.917 183.173 143.796C183.332 143.675 183.453 143.53 183.537 143.362C183.63 143.194 183.677 143.003 183.677 142.788V139.932C183.677 139.717 183.63 139.526 183.537 139.358C183.453 139.19 183.332 139.045 183.173 138.924C183.024 138.803 182.851 138.714 182.655 138.658C182.459 138.593 182.258 138.56 182.053 138.56C181.521 138.56 181.096 138.742 180.779 139.106C180.462 139.47 180.303 139.974 180.303 140.618V142.102C180.303 142.746 180.462 143.25 180.779 143.614C181.096 143.978 181.521 144.16 182.053 144.16ZM189.391 145.168C188.663 145.168 188.112 144.991 187.739 144.636C187.375 144.272 187.193 143.777 187.193 143.152C187.193 142.443 187.445 141.906 187.949 141.542C188.453 141.178 189.274 140.996 190.413 140.996H191.421V140.044C191.421 139.475 191.295 139.041 191.043 138.742C190.791 138.443 190.394 138.294 189.853 138.294C189.395 138.294 189.05 138.359 188.817 138.49V138.546C188.919 138.593 189.013 138.677 189.097 138.798C189.19 138.91 189.237 139.069 189.237 139.274C189.237 139.535 189.157 139.745 188.999 139.904C188.849 140.063 188.63 140.142 188.341 140.142C188.098 140.142 187.893 140.063 187.725 139.904C187.566 139.736 187.487 139.512 187.487 139.232C187.487 139.017 187.547 138.812 187.669 138.616C187.799 138.411 187.986 138.229 188.229 138.07C188.471 137.911 188.765 137.785 189.111 137.692C189.465 137.599 189.871 137.552 190.329 137.552C191.206 137.552 191.869 137.757 192.317 138.168C192.765 138.579 192.989 139.153 192.989 139.89V144.258H193.941V144.888C193.81 144.963 193.642 145.028 193.437 145.084C193.231 145.14 193.012 145.168 192.779 145.168C192.349 145.168 192.032 145.061 191.827 144.846C191.631 144.622 191.533 144.337 191.533 143.992V143.922H191.463C191.397 144.081 191.313 144.235 191.211 144.384C191.108 144.524 190.973 144.655 190.805 144.776C190.646 144.897 190.45 144.991 190.217 145.056C189.983 145.131 189.708 145.168 189.391 145.168ZM190.007 144.188C190.417 144.188 190.753 144.09 191.015 143.894C191.285 143.698 191.421 143.376 191.421 142.928V141.682H190.581C189.918 141.682 189.456 141.789 189.195 142.004C188.933 142.219 188.803 142.527 188.803 142.928V143.194C188.803 143.53 188.91 143.782 189.125 143.95C189.339 144.109 189.633 144.188 190.007 144.188ZM198.101 147.044H199.053V138.84L198.101 138.658V138.042L200.621 137.552V138.812H200.691C200.84 138.476 201.083 138.182 201.419 137.93C201.755 137.678 202.194 137.552 202.735 137.552C203.183 137.552 203.589 137.641 203.953 137.818C204.317 137.986 204.625 138.233 204.877 138.56C205.129 138.887 205.325 139.288 205.465 139.764C205.605 140.231 205.675 140.763 205.675 141.36C205.675 141.957 205.605 142.494 205.465 142.97C205.325 143.437 205.129 143.833 204.877 144.16C204.625 144.487 204.317 144.739 203.953 144.916C203.589 145.084 203.183 145.168 202.735 145.168C202.184 145.168 201.741 145.042 201.405 144.79C201.078 144.538 200.84 144.244 200.691 143.908H200.621V147.044H201.853V147.8H198.101V147.044ZM202.245 144.16C202.777 144.16 203.202 143.978 203.519 143.614C203.836 143.25 203.995 142.746 203.995 142.102V140.618C203.995 139.974 203.836 139.47 203.519 139.106C203.202 138.742 202.777 138.56 202.245 138.56C202.03 138.56 201.825 138.593 201.629 138.658C201.442 138.714 201.27 138.803 201.111 138.924C200.962 139.045 200.84 139.19 200.747 139.358C200.663 139.526 200.621 139.717 200.621 139.932V142.788C200.621 143.003 200.663 143.194 200.747 143.362C200.84 143.53 200.962 143.675 201.111 143.796C201.27 143.917 201.442 144.011 201.629 144.076C201.825 144.132 202.03 144.16 202.245 144.16ZM206.95 144.244H207.902V138.84L206.95 138.658V138.042L209.428 137.552V138.854H209.498C209.563 138.686 209.643 138.527 209.736 138.378C209.839 138.219 209.96 138.079 210.1 137.958C210.249 137.837 210.417 137.739 210.604 137.664C210.8 137.589 211.019 137.552 211.262 137.552C211.691 137.552 212.032 137.659 212.284 137.874C212.545 138.089 212.676 138.397 212.676 138.798C212.676 139.115 212.592 139.367 212.424 139.554C212.265 139.731 212.046 139.82 211.766 139.82C211.477 139.82 211.248 139.745 211.08 139.596C210.921 139.437 210.842 139.241 210.842 139.008C210.842 138.849 210.875 138.719 210.94 138.616C211.005 138.504 211.085 138.439 211.178 138.42V138.378C211.15 138.369 211.117 138.364 211.08 138.364C211.043 138.355 210.987 138.35 210.912 138.35C210.735 138.35 210.557 138.397 210.38 138.49C210.212 138.583 210.058 138.705 209.918 138.854C209.787 138.994 209.68 139.157 209.596 139.344C209.512 139.521 209.47 139.699 209.47 139.876V144.244H210.702V145H206.95V144.244ZM216.832 144.342C217.42 144.342 217.849 144.16 218.12 143.796C218.4 143.432 218.54 142.947 218.54 142.34V140.38C218.54 139.773 218.4 139.288 218.12 138.924C217.849 138.56 217.42 138.378 216.832 138.378C216.244 138.378 215.81 138.56 215.53 138.924C215.259 139.288 215.124 139.773 215.124 140.38V142.34C215.124 142.947 215.259 143.432 215.53 143.796C215.81 144.16 216.244 144.342 216.832 144.342ZM216.832 145.168C216.319 145.168 215.852 145.079 215.432 144.902C215.012 144.725 214.653 144.473 214.354 144.146C214.055 143.819 213.822 143.423 213.654 142.956C213.495 142.48 213.416 141.948 213.416 141.36C213.416 140.772 213.495 140.245 213.654 139.778C213.822 139.302 214.055 138.901 214.354 138.574C214.653 138.247 215.012 137.995 215.432 137.818C215.852 137.641 216.319 137.552 216.832 137.552C217.345 137.552 217.812 137.641 218.232 137.818C218.652 137.995 219.011 138.247 219.31 138.574C219.609 138.901 219.837 139.302 219.996 139.778C220.164 140.245 220.248 140.772 220.248 141.36C220.248 141.948 220.164 142.48 219.996 142.956C219.837 143.423 219.609 143.819 219.31 144.146C219.011 144.473 218.652 144.725 218.232 144.902C217.812 145.079 217.345 145.168 216.832 145.168ZM221.316 147.044H222.268V138.84L221.316 138.658V138.042L223.836 137.552V138.812H223.906C224.055 138.476 224.298 138.182 224.634 137.93C224.97 137.678 225.409 137.552 225.95 137.552C226.398 137.552 226.804 137.641 227.168 137.818C227.532 137.986 227.84 138.233 228.092 138.56C228.344 138.887 228.54 139.288 228.68 139.764C228.82 140.231 228.89 140.763 228.89 141.36C228.89 141.957 228.82 142.494 228.68 142.97C228.54 143.437 228.344 143.833 228.092 144.16C227.84 144.487 227.532 144.739 227.168 144.916C226.804 145.084 226.398 145.168 225.95 145.168C225.399 145.168 224.956 145.042 224.62 144.79C224.293 144.538 224.055 144.244 223.906 143.908H223.836V147.044H225.068V147.8H221.316V147.044ZM225.46 144.16C225.992 144.16 226.417 143.978 226.734 143.614C227.051 143.25 227.21 142.746 227.21 142.102V140.618C227.21 139.974 227.051 139.47 226.734 139.106C226.417 138.742 225.992 138.56 225.46 138.56C225.245 138.56 225.04 138.593 224.844 138.658C224.657 138.714 224.485 138.803 224.326 138.924C224.177 139.045 224.055 139.19 223.962 139.358C223.878 139.526 223.836 139.717 223.836 139.932V142.788C223.836 143.003 223.878 143.194 223.962 143.362C224.055 143.53 224.177 143.675 224.326 143.796C224.485 143.917 224.657 144.011 224.844 144.076C225.04 144.132 225.245 144.16 225.46 144.16ZM230.165 144.244H231.117V138.84L230.165 138.658V138.042L232.643 137.552V138.854H232.713C232.778 138.686 232.857 138.527 232.951 138.378C233.053 138.219 233.175 138.079 233.315 137.958C233.464 137.837 233.632 137.739 233.819 137.664C234.015 137.589 234.234 137.552 234.477 137.552C234.906 137.552 235.247 137.659 235.499 137.874C235.76 138.089 235.891 138.397 235.891 138.798C235.891 139.115 235.807 139.367 235.639 139.554C235.48 139.731 235.261 139.82 234.981 139.82C234.691 139.82 234.463 139.745 234.295 139.596C234.136 139.437 234.057 139.241 234.057 139.008C234.057 138.849 234.089 138.719 234.155 138.616C234.22 138.504 234.299 138.439 234.393 138.42V138.378C234.365 138.369 234.332 138.364 234.295 138.364C234.257 138.355 234.201 138.35 234.127 138.35C233.949 138.35 233.772 138.397 233.595 138.49C233.427 138.583 233.273 138.705 233.133 138.854C233.002 138.994 232.895 139.157 232.811 139.344C232.727 139.521 232.685 139.699 232.685 139.876V144.244H233.917V145H230.165V144.244ZM238.395 136.362C238.096 136.362 237.863 136.278 237.695 136.11C237.527 135.933 237.443 135.709 237.443 135.438V135.354C237.443 135.083 237.527 134.864 237.695 134.696C237.863 134.519 238.096 134.43 238.395 134.43C238.694 134.43 238.927 134.519 239.095 134.696C239.263 134.864 239.347 135.083 239.347 135.354V135.438C239.347 135.709 239.263 135.933 239.095 136.11C238.927 136.278 238.694 136.362 238.395 136.362ZM236.659 144.244H237.611V138.84L236.659 138.658V138.042L239.179 137.552V144.244H240.131V145H236.659V144.244ZM244.558 145.168C244.017 145.168 243.536 145.079 243.116 144.902C242.696 144.715 242.342 144.454 242.052 144.118C241.763 143.782 241.539 143.381 241.38 142.914C241.231 142.447 241.156 141.929 241.156 141.36C241.156 140.781 241.236 140.259 241.394 139.792C241.562 139.325 241.791 138.929 242.08 138.602C242.379 138.266 242.729 138.009 243.13 137.832C243.541 137.645 243.989 137.552 244.474 137.552C244.969 137.552 245.412 137.636 245.804 137.804C246.196 137.963 246.528 138.191 246.798 138.49C247.078 138.789 247.293 139.148 247.442 139.568C247.592 139.988 247.666 140.455 247.666 140.968V141.346H242.85V141.794C242.85 142.522 243.032 143.087 243.396 143.488C243.76 143.88 244.25 144.076 244.866 144.076C245.408 144.076 245.842 143.959 246.168 143.726C246.504 143.483 246.752 143.185 246.91 142.83L247.512 143.194C247.428 143.437 247.302 143.675 247.134 143.908C246.976 144.141 246.775 144.351 246.532 144.538C246.29 144.725 246.005 144.879 245.678 145C245.352 145.112 244.978 145.168 244.558 145.168ZM242.85 140.604H246.042V140.45C246.042 139.778 245.912 139.26 245.65 138.896C245.398 138.523 245.006 138.336 244.474 138.336C243.952 138.336 243.55 138.518 243.27 138.882C242.99 139.237 242.85 139.75 242.85 140.422V140.604ZM251.932 145.168C251.484 145.168 251.078 145.084 250.714 144.916C250.35 144.739 250.042 144.487 249.79 144.16C249.538 143.833 249.342 143.437 249.202 142.97C249.062 142.494 248.992 141.957 248.992 141.36C248.992 140.763 249.062 140.231 249.202 139.764C249.342 139.288 249.538 138.887 249.79 138.56C250.042 138.233 250.35 137.986 250.714 137.818C251.078 137.641 251.484 137.552 251.932 137.552C252.483 137.552 252.921 137.678 253.248 137.93C253.584 138.182 253.827 138.476 253.976 138.812H254.046V135.648L253.094 135.466V134.85L255.614 134.36V143.88L256.566 144.062V144.678L254.046 145.168V143.908H253.976C253.827 144.244 253.584 144.538 253.248 144.79C252.912 145.042 252.473 145.168 251.932 145.168ZM252.422 144.16C252.627 144.16 252.828 144.132 253.024 144.076C253.22 144.011 253.393 143.917 253.542 143.796C253.701 143.675 253.822 143.53 253.906 143.362C253.999 143.194 254.046 143.003 254.046 142.788V139.932C254.046 139.717 253.999 139.526 253.906 139.358C253.822 139.19 253.701 139.045 253.542 138.924C253.393 138.803 253.22 138.714 253.024 138.658C252.828 138.593 252.627 138.56 252.422 138.56C251.89 138.56 251.465 138.742 251.148 139.106C250.831 139.47 250.672 139.974 250.672 140.618V142.102C250.672 142.746 250.831 143.25 251.148 143.614C251.465 143.978 251.89 144.16 252.422 144.16ZM259.76 145.168C259.032 145.168 258.481 144.991 258.108 144.636C257.744 144.272 257.562 143.777 257.562 143.152C257.562 142.443 257.814 141.906 258.318 141.542C258.822 141.178 259.643 140.996 260.782 140.996H261.79V140.044C261.79 139.475 261.664 139.041 261.412 138.742C261.16 138.443 260.763 138.294 260.222 138.294C259.765 138.294 259.419 138.359 259.186 138.49V138.546C259.289 138.593 259.382 138.677 259.466 138.798C259.559 138.91 259.606 139.069 259.606 139.274C259.606 139.535 259.527 139.745 259.368 139.904C259.219 140.063 258.999 140.142 258.71 140.142C258.467 140.142 258.262 140.063 258.094 139.904C257.935 139.736 257.856 139.512 257.856 139.232C257.856 139.017 257.917 138.812 258.038 138.616C258.169 138.411 258.355 138.229 258.598 138.07C258.841 137.911 259.135 137.785 259.48 137.692C259.835 137.599 260.241 137.552 260.698 137.552C261.575 137.552 262.238 137.757 262.686 138.168C263.134 138.579 263.358 139.153 263.358 139.89V144.258H264.31V144.888C264.179 144.963 264.011 145.028 263.806 145.084C263.601 145.14 263.381 145.168 263.148 145.168C262.719 145.168 262.401 145.061 262.196 144.846C262 144.622 261.902 144.337 261.902 143.992V143.922H261.832C261.767 144.081 261.683 144.235 261.58 144.384C261.477 144.524 261.342 144.655 261.174 144.776C261.015 144.897 260.819 144.991 260.586 145.056C260.353 145.131 260.077 145.168 259.76 145.168ZM260.376 144.188C260.787 144.188 261.123 144.09 261.384 143.894C261.655 143.698 261.79 143.376 261.79 142.928V141.682H260.95C260.287 141.682 259.825 141.789 259.564 142.004C259.303 142.219 259.172 142.527 259.172 142.928V143.194C259.172 143.53 259.279 143.782 259.494 143.95C259.709 144.109 260.003 144.188 260.376 144.188ZM268.338 145.168C267.89 145.168 267.484 145.084 267.12 144.916C266.756 144.739 266.448 144.487 266.196 144.16C265.944 143.833 265.748 143.437 265.608 142.97C265.468 142.494 265.398 141.957 265.398 141.36C265.398 140.763 265.468 140.231 265.608 139.764C265.748 139.288 265.944 138.887 266.196 138.56C266.448 138.233 266.756 137.986 267.12 137.818C267.484 137.641 267.89 137.552 268.338 137.552C268.889 137.552 269.328 137.678 269.654 137.93C269.99 138.182 270.233 138.476 270.382 138.812H270.452V135.648L269.5 135.466V134.85L272.02 134.36V143.88L272.972 144.062V144.678L270.452 145.168V143.908H270.382C270.233 144.244 269.99 144.538 269.654 144.79C269.318 145.042 268.88 145.168 268.338 145.168ZM268.828 144.16C269.034 144.16 269.234 144.132 269.43 144.076C269.626 144.011 269.799 143.917 269.948 143.796C270.107 143.675 270.228 143.53 270.312 143.362C270.406 143.194 270.452 143.003 270.452 142.788V139.932C270.452 139.717 270.406 139.526 270.312 139.358C270.228 139.19 270.107 139.045 269.948 138.924C269.799 138.803 269.626 138.714 269.43 138.658C269.234 138.593 269.034 138.56 268.828 138.56C268.296 138.56 267.872 138.742 267.554 139.106C267.237 139.47 267.078 139.974 267.078 140.618V142.102C267.078 142.746 267.237 143.25 267.554 143.614C267.872 143.978 268.296 144.16 268.828 144.16ZM277.398 145.168C276.857 145.168 276.376 145.079 275.956 144.902C275.536 144.715 275.182 144.454 274.892 144.118C274.603 143.782 274.379 143.381 274.22 142.914C274.071 142.447 273.996 141.929 273.996 141.36C273.996 140.781 274.076 140.259 274.234 139.792C274.402 139.325 274.631 138.929 274.92 138.602C275.219 138.266 275.569 138.009 275.97 137.832C276.381 137.645 276.829 137.552 277.314 137.552C277.809 137.552 278.252 137.636 278.644 137.804C279.036 137.963 279.368 138.191 279.638 138.49C279.918 138.789 280.133 139.148 280.282 139.568C280.432 139.988 280.506 140.455 280.506 140.968V141.346H275.69V141.794C275.69 142.522 275.872 143.087 276.236 143.488C276.6 143.88 277.09 144.076 277.706 144.076C278.248 144.076 278.682 143.959 279.008 143.726C279.344 143.483 279.592 143.185 279.75 142.83L280.352 143.194C280.268 143.437 280.142 143.675 279.974 143.908C279.816 144.141 279.615 144.351 279.372 144.538C279.13 144.725 278.845 144.879 278.518 145C278.192 145.112 277.818 145.168 277.398 145.168ZM275.69 140.604H278.882V140.45C278.882 139.778 278.752 139.26 278.49 138.896C278.238 138.523 277.846 138.336 277.314 138.336C276.792 138.336 276.39 138.518 276.11 138.882C275.83 139.237 275.69 139.75 275.69 140.422V140.604Z" fill="#E3E5E8"/>
<path d="M90 38L83 45L79 41" stroke="#E3E5E8" stroke-width="2" stroke-linecap="round" stroke-linejoin="round"/>
<path d="M104.686 46.244H105.708V37.984H104.686V37.228H109.614C110.557 37.228 111.271 37.452 111.756 37.9C112.251 38.348 112.498 39.006 112.498 39.874C112.498 40.7513 112.241 41.428 111.728 41.904C111.215 42.38 110.487 42.618 109.544 42.618H107.374V46.244H108.704V47H104.686V46.244ZM107.374 41.792H109.236C109.731 41.792 110.109 41.652 110.37 41.372C110.641 41.092 110.776 40.7187 110.776 40.252V39.594C110.776 39.1273 110.641 38.754 110.37 38.474C110.109 38.194 109.731 38.054 109.236 38.054H107.374V41.792ZM113.585 46.244H114.537V40.84L113.585 40.658V40.042L116.063 39.552V40.854H116.133C116.198 40.686 116.277 40.5273 116.371 40.378C116.473 40.2193 116.595 40.0793 116.735 39.958C116.884 39.8367 117.052 39.7387 117.239 39.664C117.435 39.5893 117.654 39.552 117.897 39.552C118.326 39.552 118.667 39.6593 118.919 39.874C119.18 40.0887 119.311 40.3967 119.311 40.798C119.311 41.1153 119.227 41.3673 119.059 41.554C118.9 41.7313 118.681 41.82 118.401 41.82C118.111 41.82 117.883 41.7453 117.715 41.596C117.556 41.4373 117.477 41.2413 117.477 41.008C117.477 40.8493 117.509 40.7187 117.575 40.616C117.64 40.504 117.719 40.4387 117.813 40.42V40.378C117.785 40.3687 117.752 40.364 117.715 40.364C117.677 40.3547 117.621 40.35 117.547 40.35C117.369 40.35 117.192 40.3967 117.015 40.49C116.847 40.5833 116.693 40.7047 116.553 40.854C116.422 40.994 116.315 41.1573 116.231 41.344C116.147 41.5213 116.105 41.6987 116.105 41.876V46.244H117.337V47H113.585V46.244ZM123.453 47.168C122.912 47.168 122.431 47.0793 122.011 46.902C121.591 46.7153 121.236 46.454 120.947 46.118C120.658 45.782 120.434 45.3807 120.275 44.914C120.126 44.4473 120.051 43.9293 120.051 43.36C120.051 42.7813 120.13 42.2587 120.289 41.792C120.457 41.3253 120.686 40.9287 120.975 40.602C121.274 40.266 121.624 40.0093 122.025 39.832C122.436 39.6453 122.884 39.552 123.369 39.552C123.864 39.552 124.307 39.636 124.699 39.804C125.091 39.9627 125.422 40.1913 125.693 40.49C125.973 40.7887 126.188 41.148 126.337 41.568C126.486 41.988 126.561 42.4547 126.561 42.968V43.346H121.745V43.794C121.745 44.522 121.927 45.0867 122.291 45.488C122.655 45.88 123.145 46.076 123.761 46.076C124.302 46.076 124.736 45.9593 125.063 45.726C125.399 45.4833 125.646 45.1847 125.805 44.83L126.407 45.194C126.323 45.4367 126.197 45.6747 126.029 45.908C125.87 46.1413 125.67 46.3513 125.427 46.538C125.184 46.7247 124.9 46.8787 124.573 47C124.246 47.112 123.873 47.168 123.453 47.168ZM121.745 42.604H124.937V42.45C124.937 41.778 124.806 41.26 124.545 40.896C124.293 40.5227 123.901 40.336 123.369 40.336C122.846 40.336 122.445 40.518 122.165 40.882C121.885 41.2367 121.745 41.75 121.745 42.422V42.604ZM127.693 46.244H128.645V40.532H127.693V39.72H128.645V38.838C128.645 38.4647 128.706 38.124 128.827 37.816C128.948 37.508 129.121 37.2467 129.345 37.032C129.578 36.8173 129.854 36.654 130.171 36.542C130.498 36.4207 130.862 36.36 131.263 36.36C131.823 36.36 132.252 36.4767 132.551 36.71C132.859 36.9433 133.013 37.242 133.013 37.606C133.013 37.8767 132.934 38.0913 132.775 38.25C132.626 38.4087 132.43 38.488 132.187 38.488C131.935 38.488 131.739 38.418 131.599 38.278C131.459 38.1287 131.389 37.9467 131.389 37.732C131.389 37.564 131.426 37.4287 131.501 37.326C131.576 37.214 131.664 37.1347 131.767 37.088V37.046C131.655 37.018 131.51 37.004 131.333 37.004C130.586 37.004 130.213 37.5313 130.213 38.586V39.72H131.725V40.532H130.213V46.244H131.445V47H127.693V46.244ZM135.949 47.168C135.408 47.168 134.927 47.0793 134.507 46.902C134.087 46.7153 133.732 46.454 133.443 46.118C133.154 45.782 132.93 45.3807 132.771 44.914C132.622 44.4473 132.547 43.9293 132.547 43.36C132.547 42.7813 132.626 42.2587 132.785 41.792C132.953 41.3253 133.182 40.9287 133.471 40.602C133.77 40.266 134.12 40.0093 134.521 39.832C134.932 39.6453 135.38 39.552 135.865 39.552C136.36 39.552 136.803 39.636 137.195 39.804C137.587 39.9627 137.918 40.1913 138.189 40.49C138.469 40.7887 138.684 41.148 138.833 41.568C138.982 41.988 139.057 42.4547 139.057 42.968V43.346H134.241V43.794C134.241 44.522 134.423 45.0867 134.787 45.488C135.151 45.88 135.641 46.076 136.257 46.076C136.798 46.076 137.232 45.9593 137.559 45.726C137.895 45.4833 138.142 45.1847 138.301 44.83L138.903 45.194C138.819 45.4367 138.693 45.6747 138.525 45.908C138.366 46.1413 138.166 46.3513 137.923 46.538C137.68 46.7247 137.396 46.8787 137.069 47C136.742 47.112 136.369 47.168 135.949 47.168ZM134.241 42.604H137.433V42.45C137.433 41.778 137.302 41.26 137.041 40.896C136.789 40.5227 136.397 40.336 135.865 40.336C135.342 40.336 134.941 40.518 134.661 40.882C134.381 41.2367 134.241 41.75 134.241 42.422V42.604ZM140.231 46.244H141.183V40.84L140.231 40.658V40.042L142.709 39.552V40.854H142.779C142.845 40.686 142.924 40.5273 143.017 40.378C143.12 40.2193 143.241 40.0793 143.381 39.958C143.531 39.8367 143.699 39.7387 143.885 39.664C144.081 39.5893 144.301 39.552 144.543 39.552C144.973 39.552 145.313 39.6593 145.565 39.874C145.827 40.0887 145.957 40.3967 145.957 40.798C145.957 41.1153 145.873 41.3673 145.705 41.554C145.547 41.7313 145.327 41.82 145.047 41.82C144.758 41.82 144.529 41.7453 144.361 41.596C144.203 41.4373 144.123 41.2413 144.123 41.008C144.123 40.8493 144.156 40.7187 144.221 40.616C144.287 40.504 144.366 40.4387 144.459 40.42V40.378C144.431 40.3687 144.399 40.364 144.361 40.364C144.324 40.3547 144.268 40.35 144.193 40.35C144.016 40.35 143.839 40.3967 143.661 40.49C143.493 40.5833 143.339 40.7047 143.199 40.854C143.069 40.994 142.961 41.1573 142.877 41.344C142.793 41.5213 142.751 41.6987 142.751 41.876V46.244H143.983V47H140.231V46.244ZM150.099 47.168C149.558 47.168 149.077 47.0793 148.657 46.902C148.237 46.7153 147.883 46.454 147.593 46.118C147.304 45.782 147.08 45.3807 146.921 44.914C146.772 44.4473 146.697 43.9293 146.697 43.36C146.697 42.7813 146.777 42.2587 146.935 41.792C147.103 41.3253 147.332 40.9287 147.621 40.602C147.92 40.266 148.27 40.0093 148.671 39.832C149.082 39.6453 149.53 39.552 150.015 39.552C150.51 39.552 150.953 39.636 151.345 39.804C151.737 39.9627 152.069 40.1913 152.339 40.49C152.619 40.7887 152.834 41.148 152.983 41.568C153.133 41.988 153.207 42.4547 153.207 42.968V43.346H148.391V43.794C148.391 44.522 148.573 45.0867 148.937 45.488C149.301 45.88 149.791 46.076 150.407 46.076C150.949 46.076 151.383 45.9593 151.709 45.726C152.045 45.4833 152.293 45.1847 152.451 44.83L153.053 45.194C152.969 45.4367 152.843 45.6747 152.675 45.908C152.517 46.1413 152.316 46.3513 152.073 46.538C151.831 46.7247 151.546 46.8787 151.219 47C150.893 47.112 150.519 47.168 150.099 47.168ZM148.391 42.604H151.583V42.45C151.583 41.778 151.453 41.26 151.191 40.896C150.939 40.5227 150.547 40.336 150.015 40.336C149.493 40.336 149.091 40.518 148.811 40.882C148.531 41.2367 148.391 41.75 148.391 42.422V42.604ZM147.719 38.39L149.511 36.136H150.519L152.311 38.39L151.863 38.726L150.015 37.34L148.167 38.726L147.719 38.39ZM154.382 46.244H155.334V40.84L154.382 40.658V40.042L156.86 39.552V40.854H156.93C156.986 40.6953 157.07 40.5367 157.182 40.378C157.303 40.2193 157.448 40.0793 157.616 39.958C157.793 39.8367 157.994 39.7387 158.218 39.664C158.451 39.5893 158.712 39.552 159.002 39.552C159.888 39.552 160.518 39.7807 160.892 40.238C161.265 40.686 161.452 41.3627 161.452 42.268V46.244H162.404V47H158.96V46.244H159.884V42.352C159.884 41.7453 159.767 41.302 159.534 41.022C159.3 40.742 158.932 40.602 158.428 40.602C158.241 40.602 158.054 40.63 157.868 40.686C157.69 40.7327 157.527 40.812 157.378 40.924C157.238 41.0267 157.121 41.1573 157.028 41.316C156.944 41.4747 156.902 41.666 156.902 41.89V46.244H157.826V47H154.382V46.244ZM166.848 47.168C166.297 47.168 165.807 47.0747 165.378 46.888C164.958 46.7013 164.603 46.44 164.314 46.104C164.024 45.768 163.805 45.3667 163.656 44.9C163.506 44.4333 163.432 43.92 163.432 43.36C163.432 42.7627 163.52 42.2307 163.698 41.764C163.875 41.288 164.122 40.8867 164.44 40.56C164.757 40.2333 165.13 39.986 165.56 39.818C165.998 39.6407 166.474 39.552 166.988 39.552C167.79 39.552 168.416 39.72 168.864 40.056C169.321 40.392 169.55 40.8213 169.55 41.344C169.55 41.6707 169.461 41.9273 169.284 42.114C169.106 42.2913 168.868 42.38 168.57 42.38C168.262 42.38 168.028 42.296 167.87 42.128C167.711 41.9507 167.632 41.7313 167.632 41.47C167.632 41.2553 167.688 41.0687 167.8 40.91C167.912 40.7513 168.056 40.6347 168.234 40.56V40.49C168.122 40.4433 167.982 40.4013 167.814 40.364C167.646 40.3173 167.436 40.294 167.184 40.294C166.876 40.294 166.596 40.35 166.344 40.462C166.092 40.574 165.877 40.7327 165.7 40.938C165.522 41.134 165.382 41.372 165.28 41.652C165.186 41.932 165.14 42.2447 165.14 42.59V43.808C165.14 44.508 165.312 45.0633 165.658 45.474C166.003 45.8753 166.474 46.076 167.072 46.076C167.632 46.076 168.066 45.9547 168.374 45.712C168.691 45.4693 168.934 45.1707 169.102 44.816L169.704 45.18C169.62 45.4227 169.498 45.6607 169.34 45.894C169.181 46.1273 168.985 46.342 168.752 46.538C168.518 46.7247 168.243 46.8787 167.926 47C167.608 47.112 167.249 47.168 166.848 47.168ZM172.538 38.362C172.239 38.362 172.006 38.278 171.838 38.11C171.67 37.9327 171.586 37.7087 171.586 37.438V37.354C171.586 37.0833 171.67 36.864 171.838 36.696C172.006 36.5187 172.239 36.43 172.538 36.43C172.836 36.43 173.07 36.5187 173.238 36.696C173.406 36.864 173.49 37.0833 173.49 37.354V37.438C173.49 37.7087 173.406 37.9327 173.238 38.11C173.07 38.278 172.836 38.362 172.538 38.362ZM170.802 46.244H171.754V40.84L170.802 40.658V40.042L173.322 39.552V46.244H174.274V47H170.802V46.244ZM177.469 47.168C176.741 47.168 176.19 46.9907 175.817 46.636C175.453 46.272 175.271 45.7773 175.271 45.152C175.271 44.4427 175.523 43.906 176.027 43.542C176.531 43.178 177.352 42.996 178.491 42.996H179.499V42.044C179.499 41.4747 179.373 41.0407 179.121 40.742C178.869 40.4433 178.472 40.294 177.931 40.294C177.474 40.294 177.128 40.3593 176.895 40.49V40.546C176.998 40.5927 177.091 40.6767 177.175 40.798C177.268 40.91 177.315 41.0687 177.315 41.274C177.315 41.5353 177.236 41.7453 177.077 41.904C176.928 42.0627 176.708 42.142 176.419 42.142C176.176 42.142 175.971 42.0627 175.803 41.904C175.644 41.736 175.565 41.512 175.565 41.232C175.565 41.0173 175.626 40.812 175.747 40.616C175.878 40.4107 176.064 40.2287 176.307 40.07C176.55 39.9113 176.844 39.7853 177.189 39.692C177.544 39.5987 177.95 39.552 178.407 39.552C179.284 39.552 179.947 39.7573 180.395 40.168C180.843 40.5787 181.067 41.1527 181.067 41.89V46.258H182.019V46.888C181.888 46.9627 181.72 47.028 181.515 47.084C181.31 47.14 181.09 47.168 180.857 47.168C180.428 47.168 180.11 47.0607 179.905 46.846C179.709 46.622 179.611 46.3373 179.611 45.992V45.922H179.541C179.476 46.0807 179.392 46.2347 179.289 46.384C179.186 46.524 179.051 46.6547 178.883 46.776C178.724 46.8973 178.528 46.9907 178.295 47.056C178.062 47.1307 177.786 47.168 177.469 47.168ZM178.085 46.188C178.496 46.188 178.832 46.09 179.093 45.894C179.364 45.698 179.499 45.376 179.499 44.928V43.682H178.659C177.996 43.682 177.534 43.7893 177.273 44.004C177.012 44.2187 176.881 44.5267 176.881 44.928V45.194C176.881 45.53 176.988 45.782 177.203 45.95C177.418 46.1087 177.712 46.188 178.085 46.188ZM186.047 47.168C185.571 47.168 185.184 47.0747 184.885 46.888C184.587 46.7013 184.391 46.496 184.297 46.272H184.241V47H183.177V44.83H184.241V45.082C184.241 45.474 184.363 45.782 184.605 46.006C184.848 46.23 185.24 46.342 185.781 46.342C186.789 46.342 187.293 45.9873 187.293 45.278C187.293 44.7273 186.929 44.3633 186.201 44.186L185.445 44.004C184.699 43.8267 184.143 43.556 183.779 43.192C183.415 42.828 183.233 42.3287 183.233 41.694C183.233 41.0127 183.462 40.4853 183.919 40.112C184.377 39.7387 184.983 39.552 185.739 39.552C186.206 39.552 186.579 39.6313 186.859 39.79C187.139 39.9487 187.321 40.14 187.405 40.364H187.461V39.72H188.525V41.89H187.461V41.484C187.461 40.7467 186.962 40.378 185.963 40.378C185.534 40.378 185.203 40.462 184.969 40.63C184.745 40.7887 184.633 41.0313 184.633 41.358C184.633 41.9367 185.007 42.3193 185.753 42.506L186.467 42.674C187.223 42.842 187.788 43.0987 188.161 43.444C188.535 43.78 188.721 44.2793 188.721 44.942C188.721 45.614 188.479 46.1553 187.993 46.566C187.517 46.9673 186.869 47.168 186.047 47.168ZM196.26 47.168C195.812 47.168 195.406 47.084 195.042 46.916C194.678 46.7387 194.37 46.4867 194.118 46.16C193.866 45.8333 193.67 45.4367 193.53 44.97C193.39 44.494 193.32 43.9573 193.32 43.36C193.32 42.7627 193.39 42.2307 193.53 41.764C193.67 41.288 193.866 40.8867 194.118 40.56C194.37 40.2333 194.678 39.986 195.042 39.818C195.406 39.6407 195.812 39.552 196.26 39.552C196.811 39.552 197.249 39.678 197.576 39.93C197.912 40.182 198.155 40.476 198.304 40.812H198.374V37.648L197.422 37.466V36.85L199.942 36.36V45.88L200.894 46.062V46.678L198.374 47.168V45.908H198.304C198.155 46.244 197.912 46.538 197.576 46.79C197.24 47.042 196.801 47.168 196.26 47.168ZM196.75 46.16C196.955 46.16 197.156 46.132 197.352 46.076C197.548 46.0107 197.721 45.9173 197.87 45.796C198.029 45.6747 198.15 45.53 198.234 45.362C198.327 45.194 198.374 45.0027 198.374 44.788V41.932C198.374 41.7173 198.327 41.526 198.234 41.358C198.15 41.19 198.029 41.0453 197.87 40.924C197.721 40.8027 197.548 40.714 197.352 40.658C197.156 40.5927 196.955 40.56 196.75 40.56C196.218 40.56 195.793 40.742 195.476 41.106C195.159 41.47 195 41.974 195 42.618V44.102C195 44.746 195.159 45.25 195.476 45.614C195.793 45.978 196.218 46.16 196.75 46.16ZM205.334 46.342C205.922 46.342 206.351 46.16 206.622 45.796C206.902 45.432 207.042 44.9467 207.042 44.34V42.38C207.042 41.7733 206.902 41.288 206.622 40.924C206.351 40.56 205.922 40.378 205.334 40.378C204.746 40.378 204.312 40.56 204.032 40.924C203.761 41.288 203.626 41.7733 203.626 42.38V44.34C203.626 44.9467 203.761 45.432 204.032 45.796C204.312 46.16 204.746 46.342 205.334 46.342ZM205.334 47.168C204.821 47.168 204.354 47.0793 203.934 46.902C203.514 46.7247 203.155 46.4727 202.856 46.146C202.557 45.8193 202.324 45.4227 202.156 44.956C201.997 44.48 201.918 43.948 201.918 43.36C201.918 42.772 201.997 42.2447 202.156 41.778C202.324 41.302 202.557 40.9007 202.856 40.574C203.155 40.2473 203.514 39.9953 203.934 39.818C204.354 39.6407 204.821 39.552 205.334 39.552C205.847 39.552 206.314 39.6407 206.734 39.818C207.154 39.9953 207.513 40.2473 207.812 40.574C208.111 40.9007 208.339 41.302 208.498 41.778C208.666 42.2447 208.75 42.772 208.75 43.36C208.75 43.948 208.666 44.48 208.498 44.956C208.339 45.4227 208.111 45.8193 207.812 46.146C207.513 46.4727 207.154 46.7247 206.734 46.902C206.314 47.0793 205.847 47.168 205.334 47.168ZM216.6 47.168C216.049 47.168 215.559 47.0747 215.13 46.888C214.71 46.7013 214.355 46.44 214.066 46.104C213.776 45.768 213.557 45.3667 213.408 44.9C213.258 44.4333 213.184 43.92 213.184 43.36C213.184 42.7627 213.272 42.2307 213.45 41.764C213.627 41.288 213.874 40.8867 214.192 40.56C214.509 40.2333 214.882 39.986 215.312 39.818C215.75 39.6407 216.226 39.552 216.74 39.552C217.542 39.552 218.168 39.72 218.616 40.056C219.073 40.392 219.302 40.8213 219.302 41.344C219.302 41.6707 219.213 41.9273 219.036 42.114C218.858 42.2913 218.62 42.38 218.322 42.38C218.014 42.38 217.78 42.296 217.622 42.128C217.463 41.9507 217.384 41.7313 217.384 41.47C217.384 41.2553 217.44 41.0687 217.552 40.91C217.664 40.7513 217.808 40.6347 217.986 40.56V40.49C217.874 40.4433 217.734 40.4013 217.566 40.364C217.398 40.3173 217.188 40.294 216.936 40.294C216.628 40.294 216.348 40.35 216.096 40.462C215.844 40.574 215.629 40.7327 215.452 40.938C215.274 41.134 215.134 41.372 215.032 41.652C214.938 41.932 214.892 42.2447 214.892 42.59V43.808C214.892 44.508 215.064 45.0633 215.41 45.474C215.755 45.8753 216.226 46.076 216.824 46.076C217.384 46.076 217.818 45.9547 218.126 45.712C218.443 45.4693 218.686 45.1707 218.854 44.816L219.456 45.18C219.372 45.4227 219.25 45.6607 219.092 45.894C218.933 46.1273 218.737 46.342 218.504 46.538C218.27 46.7247 217.995 46.8787 217.678 47C217.36 47.112 217.001 47.168 216.6 47.168ZM220.372 46.244H221.324V37.648L220.372 37.466V36.85L222.892 36.36V46.244H223.844V47H220.372V46.244ZM226.623 38.362C226.325 38.362 226.091 38.278 225.923 38.11C225.755 37.9327 225.671 37.7087 225.671 37.438V37.354C225.671 37.0833 225.755 36.864 225.923 36.696C226.091 36.5187 226.325 36.43 226.623 36.43C226.922 36.43 227.155 36.5187 227.323 36.696C227.491 36.864 227.575 37.0833 227.575 37.354V37.438C227.575 37.7087 227.491 37.9327 227.323 38.11C227.155 38.278 226.922 38.362 226.623 38.362ZM224.887 46.244H225.839V40.84L224.887 40.658V40.042L227.407 39.552V46.244H228.359V47H224.887V46.244ZM232.787 47.168C232.246 47.168 231.765 47.0793 231.345 46.902C230.925 46.7153 230.57 46.454 230.281 46.118C229.992 45.782 229.768 45.3807 229.609 44.914C229.46 44.4473 229.385 43.9293 229.385 43.36C229.385 42.7813 229.464 42.2587 229.623 41.792C229.791 41.3253 230.02 40.9287 230.309 40.602C230.608 40.266 230.958 40.0093 231.359 39.832C231.77 39.6453 232.218 39.552 232.703 39.552C233.198 39.552 233.641 39.636 234.033 39.804C234.425 39.9627 234.756 40.1913 235.027 40.49C235.307 40.7887 235.522 41.148 235.671 41.568C235.82 41.988 235.895 42.4547 235.895 42.968V43.346H231.079V43.794C231.079 44.522 231.261 45.0867 231.625 45.488C231.989 45.88 232.479 46.076 233.095 46.076C233.636 46.076 234.07 45.9593 234.397 45.726C234.733 45.4833 234.98 45.1847 235.139 44.83L235.741 45.194C235.657 45.4367 235.531 45.6747 235.363 45.908C235.204 46.1413 235.004 46.3513 234.761 46.538C234.518 46.7247 234.234 46.8787 233.907 47C233.58 47.112 233.207 47.168 232.787 47.168ZM231.079 42.604H234.271V42.45C234.271 41.778 234.14 41.26 233.879 40.896C233.627 40.5227 233.235 40.336 232.703 40.336C232.18 40.336 231.779 40.518 231.499 40.882C231.219 41.2367 231.079 41.75 231.079 42.422V42.604ZM237.069 46.244H238.021V40.84L237.069 40.658V40.042L239.547 39.552V40.854H239.617C239.673 40.6953 239.757 40.5367 239.869 40.378C239.99 40.2193 240.135 40.0793 240.303 39.958C240.48 39.8367 240.681 39.7387 240.905 39.664C241.138 39.5893 241.4 39.552 241.689 39.552C242.576 39.552 243.206 39.7807 243.579 40.238C243.952 40.686 244.139 41.3627 244.139 42.268V46.244H245.091V47H241.647V46.244H242.571V42.352C242.571 41.7453 242.454 41.302 242.221 41.022C241.988 40.742 241.619 40.602 241.115 40.602C240.928 40.602 240.742 40.63 240.555 40.686C240.378 40.7327 240.214 40.812 240.065 40.924C239.925 41.0267 239.808 41.1573 239.715 41.316C239.631 41.4747 239.589 41.666 239.589 41.89V46.244H240.513V47H237.069V46.244ZM248.387 47.112C247.855 47.112 247.482 47 247.267 46.776C247.053 46.552 246.945 46.1973 246.945 45.712V40.532H245.993V39.72H246.231C246.577 39.72 246.815 39.6593 246.945 39.538C247.076 39.4167 247.183 39.2393 247.267 39.006L247.701 37.774H248.513V39.72H250.263V40.532H248.513V46.202H250.263V46.818C250.105 46.8927 249.848 46.958 249.493 47.014C249.148 47.0793 248.779 47.112 248.387 47.112ZM254.58 47.168C254.039 47.168 253.558 47.0793 253.138 46.902C252.718 46.7153 252.363 46.454 252.074 46.118C251.785 45.782 251.561 45.3807 251.402 44.914C251.253 44.4473 251.178 43.9293 251.178 43.36C251.178 42.7813 251.257 42.2587 251.416 41.792C251.584 41.3253 251.813 40.9287 252.102 40.602C252.401 40.266 252.751 40.0093 253.152 39.832C253.563 39.6453 254.011 39.552 254.496 39.552C254.991 39.552 255.434 39.636 255.826 39.804C256.218 39.9627 256.549 40.1913 256.82 40.49C257.1 40.7887 257.315 41.148 257.464 41.568C257.613 41.988 257.688 42.4547 257.688 42.968V43.346H252.872V43.794C252.872 44.522 253.054 45.0867 253.418 45.488C253.782 45.88 254.272 46.076 254.888 46.076C255.429 46.076 255.863 45.9593 256.19 45.726C256.526 45.4833 256.773 45.1847 256.932 44.83L257.534 45.194C257.45 45.4367 257.324 45.6747 257.156 45.908C256.997 46.1413 256.797 46.3513 256.554 46.538C256.311 46.7247 256.027 46.8787 255.7 47C255.373 47.112 255 47.168 254.58 47.168ZM252.872 42.604H256.064V42.45C256.064 41.778 255.933 41.26 255.672 40.896C255.42 40.5227 255.028 40.336 254.496 40.336C253.973 40.336 253.572 40.518 253.292 40.882C253.012 41.2367 252.872 41.75 252.872 42.422V42.604Z" fill="#E3E5E8"/>
<rect x="76" y="238" width="194" height="36" rx="4" fill="#83CF77" fill-opacity="0.15"/>
<path d="M91.8334 252.667H99.3334" stroke="#6EBB5A" stroke-width="1.3" stroke-linecap="round" stroke-linejoin="round"/>
<path d="M91.8334 256H96" stroke="#6EBB5A" stroke-width="1.3" stroke-linecap="round" stroke-linejoin="round"/>
<path d="M91.8334 259.333H93.5" stroke="#6EBB5A" stroke-width="1.3" stroke-linecap="round" stroke-linejoin="round"/>
<path fill-rule="evenodd" clip-rule="evenodd" d="M102.667 263.5H97.6667C97.2065 263.5 96.8334 263.127 96.8334 262.667V259.718C96.8334 259.338 97.006 258.979 97.3025 258.742L99.3459 257.107C99.8024 256.742 100.451 256.742 100.908 257.107L103.031 258.806C103.327 259.043 103.5 259.402 103.5 259.782V262.667C103.5 263.127 103.127 263.5 102.667 263.5Z" stroke="#6EBB5A" stroke-width="1.3" stroke-linecap="round" stroke-linejoin="round"/>
<path d="M102.667 254.333V251C102.667 249.619 101.547 248.5 100.167 248.5H91C89.6193 248.5 88.5 249.619 88.5 251V261C88.5 262.381 89.6193 263.5 91 263.5H93.5" stroke="#6EBB5A" stroke-width="1.3" stroke-linecap="round" stroke-linejoin="round"/>
<path d="M116.994 251.984H116.266V251.228H119.906V251.984H118.702L120.074 256.254L121.068 259.586H121.138L122.132 256.254L123.504 251.984H122.3V251.228H125.212V251.984H124.484L121.502 261H119.976L116.994 251.984ZM128.617 261.168C128.076 261.168 127.595 261.079 127.175 260.902C126.755 260.715 126.4 260.454 126.111 260.118C125.822 259.782 125.598 259.381 125.439 258.914C125.29 258.447 125.215 257.929 125.215 257.36C125.215 256.781 125.294 256.259 125.453 255.792C125.621 255.325 125.85 254.929 126.139 254.602C126.438 254.266 126.788 254.009 127.189 253.832C127.6 253.645 128.048 253.552 128.533 253.552C129.028 253.552 129.471 253.636 129.863 253.804C130.255 253.963 130.586 254.191 130.857 254.49C131.137 254.789 131.352 255.148 131.501 255.568C131.65 255.988 131.725 256.455 131.725 256.968V257.346H126.909V257.794C126.909 258.522 127.091 259.087 127.455 259.488C127.819 259.88 128.309 260.076 128.925 260.076C129.466 260.076 129.9 259.959 130.227 259.726C130.563 259.483 130.81 259.185 130.969 258.83L131.571 259.194C131.487 259.437 131.361 259.675 131.193 259.908C131.034 260.141 130.834 260.351 130.591 260.538C130.348 260.725 130.064 260.879 129.737 261C129.41 261.112 129.037 261.168 128.617 261.168ZM126.909 256.604H130.101V256.45C130.101 255.778 129.97 255.26 129.709 254.896C129.457 254.523 129.065 254.336 128.533 254.336C128.01 254.336 127.609 254.518 127.329 254.882C127.049 255.237 126.909 255.75 126.909 256.422V256.604ZM132.899 260.244H133.851V254.84L132.899 254.658V254.042L135.377 253.552V254.854H135.447C135.513 254.686 135.592 254.527 135.685 254.378C135.788 254.219 135.909 254.079 136.049 253.958C136.199 253.837 136.367 253.739 136.553 253.664C136.749 253.589 136.969 253.552 137.211 253.552C137.641 253.552 137.981 253.659 138.233 253.874C138.495 254.089 138.625 254.397 138.625 254.798C138.625 255.115 138.541 255.367 138.373 255.554C138.215 255.731 137.995 255.82 137.715 255.82C137.426 255.82 137.197 255.745 137.029 255.596C136.871 255.437 136.791 255.241 136.791 255.008C136.791 254.849 136.824 254.719 136.889 254.616C136.955 254.504 137.034 254.439 137.127 254.42V254.378C137.099 254.369 137.067 254.364 137.029 254.364C136.992 254.355 136.936 254.35 136.861 254.35C136.684 254.35 136.507 254.397 136.329 254.49C136.161 254.583 136.007 254.705 135.867 254.854C135.737 254.994 135.629 255.157 135.545 255.344C135.461 255.521 135.419 255.699 135.419 255.876V260.244H136.651V261H132.899V260.244ZM141.129 252.362C140.831 252.362 140.597 252.278 140.429 252.11C140.261 251.933 140.177 251.709 140.177 251.438V251.354C140.177 251.083 140.261 250.864 140.429 250.696C140.597 250.519 140.831 250.43 141.129 250.43C141.428 250.43 141.661 250.519 141.829 250.696C141.997 250.864 142.081 251.083 142.081 251.354V251.438C142.081 251.709 141.997 251.933 141.829 252.11C141.661 252.278 141.428 252.362 141.129 252.362ZM139.393 260.244H140.345V254.84L139.393 254.658V254.042L141.913 253.552V260.244H142.865V261H139.393V260.244ZM143.877 260.244H144.829V254.532H143.877V253.72H144.829V253.398C144.829 252.437 145.127 251.69 145.725 251.158C146.322 250.626 147.148 250.36 148.203 250.36C149.043 250.36 149.668 250.486 150.079 250.738C150.499 250.99 150.709 251.331 150.709 251.76C150.709 252.021 150.625 252.236 150.457 252.404C150.298 252.563 150.088 252.642 149.827 252.642C149.565 252.642 149.36 252.567 149.211 252.418C149.071 252.259 149.001 252.073 149.001 251.858C149.001 251.671 149.038 251.527 149.113 251.424C149.197 251.312 149.29 251.237 149.393 251.2V251.144C149.29 251.107 149.15 251.074 148.973 251.046C148.805 251.018 148.595 251.004 148.343 251.004C147.68 251.004 147.19 251.205 146.873 251.606C146.555 252.007 146.397 252.567 146.397 253.286V253.72H148.861L150.891 253.552V260.244H151.843V261H148.399V260.244H149.323V254.532H146.397V260.244H147.321V261H143.877V260.244ZM156.275 261.168C155.725 261.168 155.235 261.075 154.805 260.888C154.385 260.701 154.031 260.44 153.741 260.104C153.452 259.768 153.233 259.367 153.083 258.9C152.934 258.433 152.859 257.92 152.859 257.36C152.859 256.763 152.948 256.231 153.125 255.764C153.303 255.288 153.55 254.887 153.867 254.56C154.185 254.233 154.558 253.986 154.987 253.818C155.426 253.641 155.902 253.552 156.415 253.552C157.218 253.552 157.843 253.72 158.291 254.056C158.749 254.392 158.977 254.821 158.977 255.344C158.977 255.671 158.889 255.927 158.711 256.114C158.534 256.291 158.296 256.38 157.997 256.38C157.689 256.38 157.456 256.296 157.297 256.128C157.139 255.951 157.059 255.731 157.059 255.47C157.059 255.255 157.115 255.069 157.227 254.91C157.339 254.751 157.484 254.635 157.661 254.56V254.49C157.549 254.443 157.409 254.401 157.241 254.364C157.073 254.317 156.863 254.294 156.611 254.294C156.303 254.294 156.023 254.35 155.771 254.462C155.519 254.574 155.305 254.733 155.127 254.938C154.95 255.134 154.81 255.372 154.707 255.652C154.614 255.932 154.567 256.245 154.567 256.59V257.808C154.567 258.508 154.74 259.063 155.085 259.474C155.431 259.875 155.902 260.076 156.499 260.076C157.059 260.076 157.493 259.955 157.801 259.712C158.119 259.469 158.361 259.171 158.529 258.816L159.131 259.18C159.047 259.423 158.926 259.661 158.767 259.894C158.609 260.127 158.413 260.342 158.179 260.538C157.946 260.725 157.671 260.879 157.353 261C157.036 261.112 156.677 261.168 156.275 261.168ZM162.33 261.168C161.602 261.168 161.052 260.991 160.678 260.636C160.314 260.272 160.132 259.777 160.132 259.152C160.132 258.443 160.384 257.906 160.888 257.542C161.392 257.178 162.214 256.996 163.352 256.996H164.36V256.044C164.36 255.475 164.234 255.041 163.982 254.742C163.73 254.443 163.334 254.294 162.792 254.294C162.335 254.294 161.99 254.359 161.756 254.49V254.546C161.859 254.593 161.952 254.677 162.036 254.798C162.13 254.91 162.176 255.069 162.176 255.274C162.176 255.535 162.097 255.745 161.938 255.904C161.789 256.063 161.57 256.142 161.28 256.142C161.038 256.142 160.832 256.063 160.664 255.904C160.506 255.736 160.426 255.512 160.426 255.232C160.426 255.017 160.487 254.812 160.608 254.616C160.739 254.411 160.926 254.229 161.168 254.07C161.411 253.911 161.705 253.785 162.05 253.692C162.405 253.599 162.811 253.552 163.268 253.552C164.146 253.552 164.808 253.757 165.256 254.168C165.704 254.579 165.928 255.153 165.928 255.89V260.258H166.88V260.888C166.75 260.963 166.582 261.028 166.376 261.084C166.171 261.14 165.952 261.168 165.718 261.168C165.289 261.168 164.972 261.061 164.766 260.846C164.57 260.622 164.472 260.337 164.472 259.992V259.922H164.402C164.337 260.081 164.253 260.235 164.15 260.384C164.048 260.524 163.912 260.655 163.744 260.776C163.586 260.897 163.39 260.991 163.156 261.056C162.923 261.131 162.648 261.168 162.33 261.168ZM162.946 260.188C163.357 260.188 163.693 260.09 163.954 259.894C164.225 259.698 164.36 259.376 164.36 258.928V257.682H163.52C162.858 257.682 162.396 257.789 162.134 258.004C161.873 258.219 161.742 258.527 161.742 258.928V259.194C161.742 259.53 161.85 259.782 162.064 259.95C162.279 260.109 162.573 260.188 162.946 260.188ZM171.427 263.926C171.044 263.926 170.745 263.861 170.531 263.73C170.316 263.609 170.157 263.483 170.055 263.352L170.419 262.932C170.512 263.035 170.624 263.119 170.755 263.184C170.885 263.259 171.044 263.296 171.231 263.296C171.445 263.296 171.618 263.249 171.749 263.156C171.879 263.063 171.945 262.923 171.945 262.736C171.945 262.605 171.889 262.475 171.777 262.344C171.674 262.223 171.445 262.143 171.091 262.106L170.741 262.078L170.923 261.154C170.437 261.107 170.003 260.981 169.621 260.776C169.247 260.571 168.93 260.305 168.669 259.978C168.417 259.642 168.225 259.255 168.095 258.816C167.964 258.368 167.899 257.883 167.899 257.36C167.899 256.763 167.987 256.231 168.165 255.764C168.342 255.288 168.589 254.887 168.907 254.56C169.224 254.233 169.597 253.986 170.027 253.818C170.465 253.641 170.941 253.552 171.455 253.552C172.257 253.552 172.883 253.72 173.331 254.056C173.788 254.392 174.017 254.821 174.017 255.344C174.017 255.671 173.928 255.927 173.751 256.114C173.573 256.291 173.335 256.38 173.037 256.38C172.729 256.38 172.495 256.296 172.337 256.128C172.178 255.951 172.099 255.731 172.099 255.47C172.099 255.255 172.155 255.069 172.267 254.91C172.379 254.751 172.523 254.635 172.701 254.56V254.49C172.589 254.443 172.449 254.401 172.281 254.364C172.113 254.317 171.903 254.294 171.651 254.294C171.343 254.294 171.063 254.35 170.811 254.462C170.559 254.574 170.344 254.733 170.167 254.938C169.989 255.134 169.849 255.372 169.747 255.652C169.653 255.932 169.607 256.245 169.607 256.59V257.808C169.607 258.508 169.779 259.063 170.125 259.474C170.47 259.875 170.941 260.076 171.539 260.076C172.099 260.076 172.533 259.955 172.841 259.712C173.158 259.469 173.401 259.171 173.569 258.816L174.171 259.18C174.087 259.404 173.97 259.628 173.821 259.852C173.681 260.076 173.503 260.281 173.289 260.468C173.083 260.655 172.836 260.809 172.547 260.93C172.257 261.051 171.931 261.126 171.567 261.154L171.427 261.84L171.469 261.882C171.562 261.863 171.655 261.845 171.749 261.826C171.851 261.807 171.945 261.798 172.029 261.798C172.327 261.798 172.575 261.873 172.771 262.022C172.976 262.181 173.079 262.419 173.079 262.736C173.079 262.951 173.032 263.133 172.939 263.282C172.855 263.431 172.733 263.553 172.575 263.646C172.425 263.739 172.248 263.809 172.043 263.856C171.847 263.903 171.641 263.926 171.427 263.926ZM177.369 261.168C176.641 261.168 176.091 260.991 175.717 260.636C175.353 260.272 175.171 259.777 175.171 259.152C175.171 258.443 175.423 257.906 175.927 257.542C176.431 257.178 177.253 256.996 178.391 256.996H179.399V256.044C179.399 255.475 179.273 255.041 179.021 254.742C178.769 254.443 178.373 254.294 177.831 254.294C177.374 254.294 177.029 254.359 176.795 254.49V254.546C176.898 254.593 176.991 254.677 177.075 254.798C177.169 254.91 177.215 255.069 177.215 255.274C177.215 255.535 177.136 255.745 176.977 255.904C176.828 256.063 176.609 256.142 176.319 256.142C176.077 256.142 175.871 256.063 175.703 255.904C175.545 255.736 175.465 255.512 175.465 255.232C175.465 255.017 175.526 254.812 175.647 254.616C175.778 254.411 175.965 254.229 176.207 254.07C176.45 253.911 176.744 253.785 177.089 253.692C177.444 253.599 177.85 253.552 178.307 253.552C179.185 253.552 179.847 253.757 180.295 254.168C180.743 254.579 180.967 255.153 180.967 255.89V260.258H181.919V260.888C181.789 260.963 181.621 261.028 181.415 261.084C181.21 261.14 180.991 261.168 180.757 261.168C180.328 261.168 180.011 261.061 179.805 260.846C179.609 260.622 179.511 260.337 179.511 259.992V259.922H179.441C179.376 260.081 179.292 260.235 179.189 260.384C179.087 260.524 178.951 260.655 178.783 260.776C178.625 260.897 178.429 260.991 178.195 261.056C177.962 261.131 177.687 261.168 177.369 261.168ZM177.985 260.188C178.396 260.188 178.732 260.09 178.993 259.894C179.264 259.698 179.399 259.376 179.399 258.928V257.682H178.559C177.897 257.682 177.435 257.789 177.173 258.004C176.912 258.219 176.781 258.527 176.781 258.928V259.194C176.781 259.53 176.889 259.782 177.103 259.95C177.318 260.109 177.612 260.188 177.985 260.188ZM179.259 252.474C179.063 252.474 178.872 252.432 178.685 252.348C178.508 252.264 178.326 252.175 178.139 252.082C177.953 251.989 177.766 251.895 177.579 251.802C177.393 251.709 177.225 251.662 177.075 251.662C176.926 251.662 176.8 251.695 176.697 251.76C176.604 251.825 176.469 251.961 176.291 252.166L175.913 251.788C176.147 251.443 176.366 251.167 176.571 250.962C176.786 250.747 177.057 250.64 177.383 250.64C177.579 250.64 177.766 250.682 177.943 250.766C178.13 250.85 178.317 250.939 178.503 251.032C178.69 251.125 178.877 251.219 179.063 251.312C179.25 251.405 179.418 251.452 179.567 251.452C179.642 251.452 179.707 251.447 179.763 251.438C179.819 251.419 179.875 251.391 179.931 251.354C179.987 251.317 180.048 251.265 180.113 251.2C180.179 251.135 180.258 251.051 180.351 250.948L180.729 251.326C180.496 251.671 180.272 251.951 180.057 252.166C179.852 252.371 179.586 252.474 179.259 252.474ZM186.354 260.342C186.942 260.342 187.371 260.16 187.642 259.796C187.922 259.432 188.062 258.947 188.062 258.34V256.38C188.062 255.773 187.922 255.288 187.642 254.924C187.371 254.56 186.942 254.378 186.354 254.378C185.766 254.378 185.332 254.56 185.052 254.924C184.781 255.288 184.646 255.773 184.646 256.38V258.34C184.646 258.947 184.781 259.432 185.052 259.796C185.332 260.16 185.766 260.342 186.354 260.342ZM186.354 261.168C185.84 261.168 185.374 261.079 184.954 260.902C184.534 260.725 184.174 260.473 183.876 260.146C183.577 259.819 183.344 259.423 183.176 258.956C183.017 258.48 182.938 257.948 182.938 257.36C182.938 256.772 183.017 256.245 183.176 255.778C183.344 255.302 183.577 254.901 183.876 254.574C184.174 254.247 184.534 253.995 184.954 253.818C185.374 253.641 185.84 253.552 186.354 253.552C186.867 253.552 187.334 253.641 187.754 253.818C188.174 253.995 188.533 254.247 188.832 254.574C189.13 254.901 189.359 255.302 189.518 255.778C189.686 256.245 189.77 256.772 189.77 257.36C189.77 257.948 189.686 258.48 189.518 258.956C189.359 259.423 189.13 259.819 188.832 260.146C188.533 260.473 188.174 260.725 187.754 260.902C187.334 261.079 186.867 261.168 186.354 261.168ZM197.619 261.168C197.069 261.168 196.579 261.075 196.149 260.888C195.729 260.701 195.375 260.44 195.085 260.104C194.796 259.768 194.577 259.367 194.427 258.9C194.278 258.433 194.203 257.92 194.203 257.36C194.203 256.763 194.292 256.231 194.469 255.764C194.647 255.288 194.894 254.887 195.211 254.56C195.529 254.233 195.902 253.986 196.331 253.818C196.77 253.641 197.246 253.552 197.759 253.552C198.562 253.552 199.187 253.72 199.635 254.056C200.093 254.392 200.321 254.821 200.321 255.344C200.321 255.671 200.233 255.927 200.055 256.114C199.878 256.291 199.64 256.38 199.341 256.38C199.033 256.38 198.8 256.296 198.641 256.128C198.483 255.951 198.403 255.731 198.403 255.47C198.403 255.255 198.459 255.069 198.571 254.91C198.683 254.751 198.828 254.635 199.005 254.56V254.49C198.893 254.443 198.753 254.401 198.585 254.364C198.417 254.317 198.207 254.294 197.955 254.294C197.647 254.294 197.367 254.35 197.115 254.462C196.863 254.574 196.649 254.733 196.471 254.938C196.294 255.134 196.154 255.372 196.051 255.652C195.958 255.932 195.911 256.245 195.911 256.59V257.808C195.911 258.508 196.084 259.063 196.429 259.474C196.775 259.875 197.246 260.076 197.843 260.076C198.403 260.076 198.837 259.955 199.145 259.712C199.463 259.469 199.705 259.171 199.873 258.816L200.475 259.18C200.391 259.423 200.27 259.661 200.111 259.894C199.953 260.127 199.757 260.342 199.523 260.538C199.29 260.725 199.015 260.879 198.697 261C198.38 261.112 198.021 261.168 197.619 261.168ZM204.852 260.342C205.44 260.342 205.869 260.16 206.14 259.796C206.42 259.432 206.56 258.947 206.56 258.34V256.38C206.56 255.773 206.42 255.288 206.14 254.924C205.869 254.56 205.44 254.378 204.852 254.378C204.264 254.378 203.83 254.56 203.55 254.924C203.279 255.288 203.144 255.773 203.144 256.38V258.34C203.144 258.947 203.279 259.432 203.55 259.796C203.83 260.16 204.264 260.342 204.852 260.342ZM204.852 261.168C204.338 261.168 203.872 261.079 203.452 260.902C203.032 260.725 202.672 260.473 202.374 260.146C202.075 259.819 201.842 259.423 201.674 258.956C201.515 258.48 201.436 257.948 201.436 257.36C201.436 256.772 201.515 256.245 201.674 255.778C201.842 255.302 202.075 254.901 202.374 254.574C202.672 254.247 203.032 253.995 203.452 253.818C203.872 253.641 204.338 253.552 204.852 253.552C205.365 253.552 205.832 253.641 206.252 253.818C206.672 253.995 207.031 254.247 207.33 254.574C207.628 254.901 207.857 255.302 208.016 255.778C208.184 256.245 208.268 256.772 208.268 257.36C208.268 257.948 208.184 258.48 208.016 258.956C207.857 259.423 207.628 259.819 207.33 260.146C207.031 260.473 206.672 260.725 206.252 260.902C205.832 261.079 205.365 261.168 204.852 261.168ZM209.475 260.244H210.427V254.84L209.475 254.658V254.042L211.953 253.552V254.854H212.023C212.079 254.695 212.163 254.537 212.275 254.378C212.397 254.219 212.541 254.079 212.709 253.958C212.887 253.837 213.087 253.739 213.311 253.664C213.545 253.589 213.806 253.552 214.095 253.552C214.982 253.552 215.612 253.781 215.985 254.238C216.359 254.686 216.545 255.363 216.545 256.268V260.244H217.497V261H214.053V260.244H214.977V256.352C214.977 255.745 214.861 255.302 214.627 255.022C214.394 254.742 214.025 254.602 213.521 254.602C213.335 254.602 213.148 254.63 212.961 254.686C212.784 254.733 212.621 254.812 212.471 254.924C212.331 255.027 212.215 255.157 212.121 255.316C212.037 255.475 211.995 255.666 211.995 255.89V260.244H212.919V261H209.475V260.244ZM221.942 261.168C221.391 261.168 220.901 261.075 220.472 260.888C220.052 260.701 219.697 260.44 219.408 260.104C219.118 259.768 218.899 259.367 218.75 258.9C218.6 258.433 218.526 257.92 218.526 257.36C218.526 256.763 218.614 256.231 218.792 255.764C218.969 255.288 219.216 254.887 219.534 254.56C219.851 254.233 220.224 253.986 220.654 253.818C221.092 253.641 221.568 253.552 222.082 253.552C222.884 253.552 223.51 253.72 223.958 254.056C224.415 254.392 224.644 254.821 224.644 255.344C224.644 255.671 224.555 255.927 224.378 256.114C224.2 256.291 223.962 256.38 223.664 256.38C223.356 256.38 223.122 256.296 222.964 256.128C222.805 255.951 222.726 255.731 222.726 255.47C222.726 255.255 222.782 255.069 222.894 254.91C223.006 254.751 223.15 254.635 223.328 254.56V254.49C223.216 254.443 223.076 254.401 222.908 254.364C222.74 254.317 222.53 254.294 222.278 254.294C221.97 254.294 221.69 254.35 221.438 254.462C221.186 254.574 220.971 254.733 220.794 254.938C220.616 255.134 220.476 255.372 220.374 255.652C220.28 255.932 220.234 256.245 220.234 256.59V257.808C220.234 258.508 220.406 259.063 220.752 259.474C221.097 259.875 221.568 260.076 222.166 260.076C222.726 260.076 223.16 259.955 223.468 259.712C223.785 259.469 224.028 259.171 224.196 258.816L224.798 259.18C224.714 259.423 224.592 259.661 224.434 259.894C224.275 260.127 224.079 260.342 223.846 260.538C223.612 260.725 223.337 260.879 223.02 261C222.702 261.112 222.343 261.168 221.942 261.168ZM225.713 260.244H226.665V251.648L225.713 251.466V250.85L228.233 250.36V260.244H229.185V261H225.713V260.244ZM233.393 261.168C232.507 261.168 231.877 260.944 231.503 260.496C231.13 260.039 230.943 259.357 230.943 258.452V254.84L229.991 254.658V254.042L232.511 253.552V258.368C232.511 258.975 232.628 259.418 232.861 259.698C233.095 259.978 233.463 260.118 233.967 260.118C234.154 260.118 234.336 260.095 234.513 260.048C234.7 259.992 234.863 259.913 235.003 259.81C235.153 259.698 235.269 259.563 235.353 259.404C235.447 259.245 235.493 259.054 235.493 258.83V254.84L234.541 254.658V254.042L237.061 253.552V259.88L238.013 260.062V260.678L235.535 261.168V259.866H235.465C235.409 260.025 235.321 260.183 235.199 260.342C235.087 260.501 234.943 260.641 234.765 260.762C234.597 260.883 234.397 260.981 234.163 261.056C233.939 261.131 233.683 261.168 233.393 261.168ZM239.061 260.244H240.013V254.84L239.061 254.658V254.042L241.581 253.552V260.244H242.533V261H239.061V260.244ZM240.251 252.586L241.287 249.912L242.687 250.584L240.755 252.824L240.251 252.586ZM246.569 261.168C246.121 261.168 245.715 261.084 245.351 260.916C244.987 260.739 244.679 260.487 244.427 260.16C244.175 259.833 243.979 259.437 243.839 258.97C243.699 258.494 243.629 257.957 243.629 257.36C243.629 256.763 243.699 256.231 243.839 255.764C243.979 255.288 244.175 254.887 244.427 254.56C244.679 254.233 244.987 253.986 245.351 253.818C245.715 253.641 246.121 253.552 246.569 253.552C247.119 253.552 247.558 253.678 247.885 253.93C248.221 254.182 248.463 254.476 248.613 254.812H248.683V251.648L247.731 251.466V250.85L250.251 250.36V259.88L251.203 260.062V260.678L248.683 261.168V259.908H248.613C248.463 260.244 248.221 260.538 247.885 260.79C247.549 261.042 247.11 261.168 246.569 261.168ZM247.059 260.16C247.264 260.16 247.465 260.132 247.661 260.076C247.857 260.011 248.029 259.917 248.179 259.796C248.337 259.675 248.459 259.53 248.543 259.362C248.636 259.194 248.683 259.003 248.683 258.788V255.932C248.683 255.717 248.636 255.526 248.543 255.358C248.459 255.19 248.337 255.045 248.179 254.924C248.029 254.803 247.857 254.714 247.661 254.658C247.465 254.593 247.264 254.56 247.059 254.56C246.527 254.56 246.102 254.742 245.785 255.106C245.467 255.47 245.309 255.974 245.309 256.618V258.102C245.309 258.746 245.467 259.25 245.785 259.614C246.102 259.978 246.527 260.16 247.059 260.16ZM254.397 261.168C253.669 261.168 253.118 260.991 252.745 260.636C252.381 260.272 252.199 259.777 252.199 259.152C252.199 258.443 252.451 257.906 252.955 257.542C253.459 257.178 254.28 256.996 255.419 256.996H256.427V256.044C256.427 255.475 256.301 255.041 256.049 254.742C255.797 254.443 255.4 254.294 254.859 254.294C254.401 254.294 254.056 254.359 253.823 254.49V254.546C253.925 254.593 254.019 254.677 254.103 254.798C254.196 254.91 254.243 255.069 254.243 255.274C254.243 255.535 254.163 255.745 254.005 255.904C253.855 256.063 253.636 256.142 253.347 256.142C253.104 256.142 252.899 256.063 252.731 255.904C252.572 255.736 252.493 255.512 252.493 255.232C252.493 255.017 252.553 254.812 252.675 254.616C252.805 254.411 252.992 254.229 253.235 254.07C253.477 253.911 253.771 253.785 254.117 253.692C254.471 253.599 254.877 253.552 255.335 253.552C256.212 253.552 256.875 253.757 257.323 254.168C257.771 254.579 257.995 255.153 257.995 255.89V260.258H258.947V260.888C258.816 260.963 258.648 261.028 258.443 261.084C258.237 261.14 258.018 261.168 257.785 261.168C257.355 261.168 257.038 261.061 256.833 260.846C256.637 260.622 256.539 260.337 256.539 259.992V259.922H256.469C256.403 260.081 256.319 260.235 256.217 260.384C256.114 260.524 255.979 260.655 255.811 260.776C255.652 260.897 255.456 260.991 255.223 261.056C254.989 261.131 254.714 261.168 254.397 261.168ZM255.013 260.188C255.423 260.188 255.759 260.09 256.021 259.894C256.291 259.698 256.427 259.376 256.427 258.928V257.682H255.587C254.924 257.682 254.462 257.789 254.201 258.004C253.939 258.219 253.809 258.527 253.809 258.928V259.194C253.809 259.53 253.916 259.782 254.131 259.95C254.345 260.109 254.639 260.188 255.013 260.188Z" fill="#6EBB5A"/>
<rect x="1" y="289" width="334" height="77" fill="url(#paint1_linear_12802_46743)"/>
</g>
<defs>
<filter id="filter0_d_12802_46743" x="-26" y="-98" width="459" height="480" filterUnits="userSpaceOnUse" color-interpolation-filters="sRGB">
<feFlood flood-opacity="0" result="BackgroundImageFix"/>
<feColorMatrix in="SourceAlpha" type="matrix" values="0 0 0 0 0 0 0 0 0 0 0 0 0 0 0 0 0 0 127 0" result="hardAlpha"/>
<feOffset dx="-6" dy="12"/>
<feGaussianBlur stdDeviation="32"/>
<feComposite in2="hardAlpha" operator="out"/>
<feColorMatrix type="matrix" values="0 0 0 0 0.343324 0 0 0 0 0.391786 0 0 0 0 0.454094 0 0 0 0.1 0"/>
<feBlend mode="normal" in2="BackgroundImageFix" result="effect1_dropShadow_12802_46743"/>
<feBlend mode="normal" in="SourceGraphic" in2="effect1_dropShadow_12802_46743" result="shape"/>
</filter>
<linearGradient id="paint0_linear_12802_46743" x1="23.5" y1="324.746" x2="360.181" y2="-12.5573" gradientUnits="userSpaceOnUse">
<stop stop-color="#515C6B" stop-opacity="0.1"/>
<stop offset="0.852482" stop-color="#515C6B" stop-opacity="0.1"/>
</linearGradient>
<linearGradient id="paint1_linear_12802_46743" x1="168" y1="289" x2="168" y2="366" gradientUnits="userSpaceOnUse">
<stop offset="0.328125" stop-color="white" stop-opacity="0"/>
<stop offset="1" stop-color="white"/>
</linearGradient>
</defs>
</svg>
