<svg width="139" height="142" viewBox="0 0 139 142" fill="none" xmlns="http://www.w3.org/2000/svg">
<g opacity="0.2">
<ellipse cx="106.767" cy="88.1115" rx="24.6561" ry="24.6561" stroke="#8C8A97" stroke-width="1.5" stroke-linecap="round" stroke-linejoin="round"/>
<path d="M92.6782 108.344V140.946L106.767 133.901L120.857 140.946V108.344" stroke="#8C8A97" stroke-width="1.5" stroke-linecap="round" stroke-linejoin="round"/>
<path d="M71.5446 133.901H15.1878C7.40355 133.901 1.09863 127.597 1.09863 119.812V21.1878C1.09863 13.4035 7.40355 7.09863 15.1878 7.09863H106.768C114.552 7.09863 120.857 13.4035 120.857 21.1878V42.3216" stroke="#8C8A97" stroke-width="1.5" stroke-linecap="round" stroke-linejoin="round"/>
<path d="M29.2769 35.2771H92.6783" stroke="#8C8A97" stroke-width="1.5" stroke-linecap="round" stroke-linejoin="round"/>
<path d="M29.2769 63.4554H57.4553" stroke="#8C8A97" stroke-width="1.5" stroke-linecap="round" stroke-linejoin="round"/>
<path d="M29.2769 91.6339H50.4107" stroke="#8C8A97" stroke-width="1.5" stroke-linecap="round" stroke-linejoin="round"/>
</g>
<ellipse cx="112.767" cy="82.1115" rx="24.6561" ry="24.6561" stroke="#8C3C62" stroke-width="1.5" stroke-linecap="round" stroke-linejoin="round"/>
<path d="M98.6782 102.344V134.946L112.767 127.901L126.857 134.946V102.344" stroke="#8C3C62" stroke-width="1.5" stroke-linecap="round" stroke-linejoin="round"/>
<path d="M77.5446 127.901H21.1878C13.4035 127.901 7.09863 121.597 7.09863 113.812V15.1878C7.09863 7.40355 13.4035 1.09863 21.1878 1.09863H112.768C120.552 1.09863 126.857 7.40355 126.857 15.1878V36.3216" stroke="#8C3C62" stroke-width="1.5" stroke-linecap="round" stroke-linejoin="round"/>
<path d="M35.2769 29.2771H98.6783" stroke="#8C3C62" stroke-width="1.5" stroke-linecap="round" stroke-linejoin="round"/>
<path d="M35.2769 57.4554H63.4553" stroke="#8C3C62" stroke-width="1.5" stroke-linecap="round" stroke-linejoin="round"/>
<path d="M35.2769 85.6339H56.4107" stroke="#8C3C62" stroke-width="1.5" stroke-linecap="round" stroke-linejoin="round"/>
</svg>
