<svg width="135" height="136" viewBox="0 0 135 136" fill="none" xmlns="http://www.w3.org/2000/svg">
<g opacity="0.2">
<path d="M113.33 57.1911V22.0856C113.33 14.3303 107.047 8.04333 99.2971 8.04333H15.0989C7.34872 8.04333 1.06592 14.3303 1.06592 22.0856V120.381C1.06592 128.136 7.34872 134.423 15.0989 134.423H50.1815" stroke="#8C8A97" stroke-width="1.5" stroke-linecap="round" stroke-linejoin="round"/>
<path d="M127.363 134.423L115.863 122.916" stroke="#8C8A97" stroke-width="1.5" stroke-linecap="round" stroke-linejoin="round"/>
<path d="M97.3605 78.2544C111.791 78.2544 123.49 89.9606 123.49 104.401C123.49 118.841 111.791 130.548 97.3605 130.548C82.9295 130.548 71.231 118.841 71.231 104.401C71.232 89.9611 82.93 78.2554 97.3605 78.2544" stroke="#8C8A97" stroke-width="1.5" stroke-linecap="round" stroke-linejoin="round"/>
<path d="M29.1323 88.7862H50.1819" stroke="#8C8A97" stroke-width="1.5" stroke-linecap="round" stroke-linejoin="round"/>
<path d="M29.1323 109.849H50.1819" stroke="#8C8A97" stroke-width="1.5" stroke-linecap="round" stroke-linejoin="round"/>
<path fill-rule="evenodd" clip-rule="evenodd" d="M64.2149 44.7217V60.7017C64.2149 62.6405 62.6442 64.2123 60.7066 64.2123H32.6406C30.703 64.2123 29.1323 62.6405 29.1323 60.7017V44.3846C29.1323 42.2517 30.1013 40.2344 31.7658 38.902L42.08 30.6455C44.6426 28.5942 48.2837 28.5942 50.8462 30.6455L61.5815 39.2394C63.2458 40.5717 64.2148 42.5888 64.2149 44.7217V44.7217Z" stroke="#8C8A97" stroke-width="1.5" stroke-linecap="round" stroke-linejoin="round"/>
</g>
<path d="M119.309 50.2111V15.1056C119.309 7.35027 113.026 1.06335 105.276 1.06335H21.0775C13.3272 1.06335 7.04443 7.35027 7.04443 15.1056V113.401C7.04443 121.156 13.3272 127.443 21.0775 127.443H56.16" stroke="#8C3C62" stroke-width="1.5" stroke-linecap="round" stroke-linejoin="round"/>
<path d="M133.342 127.443L121.842 115.936" stroke="#8C3C62" stroke-width="1.5" stroke-linecap="round" stroke-linejoin="round"/>
<path d="M103.339 71.2744C117.77 71.2744 129.468 82.9807 129.468 97.421C129.468 111.861 117.77 123.568 103.339 123.568C88.908 123.568 77.2095 111.861 77.2095 97.421C77.2105 82.9811 88.9085 71.2755 103.339 71.2744" stroke="#8C3C62" stroke-width="1.5" stroke-linecap="round" stroke-linejoin="round"/>
<path d="M35.1108 81.8062H56.1604" stroke="#8C3C62" stroke-width="1.5" stroke-linecap="round" stroke-linejoin="round"/>
<path d="M35.1108 102.869H56.1604" stroke="#8C3C62" stroke-width="1.5" stroke-linecap="round" stroke-linejoin="round"/>
<path fill-rule="evenodd" clip-rule="evenodd" d="M70.1934 37.7417V53.7217C70.1934 55.6606 68.6227 57.2323 66.6851 57.2323H38.6191C36.6815 57.2323 35.1108 55.6606 35.1108 53.7217V37.4047C35.1108 35.2717 36.0798 33.2544 37.7443 31.922L48.0586 23.6655C50.6211 21.6143 54.2622 21.6143 56.8247 23.6655L67.56 32.2594C69.2244 33.5917 70.1933 35.6089 70.1934 37.7417V37.7417Z" stroke="#8C3C62" stroke-width="1.5" stroke-linecap="round" stroke-linejoin="round"/>
</svg>
