<svg width="134" height="142" viewBox="0 0 134 142" fill="none" xmlns="http://www.w3.org/2000/svg">
<g opacity="0.2">
<path d="M98.886 125.733H92.1225C90.2835 125.732 88.4658 126.13 86.7931 126.9L59.748 139.321" stroke="#8C8A97" stroke-width="1.5" stroke-linecap="round" stroke-linejoin="round"/>
<path d="M70.471 101.532L77.5024 107.968C79.682 109.963 80.9276 112.791 80.9337 115.76C80.9397 118.728 79.7058 121.562 77.5344 123.566L62.6344 137.318C57.7372 141.838 50.2331 141.855 45.3157 137.358L36.3586 129.165C34.1537 127.191 31.3816 125.978 28.4458 125.703" stroke="#8C8A97" stroke-width="1.5" stroke-linecap="round" stroke-linejoin="round"/>
<path d="M0.89209 61.3305L56.2442 13.4836C60.519 9.7885 66.8269 9.7885 71.1017 13.4836L126.454 61.3305" stroke="#8C8A97" stroke-width="1.5" stroke-linecap="round" stroke-linejoin="round"/>
<path d="M117.486 53.5792V12.8177C117.486 11.2912 116.885 9.82728 115.815 8.7479C114.744 7.66852 113.293 7.06213 111.779 7.06213H94.657C91.505 7.06213 88.9497 9.63899 88.9497 12.8177V28.9116" stroke="#8C8A97" stroke-width="1.5" stroke-linecap="round" stroke-linejoin="round"/>
<path d="M126.454 84.4427H109.015C103.236 84.4427 98.5513 89.1669 98.5513 94.9946V123.133C98.5513 128.961 103.236 133.685 109.015 133.685H126.454" stroke="#8C8A97" stroke-width="1.5" stroke-linecap="round" stroke-linejoin="round"/>
<path d="M0.89209 133.685H18.3312C24.11 133.685 28.7947 128.961 28.7947 123.133V94.9946C28.7947 89.1669 24.11 84.4427 18.3312 84.4427H0.89209" stroke="#8C8A97" stroke-width="1.5" stroke-linecap="round" stroke-linejoin="round"/>
<path d="M102.092 87.0397L80.0625 77.2603C76.1003 75.5018 71.5265 75.8722 67.8932 78.2457L51.1147 89.2083C48.5932 90.8563 46.9735 93.5915 46.7305 96.6117C46.4875 99.6319 47.6489 102.595 49.8739 104.631V104.631C52.7621 107.269 56.9363 107.905 60.4683 106.245L70.4713 101.539" stroke="#8C8A97" stroke-width="1.5" stroke-linecap="round" stroke-linejoin="round"/>
<path d="M28.2227 91.5283L43.7543 85.8828C47.3264 84.6198 51.2699 85.0187 54.5222 86.9719" stroke="#8C8A97" stroke-width="1.5" stroke-linecap="round" stroke-linejoin="round"/>
</g>
<path d="M104.827 119.74H98.0639C96.2249 119.738 94.4072 120.136 92.7345 120.907L65.6895 133.328" stroke="#8C3C62" stroke-width="1.5" stroke-linecap="round" stroke-linejoin="round"/>
<path d="M76.4124 95.539L83.4438 101.975C85.6234 103.97 86.869 106.798 86.8751 109.766C86.8811 112.735 85.6472 115.568 83.4758 117.572L68.5758 131.325C63.6787 135.845 56.1745 135.862 51.2571 131.364L42.3 123.172C40.0951 121.198 37.323 119.985 34.3872 119.71" stroke="#8C3C62" stroke-width="1.5" stroke-linecap="round" stroke-linejoin="round"/>
<path d="M6.8335 55.3371L62.1856 7.49011C66.4604 3.79496 72.7684 3.79496 77.0431 7.49011L132.395 55.3371" stroke="#8C3C62" stroke-width="1.5" stroke-linecap="round" stroke-linejoin="round"/>
<path d="M123.428 47.5857V6.82418C123.428 5.2977 122.827 3.83375 121.756 2.75437C120.686 1.67499 119.234 1.0686 117.721 1.0686H100.598C97.4464 1.0686 94.8911 3.64546 94.8911 6.82418V22.9181" stroke="#8C3C62" stroke-width="1.5" stroke-linecap="round" stroke-linejoin="round"/>
<path d="M132.395 78.4493H114.956C109.177 78.4493 104.493 83.1736 104.493 89.0012V117.14C104.493 122.967 109.177 127.692 114.956 127.692H132.395" stroke="#8C3C62" stroke-width="1.5" stroke-linecap="round" stroke-linejoin="round"/>
<path d="M6.8335 127.692H24.2726C30.0514 127.692 34.7361 122.967 34.7361 117.14V89.0012C34.7361 83.1736 30.0514 78.4493 24.2726 78.4493H6.8335" stroke="#8C3C62" stroke-width="1.5" stroke-linecap="round" stroke-linejoin="round"/>
<path d="M108.033 81.0463L86.0039 71.2669C82.0417 69.5084 77.4679 69.8788 73.8346 72.2523L57.0561 83.2149C54.5346 84.8629 52.9149 87.5982 52.6719 90.6184C52.4289 93.6386 53.5903 96.6013 55.8153 98.6377V98.6377C58.7035 101.275 62.8777 101.911 66.4097 100.252L76.4127 95.5454" stroke="#8C3C62" stroke-width="1.5" stroke-linecap="round" stroke-linejoin="round"/>
<path d="M34.1641 85.5349L49.6957 79.8894C53.2678 78.6264 57.2113 79.0253 60.4636 80.9785" stroke="#8C3C62" stroke-width="1.5" stroke-linecap="round" stroke-linejoin="round"/>
</svg>
