<svg width="56" height="56" viewBox="0 0 56 56" fill="none" xmlns="http://www.w3.org/2000/svg">
<path d="M21 46.6667V35.0001C21 33.7114 22.0447 32.6667 23.3333 32.6667H28" stroke="#9CA8B7" stroke-width="1.5" stroke-linecap="round" stroke-linejoin="round"/>
<path d="M43.1667 38.3833C43.1022 38.3833 43.05 38.4355 43.05 38.4999C43.05 38.5644 43.1022 38.6166 43.1667 38.6166C43.2311 38.6166 43.2833 38.5644 43.2833 38.4999C43.2833 38.4355 43.2311 38.3833 43.1667 38.3833V38.3833" stroke="#9CA8B7" stroke-width="1.5" stroke-linecap="round" stroke-linejoin="round"/>
<path d="M35.461 41.1016L31.015 45.5566C30.5785 45.994 30.3333 46.5868 30.3333 47.2047V48.9999C30.3333 50.2886 31.378 51.3332 32.6666 51.3332H34.466C35.0857 51.3332 35.6799 51.0867 36.1176 50.6481L40.5565 46.2001" stroke="#9CA8B7" stroke-width="1.5" stroke-linecap="round" stroke-linejoin="round"/>
<path d="M7 24.6874L24.9629 9.29025C26.7106 7.79225 29.2894 7.79225 31.0371 9.29025L49 24.6874" stroke="#9CA8B7" stroke-width="1.5" stroke-linecap="round" stroke-linejoin="round"/>
<path d="M23.3333 46.6667H7" stroke="#9CA8B7" stroke-width="1.5" stroke-linecap="round" stroke-linejoin="round"/>
<path d="M36.455 13.9342V8.75C36.455 7.7835 37.2385 7 38.205 7H44.2505C45.217 7 46.0005 7.7835 46.0005 8.75V22.1162" stroke="#9CA8B7" stroke-width="1.5" stroke-linecap="round" stroke-linejoin="round"/>
<path d="M9.99949 22.1162V46.6666" stroke="#9CA8B7" stroke-width="1.5" stroke-linecap="round" stroke-linejoin="round"/>
<path d="M35.4631 41.1035C35.1669 40.267 35.0104 39.3873 35 38.4999C35 35.1968 36.9897 32.2189 40.0414 30.9549C43.0931 29.6909 46.6057 30.3896 48.9414 32.7252C51.277 35.0609 51.9757 38.5735 50.7117 41.6252C49.4476 44.6768 46.4698 46.6666 43.1667 46.6666C42.2776 46.6562 41.3963 46.4992 40.5583 46.2019" stroke="#9CA8B7" stroke-width="1.5" stroke-linecap="round" stroke-linejoin="round"/>
</svg>
