<svg width="16" height="16" viewBox="0 0 16 16" fill="none" xmlns="http://www.w3.org/2000/svg">
<path d="M10.6666 1.33325V3.99992" stroke="#9CA8B7" stroke-linecap="round" stroke-linejoin="round"/>
<path d="M5.33333 1.33325V3.99992" stroke="#9CA8B7" stroke-linecap="round" stroke-linejoin="round"/>
<path d="M2 6.00008H14" stroke="#9CA8B7" stroke-linecap="round" stroke-linejoin="round"/>
<path fill-rule="evenodd" clip-rule="evenodd" d="M12.6667 2.66675H3.33333C2.59667 2.66675 2 3.26341 2 4.00008V12.6667C2 13.4034 2.59667 14.0001 3.33333 14.0001H12.6667C13.4033 14.0001 14 13.4034 14 12.6667V4.00008C14 3.26341 13.4033 2.66675 12.6667 2.66675Z" stroke="#9CA8B7" stroke-linecap="round" stroke-linejoin="round"/>
<path d="M4.67544 8.48625C4.58344 8.48625 4.50878 8.56091 4.50944 8.65291C4.50944 8.74491 4.58411 8.81958 4.67611 8.81958C4.76811 8.81958 4.84278 8.74491 4.84278 8.65291C4.84278 8.56091 4.76811 8.48625 4.67544 8.48625" stroke="#9CA8B7" stroke-linecap="round" stroke-linejoin="round"/>
<path d="M8.00869 8.48625C7.91669 8.48625 7.84203 8.56091 7.84269 8.65291C7.84269 8.74491 7.91736 8.81958 8.00936 8.81958C8.10136 8.81958 8.17603 8.74491 8.17603 8.65291C8.17603 8.56091 8.10136 8.48625 8.00869 8.48625" stroke="#9CA8B7" stroke-linecap="round" stroke-linejoin="round"/>
<path d="M11.3419 8.48625C11.2499 8.48625 11.1753 8.56091 11.1759 8.65291C11.1759 8.74491 11.2506 8.81958 11.3426 8.81958C11.4346 8.81958 11.5093 8.74491 11.5093 8.65291C11.5093 8.56091 11.4346 8.48625 11.3419 8.48625" stroke="#9CA8B7" stroke-linecap="round" stroke-linejoin="round"/>
<path d="M4.67544 11.1525C4.58344 11.1525 4.50878 11.2272 4.50944 11.3192C4.50944 11.4112 4.58411 11.4858 4.67611 11.4858C4.76811 11.4858 4.84278 11.4112 4.84278 11.3192C4.84278 11.2272 4.76811 11.1525 4.67544 11.1525" stroke="#9CA8B7" stroke-linecap="round" stroke-linejoin="round"/>
<path d="M8.00869 11.1525C7.91669 11.1525 7.84203 11.2272 7.84269 11.3192C7.84269 11.4112 7.91736 11.4858 8.00936 11.4858C8.10136 11.4858 8.17603 11.4112 8.17603 11.3192C8.17603 11.2272 8.10136 11.1525 8.00869 11.1525" stroke="#9CA8B7" stroke-linecap="round" stroke-linejoin="round"/>
</svg>
