<svg width="16" height="16" viewBox="0 0 16 16" fill="none" xmlns="http://www.w3.org/2000/svg">
<path fill-rule="evenodd" clip-rule="evenodd" d="M11.7713 3.56732V3.56732C13.8541 5.65995 13.8541 9.04237 11.7713 11.135V11.135L9.56341 13.3503C8.70406 14.2137 7.3075 14.217 6.44408 13.3576L6.43675 13.3503L4.22883 11.135C2.14607 9.04236 2.14605 5.65999 4.22879 3.56732V3.56732C6.30178 1.48452 9.67071 1.47656 11.7535 3.54955L11.7713 3.56732H11.7713Z" stroke="#9CA8B7" stroke-linecap="round" stroke-linejoin="round"/>
<path fill-rule="evenodd" clip-rule="evenodd" d="M10 7.08575V8.66658C10 9.03477 9.70152 9.33325 9.33333 9.33325H6.66667C6.29848 9.33325 6 9.03477 6 8.66658V7.04734C6 6.84481 6.09206 6.65327 6.25021 6.52675L7.55955 5.47933C7.80302 5.28456 8.14898 5.28456 8.39245 5.47933L9.74979 6.56516C9.90794 6.69168 10 6.88322 10 7.08575Z" stroke="#9CA8B7" stroke-linecap="round" stroke-linejoin="round"/>
</svg>
