<svg width="56" height="56" viewBox="0 0 56 56" fill="none" xmlns="http://www.w3.org/2000/svg">
<path d="M7 24.6874L24.9629 9.29025C26.7106 7.79225 29.2894 7.79225 31.0371 9.29025L49 24.6874" stroke="#9CA8B7" stroke-width="1.5" stroke-linecap="round" stroke-linejoin="round"/>
<path d="M25.6667 49.0002H7" stroke="#9CA8B7" stroke-width="1.5" stroke-linecap="round" stroke-linejoin="round"/>
<path d="M36.4551 13.9342V8.75C36.4551 7.7835 37.2386 7 38.2051 7H44.2505C45.217 7 46.0005 7.7835 46.0005 8.75V22.1162" stroke="#9CA8B7" stroke-width="1.5" stroke-linecap="round" stroke-linejoin="round"/>
<path d="M9.99955 22.1162V49" stroke="#9CA8B7" stroke-width="1.5" stroke-linecap="round" stroke-linejoin="round"/>
<path fill-rule="evenodd" clip-rule="evenodd" d="M38.8899 30.3335H33.1054C31.5744 30.3336 30.3333 31.5748 30.3334 33.1058V38.8889C30.3343 39.6248 30.6276 40.3302 31.1487 40.8499L38.4863 48.1882C39.5694 49.2707 41.3248 49.2707 42.4079 48.1882L48.1883 42.4092C49.2706 41.3259 49.2706 39.5706 48.1883 38.4872L40.8507 31.1489C40.3311 30.6278 39.6258 30.3344 38.8899 30.3335V30.3335Z" stroke="#9CA8B7" stroke-width="1.5" stroke-linecap="round" stroke-linejoin="round"/>
<path d="M36.242 36.2419C36.2016 36.2824 36.2017 36.348 36.2422 36.3885C36.2827 36.4289 36.3483 36.4289 36.3888 36.3884C36.4293 36.348 36.4293 36.2823 36.3889 36.2418C36.3484 36.2013 36.2828 36.2012 36.2422 36.2417L36.242 36.2419" stroke="#9CA8B7" stroke-width="1.5" stroke-linecap="round" stroke-linejoin="round"/>
</svg>
