<svg width="60" height="24" viewBox="0 0 60 24" fill="none" xmlns="http://www.w3.org/2000/svg">
<path d="M59.4137 8.39907C59.0905 7.73879 58.6561 7.13584 58.1284 6.61524C58.0225 6.51516 57.9089 6.4231 57.7886 6.33985C57.698 6.27145 57.6036 6.20804 57.5057 6.14992H57.4855L57.46 6.13531C57.3542 6.07939 57.2455 6.02891 57.1343 5.9841H57.1058C56.8266 5.87668 56.529 5.82142 56.2288 5.8212H56.1042C55.7741 5.84166 55.4523 5.92786 55.1589 6.07541C54.8119 6.25474 54.4935 6.48209 54.2136 6.75038H54.1963L54.1791 6.76718C54.1681 6.77946 54.1558 6.79049 54.1423 6.80005L54.0883 6.84972C53.8962 7.02577 53.7034 7.21642 53.4798 7.43922L53.3215 7.59993C53.1208 7.79555 52.9217 7.99278 52.7243 8.19162C52.7858 7.14995 52.8518 6.08345 52.9051 5.02498C52.9051 4.88984 52.9194 4.74959 52.9306 4.61664C52.9704 4.15425 52.9801 3.68893 52.9591 3.22507V3.11185C52.9306 2.58298 52.8856 1.78603 52.3439 1.10303C51.9463 0.594612 51.1525 0 49.6415 0C49.2995 0.0022464 48.9581 0.0271402 48.6196 0.0745091C48.0635 0.151398 47.5151 0.274071 46.9803 0.441211C45.2989 0.978845 44.3281 1.8189 44.0843 2.96064C43.9057 3.80654 44.2261 4.54286 44.4354 5.03009L44.4804 5.13528C44.6702 5.56261 44.8885 5.9768 45.1346 6.37564L45.3387 6.73138C45.8595 7.65367 46.387 8.5724 46.921 9.48749L46.1107 9.2121L45.9044 9.14051C45.6043 9.03313 45.3387 8.94182 45.0919 8.86439L45.0243 8.8454L44.9763 8.83152H44.9305C44.5576 8.7099 44.1683 8.64222 43.7751 8.63063H43.7136C43.4034 8.62935 43.0961 8.68924 42.8103 8.80668C42.4937 8.93671 42.2101 9.13101 41.9775 9.37719C41.9001 9.4662 41.8265 9.55832 41.7569 9.65331L41.7404 9.67522L41.7232 9.70006C41.5801 9.91189 41.4633 10.1394 41.375 10.3779V10.3947C41.1348 11.0841 41.0151 11.8078 41.0209 12.5358C40.2992 9.77968 37.9328 7.74237 35.1411 7.74237C34.1278 7.74553 33.1334 8.01019 32.2593 8.50937C31.7668 8.10375 31.1474 7.87278 30.5026 7.8542C29.8577 7.83563 29.2254 8.03055 28.7091 8.40711V6.9571C28.6917 6.22668 28.384 5.53131 27.8507 5.01728C27.3174 4.50325 26.6002 4.21064 25.8498 4.201C25.0893 4.20371 24.361 4.50016 23.8247 5.02526C23.2885 5.55036 22.9882 6.26119 22.9898 7.00166V10.0142C22.9185 9.92277 22.8421 9.83523 22.761 9.75192C21.9377 8.9123 20.9015 8.299 19.7569 7.97393C18.6043 7.65818 17.3843 7.65919 16.2322 7.97685H16.2014C15.2725 8.21379 14.4135 8.65936 13.6933 9.27784C13.4658 8.81239 13.107 8.41959 12.6588 8.14536C12.2105 7.87112 11.6913 7.72679 11.1619 7.72922C10.8933 7.72922 10.627 7.76721 10.3696 7.84171C8.95388 8.25809 8.38743 9.59779 8.04231 10.3969C8.0108 10.4714 7.98229 10.5408 7.95228 10.6066C7.86675 10.8053 7.78497 10.9813 7.7197 11.1223C7.6539 11.2589 7.59334 11.3977 7.53813 11.5387C7.49837 11.6461 7.46461 11.7198 7.42559 11.8141C7.18931 11.347 6.95047 10.8812 6.70909 10.4167L6.56654 10.1245C6.21017 9.37938 5.67523 8.26101 4.34501 7.86947C3.68186 7.67218 2.96708 7.72175 2.33935 8.00858C1.71162 8.2954 1.2157 8.79903 0.947812 9.42175C0.304835 10.9017 1.10312 12.2078 1.53077 12.9083C1.83687 13.4051 2.23001 14.0625 2.59839 14.747C2.75595 15.0223 2.81597 15.1385 3.16409 15.7967L3.21511 15.888L3.65702 16.7149C3.76205 16.9048 3.87759 17.1225 4.01339 17.3767C4.15819 17.6521 4.3225 17.9494 4.50331 18.2803C4.47255 18.3219 4.44104 18.3658 4.40428 18.4074L4.37877 18.4373L4.33901 18.4184C4.05668 18.2787 3.75713 18.1749 3.44769 18.1094C3.22947 18.0601 3.00622 18.0351 2.78221 18.0348C2.29211 18.0347 1.81061 18.1601 1.38613 18.3987C0.961645 18.6372 0.609154 18.9803 0.364106 19.3935C0.119301 19.8098 -0.00635093 20.2824 0.000247088 20.762C0.00684511 21.2416 0.145452 21.7107 0.401619 22.1204C1.25017 23.4981 2.98028 24 4.3255 24C4.68188 24.0014 5.03825 23.9656 5.38637 23.8926C8.40769 23.2534 9.7154 20.4191 10.6697 18.3497L10.8618 17.9333C11.0586 17.4942 11.2634 17.0585 11.4763 16.6265L11.6661 16.2211C11.8591 16.8243 12.1422 17.3965 12.5064 17.9194C12.7315 18.2452 12.9828 18.5528 13.2596 18.8376C13.541 19.1174 13.8471 19.3724 14.1742 19.601C14.5043 19.8245 14.857 20.0174 15.2246 20.1766C15.5997 20.3476 15.9921 20.4761 16.3965 20.563C16.6441 20.6222 16.8962 20.6675 17.1498 20.6975C17.3823 20.7216 17.6149 20.7318 17.849 20.7281H18.0553C18.8939 20.729 19.7264 20.5891 20.5162 20.3147C20.8793 20.1978 21.2312 20.0481 21.5666 19.8684C22.1628 19.5312 22.6523 19.041 22.9816 18.4512C23.0687 19.1237 23.4038 19.7423 23.9246 20.1921C24.4453 20.6419 25.1162 20.8921 25.8123 20.8961C26.4253 20.8961 27.021 20.7026 27.5117 20.3446V21.2161C27.5117 21.9544 27.8129 22.6625 28.3491 23.1846C28.8853 23.7067 29.6126 24 30.3709 24C31.1292 24 31.8565 23.7067 32.3927 23.1846C32.9289 22.6625 33.2302 21.9544 33.2302 21.2161V20.4557C33.8334 20.6602 34.4681 20.7647 35.1073 20.7639C38.4648 20.7639 41.1965 17.853 41.2025 14.2751C41.2715 14.492 41.3668 14.7002 41.4853 14.896C41.6654 15.1721 41.901 15.4095 42.1793 15.5929C42.5792 15.8526 43.0463 15.997 43.5268 16.0092H43.7474C44.1212 16.0005 44.4927 15.9488 44.854 15.8551H44.914L46.4791 15.5103C46.233 15.8412 45.9922 16.1634 45.7603 16.4833L45.6298 16.6623C45.4407 16.9158 45.2787 17.1393 45.1346 17.354L45.0949 17.4147L45.0663 17.4563L45.0528 17.4753V17.495C44.8284 17.8131 44.6528 18.1613 44.5314 18.5287C44.4323 18.8396 44.4017 19.1674 44.4414 19.4907C44.4849 19.8209 44.6012 20.1386 44.7805 20.4221V20.4359C44.8458 20.5353 44.9193 20.6317 44.9928 20.7113L45.0101 20.7281L45.0243 20.7471C45.1031 20.8384 45.1909 20.9239 45.2794 21.0064C45.383 21.1065 45.4948 21.1986 45.6133 21.2826C46.173 21.6551 46.7852 21.9473 47.4304 22.1504C47.9804 22.3286 48.5513 22.4353 49.129 22.4674H49.2941C49.3886 22.4684 49.483 22.4637 49.5769 22.4535C49.6947 22.444 49.8118 22.4287 49.9273 22.4068H49.9783C50.0969 22.3798 50.2147 22.3461 50.3295 22.3074H50.3467C50.6643 22.1926 50.9536 22.0141 51.196 21.7837C51.4288 21.5528 51.6108 21.2781 51.7309 20.9765C51.8679 20.615 51.95 20.2361 51.9748 19.8516V19.8019C51.9764 19.7854 51.9764 19.7687 51.9748 19.7522V19.6887C51.9995 19.4133 52.0115 19.1598 52.0251 18.8618V18.4381L52.1218 18.6083L52.2321 18.8099C52.3852 19.0853 52.515 19.3168 52.6508 19.5374L52.6853 19.5922L52.716 19.6419V19.6587L52.731 19.6806C52.9479 20.0079 53.2127 20.3015 53.5173 20.5543C53.7612 20.7771 54.05 20.9473 54.3666 21.0532H54.3839C54.6292 21.1335 54.8866 21.1745 55.1454 21.1745C55.2257 21.1745 55.306 21.1693 55.3855 21.1606H55.4117C55.5333 21.1474 55.6541 21.1277 55.7741 21.0999H55.8244C55.9407 21.0707 56.0555 21.0335 56.1673 20.9904C56.3008 20.9414 56.4299 20.883 56.5551 20.8165C57.0618 20.541 57.5283 20.2007 57.9424 19.8048C58.4312 19.3468 58.8505 18.8234 59.1878 18.2503C59.318 18.022 59.4171 17.7782 59.4827 17.525V17.4782C59.5106 17.3639 59.5314 17.248 59.5449 17.1312V17.0947C59.5768 16.7672 59.5383 16.4368 59.4317 16.1246C59.32 15.8161 59.1423 15.5343 58.9102 15.2977C58.636 15.0205 58.3225 14.7828 57.9791 14.5921H57.9589L57.9364 14.5789L57.8914 14.5541L57.8343 14.5176C57.6085 14.3883 57.3564 14.2422 57.0901 14.1158L56.8695 13.9997C56.5177 13.8085 56.1617 13.6246 55.8019 13.4482L57.3534 13.0983H57.4135C57.8541 13.0172 58.2789 12.8693 58.6724 12.66C59.0982 12.444 59.4527 12.1154 59.695 11.7118C59.8541 11.4306 59.9508 11.1201 59.9779 10.7994C60.1024 9.80452 59.6725 8.92502 59.4152 8.39907H59.4137Z" fill="white" fill-opacity="0.96"/>
<path d="M47.7182 13.8004L48.6523 13.59C48.6718 13.5857 48.7048 13.5784 48.7438 13.5659C49.0018 13.4986 49.2229 13.3364 49.3605 13.1134C49.498 12.8905 49.5414 12.6243 49.4813 12.3709L49.4776 12.3548C49.4467 12.2334 49.3927 12.1187 49.3185 12.0166C49.2139 11.8873 49.0845 11.7791 48.9374 11.6981C48.7642 11.602 48.583 11.5204 48.3957 11.4541L47.3716 11.0896C46.7969 10.8814 46.2222 10.6791 45.6415 10.4811C45.2656 10.3511 44.9467 10.2364 44.6699 10.1524C44.6172 10.1382 44.5649 10.1226 44.5131 10.1056C44.1785 10.0063 43.9429 9.96467 43.7441 9.9632C43.6112 9.95839 43.4788 9.98182 43.3562 10.0319C43.228 10.0859 43.113 10.1655 43.0185 10.2656C42.9717 10.3174 42.9276 10.3716 42.8865 10.4278C42.8066 10.5474 42.7406 10.6753 42.6899 10.8091C42.4997 11.3563 42.4048 11.9306 42.4093 12.5082C42.4131 13.0298 42.4273 13.6996 42.7222 14.154C42.7935 14.2709 42.8888 14.3717 43.002 14.4498C43.2121 14.5908 43.4237 14.6098 43.645 14.6251C43.9751 14.6478 44.294 14.5696 44.6129 14.4973L47.716 13.7997L47.7182 13.8004ZM58.1394 8.97267C57.8844 8.45158 57.5415 7.97578 57.125 7.56503C57.0712 7.5128 57.0135 7.46446 56.9525 7.4204C56.896 7.3792 56.8374 7.34092 56.7769 7.30571C56.7146 7.27246 56.6504 7.24247 56.5848 7.21587C56.4553 7.16628 56.3165 7.14388 56.1774 7.15012C56.0446 7.15743 55.9148 7.19395 55.7971 7.25458C55.6192 7.34078 55.4264 7.47957 55.1698 7.71113C55.1346 7.74546 55.0903 7.78418 55.0498 7.8207C54.839 8.01428 54.6034 8.25315 54.3235 8.53073C53.8906 8.9566 53.4652 9.38466 53.0413 9.81638L52.2836 10.5819C52.1452 10.7215 52.0192 10.8723 51.9069 11.0326C51.8108 11.1683 51.7428 11.3209 51.7066 11.4819C51.6863 11.6056 51.6894 11.7318 51.7156 11.8544L51.7194 11.8705C51.7792 12.1236 51.9377 12.3443 52.1613 12.486C52.3849 12.6277 52.6563 12.6794 52.9183 12.6302C52.9498 12.6259 52.9811 12.62 53.0121 12.6127L57.05 11.7039C57.3689 11.6324 57.6915 11.5666 57.9773 11.4044C58.1694 11.2971 58.3517 11.1897 58.477 10.9735C58.5437 10.8544 58.5841 10.723 58.5955 10.5878C58.6578 10.0516 58.3705 9.4431 58.1394 8.97267ZM50.9106 10.6258C51.2032 10.2678 51.2032 9.73456 51.2287 9.29774C51.3172 7.84043 51.4095 6.38312 51.4838 4.92508C51.5115 4.37283 51.5723 3.82789 51.5385 3.27127C51.5108 2.81252 51.5078 2.28512 51.2099 1.90819C50.6848 1.24345 49.5639 1.29824 48.7993 1.40197C48.5635 1.43368 48.3294 1.47659 48.0978 1.53053C47.8653 1.58459 47.6342 1.64375 47.4091 1.71461C46.6753 1.94837 45.6437 2.37789 45.4697 3.20114C45.3706 3.66646 45.6047 4.142 45.7848 4.56714C46.0046 5.0814 46.304 5.54525 46.5771 6.02956C47.2996 7.30864 48.0348 8.5804 48.7678 9.8529C48.9877 10.2328 49.2255 10.7134 49.6494 10.9106C49.6779 10.9223 49.7064 10.9326 49.7357 10.942C49.9255 11.0122 50.1333 11.0253 50.3306 10.9808L50.3659 10.9735C50.549 10.9245 50.714 10.8274 50.8438 10.6937C50.8678 10.6718 50.8896 10.6499 50.9113 10.6258H50.9106ZM50.5602 14.5272C50.446 14.3708 50.2839 14.2536 50.0971 14.1923C49.9104 14.1311 49.7085 14.1289 49.5203 14.1861C49.4761 14.2003 49.4329 14.2176 49.3913 14.238C49.3268 14.27 49.2653 14.3074 49.2075 14.3497C49.0423 14.4765 48.8948 14.6235 48.7686 14.7873C48.7363 14.8275 48.7063 14.8808 48.6673 14.9159L48.0176 15.7851C47.6499 16.2731 47.2861 16.7618 46.9267 17.2578C46.6911 17.5785 46.4885 17.8495 46.3272 18.0883C46.2972 18.1336 46.2657 18.1833 46.2372 18.2242C46.0444 18.5135 45.9356 18.7253 45.8793 18.9138C45.8373 19.039 45.824 19.1716 45.8403 19.3024C45.8583 19.4383 45.9056 19.569 45.9783 19.6866C46.0174 19.7451 46.0594 19.8021 46.1044 19.8568C46.2016 19.9658 46.3111 20.0638 46.4308 20.149C46.8794 20.4529 47.3701 20.6713 47.8863 20.8401C48.3162 20.9789 48.7626 21.0621 49.2142 21.087C49.2915 21.0906 49.3688 21.0892 49.4453 21.0826C49.5163 21.0761 49.5869 21.0664 49.6569 21.0534C49.7269 21.0375 49.7961 21.018 49.864 20.9949C49.996 20.9468 50.1161 20.8721 50.2166 20.7758C50.3119 20.683 50.3854 20.5713 50.4312 20.4478C50.5062 20.2652 50.5557 20.0343 50.5887 19.691C50.591 19.6421 50.5985 19.5836 50.6037 19.5303C50.6292 19.2454 50.6412 18.9094 50.6592 18.5164C50.6915 17.9108 50.7163 17.3082 50.7358 16.7041L50.7778 15.6288C50.7875 15.3819 50.7793 15.1073 50.7088 14.8611C50.6777 14.7428 50.6276 14.6301 50.5602 14.5272ZM57.8925 16.2095C57.7575 16.0642 57.5654 15.9203 57.2623 15.742C57.2188 15.7179 57.167 15.6865 57.1198 15.6588C56.8677 15.5105 56.5638 15.3556 56.2089 15.1679C55.6635 14.8757 55.1181 14.5923 54.5666 14.3103L53.5935 13.8077C53.5433 13.7931 53.4922 13.7581 53.4442 13.7354C53.2571 13.6424 53.0584 13.5734 52.853 13.5301C52.7823 13.5168 52.7105 13.5095 52.6384 13.5082C52.5918 13.508 52.5452 13.5107 52.4989 13.5163C52.3041 13.5456 52.1238 13.634 51.9836 13.769C51.8435 13.904 51.7508 14.0786 51.7186 14.2679C51.7044 14.3885 51.7089 14.5104 51.7329 14.6288C51.7801 14.8815 51.8957 15.1306 52.0157 15.349L52.5349 16.2979C52.8245 16.8326 53.1171 17.3644 53.4172 17.8948C53.6108 18.2403 53.7721 18.5361 53.9229 18.7816C53.9514 18.8276 53.9837 18.8773 54.0084 18.9204C54.1922 19.2147 54.3393 19.4003 54.4886 19.534C54.588 19.6271 54.7074 19.6977 54.8382 19.7406C54.9689 19.7835 55.1078 19.7978 55.2449 19.7823C55.3163 19.7739 55.3871 19.7617 55.4572 19.7458C55.6007 19.7084 55.7394 19.6552 55.8706 19.5873C56.2655 19.3718 56.6295 19.1065 56.9532 18.7984C57.3418 18.4258 57.6855 18.0197 57.9526 17.5551C57.9901 17.4894 58.0216 17.4214 58.0486 17.3506C58.0737 17.2857 58.0955 17.2196 58.1139 17.1526C58.1296 17.0839 58.1416 17.0153 58.1499 16.9459C58.1633 16.8095 58.1472 16.6719 58.1026 16.5419C58.0586 16.4172 57.9868 16.3035 57.8925 16.2088V16.2095Z" fill="#FF1A1A"/>
<path fill-rule="evenodd" clip-rule="evenodd" d="M24.3823 6.98268C24.3823 6.20106 25.0358 5.56262 25.8251 5.56262C26.6031 5.56262 27.2348 6.20106 27.2686 6.99437V18.0787C27.2686 18.8603 26.6144 19.4987 25.8251 19.4987C25.6343 19.4987 25.4455 19.4618 25.2694 19.3902C25.0934 19.3186 24.9337 19.2137 24.7995 19.0817C24.6654 18.9496 24.5594 18.793 24.4878 18.6208C24.4162 18.4487 24.3804 18.2644 24.3823 18.0787V6.98268ZM23.0401 13.8295C23.0289 14.0494 22.9726 14.457 22.68 14.7543C22.3641 15.0735 21.9357 15.1502 21.6874 15.1502C20.6558 15.156 19.6242 15.159 18.5926 15.1611C17.5609 15.1641 16.5293 15.167 15.4977 15.1721C15.5877 15.4475 15.7678 15.8661 16.1737 16.251C16.4213 16.4826 16.6584 16.6141 16.7604 16.6696C16.8842 16.7463 17.3126 16.9669 17.8423 16.9669C18.4065 16.9669 18.9024 16.7901 19.3878 16.5483L19.4276 16.5279C19.7652 16.3577 20.1126 16.1824 20.481 16.1188C20.8411 16.064 21.2252 16.1298 21.5066 16.3723C21.845 16.6586 21.9808 17.0765 21.8562 17.506C21.7099 17.9903 21.2928 18.4089 20.8531 18.6616C20.6015 18.805 20.3374 18.9265 20.0638 19.0247C19.366 19.2657 18.6281 19.378 17.8881 19.3556C17.708 19.3556 17.5159 19.3556 17.3239 19.3337C17.1213 19.3117 16.9187 19.2672 16.7266 19.2234C16.4153 19.1576 16.1125 19.0579 15.8241 18.926C15.5356 18.8015 15.26 18.6503 15.001 18.4746C14.7428 18.2939 14.5015 18.0912 14.28 17.869C14.0598 17.6441 13.8597 17.4012 13.6821 17.1429C13.0736 16.2401 12.7915 15.1283 12.8478 14.0494C12.8928 12.9931 13.2537 11.9361 13.9079 11.0778C13.9784 10.9696 14.0602 10.8783 14.1375 10.7921C14.1712 10.7542 14.2043 10.7176 14.235 10.6811C15.0423 9.71979 16.1212 9.41591 16.5661 9.29027L16.5909 9.28296C17.4938 9.03333 18.4503 9.03333 19.3533 9.28296C19.5679 9.33848 20.7743 9.70153 21.7099 10.6811C21.7549 10.7249 21.8795 10.8681 22.037 11.0778C22.4372 11.6083 22.7312 12.2075 22.9036 12.8441L22.9051 12.8499C22.9726 13.0917 23.0401 13.4219 23.0401 13.8287V13.8295ZM16.422 12.0135C15.9769 12.366 15.667 12.8545 15.5427 13.4H20.4585C20.3258 12.855 20.0129 12.3676 19.5679 12.0128C19.1196 11.6628 18.5639 11.4691 17.9893 11.4627C17.4178 11.4682 16.8651 11.6621 16.4213 12.0128L16.422 12.0135ZM35.1156 9.09596C33.8304 9.09596 32.6578 9.6577 31.8235 10.5715V10.5379C31.8067 10.1709 31.6426 9.82506 31.3664 9.57483C31.0901 9.32459 30.724 9.19006 30.3469 9.20021C29.9697 9.21037 29.6118 9.36441 29.3502 9.62913C29.0886 9.89385 28.9443 10.248 28.9485 10.6154V21.1935C28.9476 21.3784 28.9843 21.5618 29.0564 21.7329C29.1286 21.904 29.2349 22.0595 29.369 22.1905C29.5032 22.3215 29.6627 22.4253 29.8382 22.496C30.0138 22.5667 30.202 22.6029 30.392 22.6026C30.5819 22.6028 30.77 22.5666 30.9455 22.4958C31.1209 22.425 31.2803 22.3212 31.4144 22.1902C31.5485 22.0593 31.6547 21.9038 31.7268 21.7327C31.7989 21.5616 31.8356 21.3784 31.8347 21.1935V17.891C32.669 18.7938 33.8304 19.3665 35.1269 19.3665C37.7093 19.3665 39.8063 17.0874 39.8063 14.2473C39.795 11.4079 37.698 9.09596 35.1156 9.09596ZM34.4847 17.0655C33.0186 17.0655 31.8235 15.8215 31.8235 14.27C31.8235 12.7067 33.0074 11.4627 34.4847 11.4627C35.9499 11.4627 37.1451 12.7067 37.1451 14.27C37.1338 15.8215 35.9499 17.0655 34.4847 17.0655ZM10.6833 14.9851L10.2099 15.9983C9.99528 16.438 9.7807 16.8895 9.57813 17.3409L9.38231 17.7646C8.48049 19.7164 7.41137 22.0335 5.07955 22.5251C3.9519 22.7676 2.24955 22.4375 1.61783 21.4024C0.986853 20.3571 1.92243 19.1569 3.12886 19.4323C3.31942 19.4732 3.50624 19.5638 3.69531 19.6558C4.00967 19.8092 4.32853 19.9633 4.67365 19.8947C5.00077 19.8399 5.20334 19.6083 5.46293 19.311C5.82306 18.9041 5.98136 18.4746 6.04889 18.2211L6.03238 18.1831C6.02715 18.17 6.0214 18.1571 6.01512 18.1444C5.72177 17.6112 5.46518 17.1349 5.25136 16.7368C5.13115 16.512 5.00985 16.2877 4.88748 16.064L4.39605 15.1553C4.03593 14.4906 3.97591 14.381 3.81685 14.0939C3.4662 13.4495 3.09769 12.8145 2.71171 12.1895C2.29456 11.5065 1.86616 10.7476 2.21579 9.94332C2.3472 9.63193 2.59396 9.37997 2.90717 9.23737C3.22039 9.09477 3.57719 9.07193 3.90688 9.17339C4.63239 9.38742 4.95425 10.0602 5.25436 10.6884C5.30913 10.8024 5.36239 10.9149 5.41791 11.0222C5.90259 11.958 6.376 12.8937 6.84942 13.8295C6.89143 13.9222 6.95446 14.0486 7.03248 14.2035C7.10151 14.3408 7.18179 14.5008 7.26657 14.6768L7.39186 14.931C7.44063 15.0304 7.48339 15.1151 7.5149 15.1831C7.73473 14.6498 7.95756 14.1187 8.17964 13.587C8.40247 13.0559 8.62529 12.5248 8.84512 11.9909C8.85112 11.9616 8.90364 11.8477 8.98317 11.676C9.04994 11.5307 9.13547 11.3444 9.22851 11.1325L9.32379 10.9083C9.61639 10.2143 9.96902 9.37939 10.7508 9.15148C11.0283 9.07307 11.3239 9.08074 11.5967 9.17342C11.8695 9.26611 12.1059 9.4392 12.2731 9.66866C12.4419 9.89949 12.5094 10.1639 12.5207 10.4284C12.5297 11.0127 12.2401 11.6395 11.991 12.1771C11.931 12.3086 11.8724 12.4343 11.8222 12.5526L11.7922 12.6169C11.7231 12.7681 11.5356 13.1772 11.213 13.8514C11.0967 14.0925 10.9849 14.335 10.8716 14.5797L10.6833 14.9851Z" fill="black"/>
</svg>
