<svg viewBox="0 0 336 189" fill="none" xmlns="http://www.w3.org/2000/svg">
<mask id="mask0_11470_43366" style="mask-type:alpha" maskUnits="userSpaceOnUse" x="0" y="0" width="336" height="189">
<path d="M0 8C0 3.58173 3.58172 0 8 0H328C332.418 0 336 3.58172 336 8V189H0V8Z" fill="#CDD1D6"/>
</mask>
<g mask="url(#mask0_11470_43366)">
<path d="M0 8C0 3.58173 3.58172 0 8 0H328C332.418 0 336 3.58172 336 8V189H0V8Z" fill="#E3E5E8"/>
</g>
<path opacity="0.8" d="M52 94.6098L83.7464 60.0529H159.369L122.94 96.2542L52 94.6098Z" fill="#9CA8B7"/>
<path d="M230.316 41H176.631L174.714 46.716L216.895 94.3494L230.316 148H284V94.3494L230.316 41Z" fill="#9CA8B7"/>
<path d="M122.94 94.3496L176.624 41.0002L230.309 94.3496V148H52V94.3496H122.94Z" fill="#CDD1D6"/>
<path opacity="0.8" d="M160.939 118.886C160.939 110.84 167.461 104.318 175.507 104.318V104.318C183.552 104.318 190.075 110.84 190.075 118.886V148H160.939V118.886Z" fill="#9CA8B7"/>
<path opacity="0.5" d="M110.831 106.794L110.831 147.666L63.9656 147.666L63.9656 106.794L110.831 106.794Z" fill="#9CA8B7"/>
<path opacity="0.8" d="M110.831 106.794L110.831 147.666L77.9255 147.666L77.9255 106.794L110.831 106.794Z" fill="#9CA8B7"/>
</svg>
