<?xml version="1.0" standalone="no"?>
<!DOCTYPE svg PUBLIC "-//W3C//DTD SVG 20010904//EN"
 "http://www.w3.org/TR/2001/REC-SVG-20010904/DTD/svg10.dtd">
<svg version="1.0" xmlns="http://www.w3.org/2000/svg"
 width="260.000000pt" height="260.000000pt" viewBox="0 0 260.000000 260.000000"
 preserveAspectRatio="xMidYMid meet">
<metadata>
Created by potrace 1.14, written by Peter Selinger 2001-2017
</metadata>
<g transform="translate(0.000000,260.000000) scale(0.100000,-0.100000)"
fill="#000000" stroke="none">
<path d="M1571 1944 c-117 -31 -132 -44 -694 -604 -479 -477 -537 -538 -537
-566 0 -36 26 -64 59 -64 27 0 133 101 685 658 459 462 464 466 604 465 81 0
143 -17 199 -56 38 -25 42 -37 13 -37 -57 0 -153 -69 -187 -135 -9 -16 -21
-85 -28 -153 -11 -105 -19 -134 -48 -195 -42 -88 -89 -143 -162 -191 -100 -67
-148 -78 -350 -83 -196 -5 -215 -11 -215 -63 0 -54 20 -60 203 -60 194 0 242
8 356 61 67 31 98 54 160 116 119 119 180 265 181 428 0 66 22 114 62 137 13
7 61 15 107 18 97 7 121 25 121 89 0 33 -8 45 -68 103 -133 129 -298 176 -461
132z"/>
</g>
</svg>
