<svg width="689" height="283" viewBox="0 0 689 283" fill="none" xmlns="http://www.w3.org/2000/svg">
<path d="M344.5 274.084C417.797 274.084 477.22 214.835 477.22 141.742C477.22 68.6491 417.797 9.40039 344.5 9.40039C271.203 9.40039 211.779 68.6491 211.779 141.742C211.779 214.835 271.203 274.084 344.5 274.084Z" stroke="#C57E59" stroke-width="2"/>
<path d="M344.14 349.497C459.406 349.497 552.853 256.323 552.853 141.381C552.853 26.4389 459.406 -66.7351 344.14 -66.7351C228.874 -66.7351 135.427 26.4389 135.427 141.381C135.427 256.323 228.874 349.497 344.14 349.497Z" stroke="#C57E59" stroke-width="2"/>
<path d="M344.5 423.946C500.803 423.946 627.517 297.601 627.517 141.74C627.517 -14.1209 500.803 -140.466 344.5 -140.466C188.196 -140.466 61.4824 -14.1209 61.4824 141.74C61.4824 297.601 188.196 423.946 344.5 423.946Z" stroke="#C57E59" stroke-width="2"/>
<path d="M344.5 486.25C535.312 486.25 690 332.011 690 141.741C690 -48.5291 535.312 -202.769 344.5 -202.769C153.688 -202.769 -1 -48.5291 -1 141.741C-1 332.011 153.688 486.25 344.5 486.25Z" stroke="#C57E59" stroke-width="2"/>
</svg>
