<svg width="665" height="663" viewBox="0 0 665 663" fill="none" xmlns="http://www.w3.org/2000/svg">
<path d="M332.5 458.485C402.84 458.485 459.868 401.635 459.868 331.5C459.868 261.365 402.84 204.515 332.5 204.515C262.16 204.515 205.132 261.365 205.132 331.5C205.132 401.635 262.16 458.485 332.5 458.485Z" stroke="#C57E59" stroke-width="2"/>
<path d="M332.155 530.825C442.759 530.825 532.427 441.433 532.427 331.156C532.427 220.879 442.759 131.487 332.155 131.487C221.551 131.487 131.883 220.879 131.883 331.156C131.883 441.433 221.551 530.825 332.155 530.825Z" stroke="#C57E59" stroke-width="2"/>
<path d="M332.5 602.237C482.473 602.237 604.056 481.027 604.056 331.499C604.056 181.972 482.473 60.7617 332.5 60.7617C182.526 60.7617 60.9434 181.972 60.9434 331.499C60.9434 481.027 182.526 602.237 332.5 602.237Z" stroke="#C57E59" stroke-width="2"/>
<path d="M332.5 662C515.58 662 664 514.033 664 331.5C664 148.967 515.58 1 332.5 1C149.42 1 1 148.967 1 331.5C1 514.033 149.42 662 332.5 662Z" stroke="#C57E59" stroke-width="2"/>
</svg>
