<svg width="524" height="371" viewBox="0 0 524 371" fill="none" xmlns="http://www.w3.org/2000/svg">
<path d="M332.499 312.554C402.84 312.554 459.867 255.695 459.867 185.55C459.867 115.405 402.84 58.5457 332.499 58.5457C262.159 58.5457 205.132 115.405 205.132 185.55C205.132 255.695 262.159 312.554 332.499 312.554Z" stroke="#C57E59" stroke-width="2"/>
<path d="M332.155 384.905C442.759 384.905 532.427 295.499 532.427 185.205C532.427 74.912 442.759 -14.4937 332.155 -14.4937C221.55 -14.4937 131.883 74.912 131.883 185.205C131.883 295.499 221.55 384.905 332.155 384.905Z" stroke="#C57E59" stroke-width="2"/>
<path d="M332.5 456.328C482.473 456.328 604.056 335.099 604.056 185.549C604.056 35.9997 482.473 -85.2292 332.5 -85.2292C182.526 -85.2292 60.9434 35.9997 60.9434 185.549C60.9434 335.099 182.526 456.328 332.5 456.328Z" stroke="#C57E59" stroke-width="2"/>
<path d="M332.5 516.099C515.58 516.099 664 368.11 664 185.55C664 2.98946 515.58 -145 332.5 -145C149.42 -145 1 2.98946 1 185.55C1 368.11 149.42 516.099 332.5 516.099Z" stroke="#C57E59" stroke-width="2"/>
</svg>
