<svg width="193" height="56" viewBox="0 0 193 56" fill="none" xmlns="http://www.w3.org/2000/svg">
<path d="M0.333333 3C0.333333 4.47276 1.52724 5.66667 3 5.66667C4.47276 5.66667 5.66667 4.47276 5.66667 3C5.66667 1.52724 4.47276 0.333333 3 0.333333C1.52724 0.333333 0.333333 1.52724 0.333333 3ZM3 53H2.5V53.5H3V53ZM187.333 53C187.333 54.4728 188.527 55.6667 190 55.6667C191.473 55.6667 192.667 54.4728 192.667 53C192.667 51.5272 191.473 50.3333 190 50.3333C188.527 50.3333 187.333 51.5272 187.333 53ZM2.5 3V53H3.5V3H2.5ZM3 53.5H190V52.5H3V53.5Z" fill="#C06D94"/>
</svg>
