<svg width="150" height="56" viewBox="0 0 150 56" fill="none" xmlns="http://www.w3.org/2000/svg">
<path d="M0.333333 2.76959C0.333333 4.24235 1.52724 5.43626 3 5.43626C4.47276 5.43626 5.66667 4.24235 5.66667 2.76959C5.66667 1.29683 4.47276 0.102926 3 0.102926C1.52724 0.102926 0.333333 1.29683 0.333333 2.76959ZM3 52.7328H2.5V53.2328H3V52.7328ZM144.333 52.7328C144.333 54.2055 145.527 55.3994 147 55.3994C148.473 55.3994 149.667 54.2055 149.667 52.7328C149.667 51.26 148.473 50.0661 147 50.0661C145.527 50.0661 144.333 51.26 144.333 52.7328ZM2.5 2.76959V52.7328H3.5V2.76959H2.5ZM3 53.2328H147V52.2328H3V53.2328Z" fill="#C06D94"/>
</svg>
