<svg width="150" height="56" viewBox="0 0 150 56" fill="none" xmlns="http://www.w3.org/2000/svg">
<path d="M149.667 2.76959C149.667 4.24235 148.473 5.43626 147 5.43626C145.527 5.43626 144.333 4.24235 144.333 2.76959C144.333 1.29683 145.527 0.102926 147 0.102926C148.473 0.102926 149.667 1.29683 149.667 2.76959ZM147 52.7328H147.5V53.2328H147V52.7328ZM5.66667 52.7328C5.66667 54.2055 4.47276 55.3995 3 55.3995C1.52724 55.3995 0.333328 54.2055 0.333328 52.7328C0.333328 51.26 1.52724 50.0661 3 50.0661C4.47276 50.0661 5.66667 51.26 5.66667 52.7328ZM147.5 2.76959V52.7328H146.5V2.76959H147.5ZM147 53.2328H3V52.2328H147V53.2328Z" fill="#C57E59"/>
</svg>
