<svg width="193" height="56" viewBox="0 0 193 56" fill="none" xmlns="http://www.w3.org/2000/svg">
<path d="M192.667 3C192.667 4.47276 191.473 5.66667 190 5.66667C188.527 5.66667 187.333 4.47276 187.333 3C187.333 1.52724 188.527 0.333333 190 0.333333C191.473 0.333333 192.667 1.52724 192.667 3ZM190 53H190.5V53.5H190V53ZM5.66667 53C5.66667 54.4728 4.47276 55.6667 3 55.6667C1.52724 55.6667 0.333328 54.4728 0.333328 53C0.333328 51.5272 1.52724 50.3333 3 50.3333C4.47276 50.3333 5.66667 51.5272 5.66667 53ZM190.5 3V53H189.5V3H190.5ZM190 53.5H3V52.5H190V53.5Z" fill="#C57E59"/>
</svg>
