<svg width="165" height="38" viewBox="0 0 165 38" fill="none" xmlns="http://www.w3.org/2000/svg">
<path d="M36.9988 37.0026H0V0H36.9988V37.0026Z" fill="#1D3176"/>
<path d="M1.97632 35.0269H35.0266V1.97656H1.97632V35.0269ZM35.4036 35.4038H1.59937V1.59961H35.4036V35.4038Z" fill="white"/>
<path d="M23.0363 12.5883L25.6293 10.8558L28.226 12.5883L27.3807 9.58399L29.829 7.64977L26.7106 7.5279L25.6293 4.59985L24.5479 7.5279L21.4294 7.64977L23.8815 9.58399L23.0363 12.5883Z" fill="white"/>
<path d="M27.6548 23.6914C27.2207 23.1012 26.6724 22.6443 26.0137 22.3207C26.4935 21.9818 26.8857 21.5515 27.1903 21.0374C27.632 20.2873 27.8566 19.4611 27.8566 18.5777C27.8566 18.0294 27.7614 17.4773 27.571 16.9366C27.3769 16.3959 27.1027 15.9047 26.7524 15.4783C26.3983 15.048 25.9604 14.6939 25.4578 14.4235C24.94 14.1494 24.3574 14.0086 23.7291 14.0086H15.1886V21.7266C14.3433 21.7723 13.5476 21.6124 12.8431 21.2545C12.4776 21.0679 12.1463 20.8356 11.8341 20.5729C11.5942 20.3711 11.3658 20.1617 11.1602 19.918C10.6842 19.3545 10.3072 18.6995 10.0407 17.9685C9.77414 17.2374 9.63714 16.4569 9.63714 15.6459C9.63714 14.9186 9.75133 14.1837 9.97598 13.4641C10.1968 12.7521 10.5395 12.1009 10.985 11.5336C11.4267 10.9701 11.9788 10.5093 12.6299 10.159C13.5666 9.65639 14.7622 9.49647 16.0453 9.77062C16.4375 9.85438 16.8297 9.99911 17.2029 10.1933C17.576 10.3913 17.9225 10.654 18.2385 10.9739C18.5508 11.2937 18.8288 11.7011 19.0534 12.1847L19.2438 12.5883L21.5435 11.0957L21.3951 10.7873C20.8582 9.66406 20.0243 8.73882 18.9201 8.03822C17.8121 7.33761 16.4794 6.9873 14.9488 6.9873C13.6656 6.9873 12.4966 7.24241 11.4762 7.74121C10.4633 8.24001 9.59518 8.90252 8.89458 9.71735C8.19778 10.5284 7.66092 11.4574 7.2992 12.4741C6.94128 13.4907 6.75854 14.5226 6.75854 15.5469C6.75854 16.6358 6.95656 17.7172 7.34875 18.7643C7.74093 19.8114 8.30061 20.7595 9.01264 21.5857C9.72466 22.412 10.5852 23.0898 11.5637 23.6038C11.6513 23.6495 11.7465 23.6838 11.8379 23.7257C11.895 23.7523 11.9522 23.7789 12.0131 23.8056C12.1883 23.8818 12.3672 23.9503 12.5461 24.0112C12.668 24.0531 12.786 24.0912 12.9117 24.1255C13.0944 24.1788 13.281 24.2206 13.4714 24.2587C13.597 24.2815 13.7265 24.3043 13.8559 24.3234C14.1758 24.3653 14.5071 24.3882 14.8421 24.3882C14.9564 24.3882 15.0782 24.3844 15.1962 24.3806C15.7445 24.3539 16.308 24.2664 16.8792 24.1217C17.5684 23.9465 18.231 23.6838 18.8516 23.3487C19.0839 23.223 19.3085 23.0821 19.5256 22.9336C19.6702 22.8346 19.8111 22.728 19.9482 22.6176C20.1538 22.4538 20.348 22.2787 20.5345 22.0922C20.6602 21.9665 20.7782 21.837 20.8924 21.7C21.0029 21.5629 21.1095 21.422 21.2085 21.2773C21.4065 20.9841 21.5741 20.6719 21.7149 20.3406L21.8139 20.0817L21.5702 19.8608L21.574 19.857L19.8073 18.235C19.8073 18.235 19.6284 18.65 19.5256 18.8404C19.4266 19.0308 19.2171 19.3659 19.0724 19.5563C18.863 19.8305 18.6879 20.0436 18.4594 20.2721C18.3299 20.4016 18.1928 20.5158 18.0558 20.6262V16.5825H23.0133C23.2989 16.5825 23.5578 16.6396 23.8091 16.7539C24.0566 16.8681 24.266 17.028 24.4374 17.226C24.6125 17.4354 24.7573 17.6943 24.8639 17.9875C24.9705 18.2807 25.0238 18.6044 25.0238 18.9394C25.0238 19.2593 24.9667 19.5639 24.8562 19.8457C24.742 20.1313 24.5896 20.3826 24.3993 20.592C24.2089 20.8014 23.9881 20.9651 23.7216 21.0907C23.4703 21.2126 23.1846 21.2736 22.8762 21.2736H22.1261C22.0423 21.4259 21.951 21.5743 21.8558 21.7152C21.6311 22.0503 21.3722 22.3625 21.0866 22.6481C20.7097 23.0212 20.2946 23.3639 19.853 23.657C19.7806 23.7065 19.8111 23.7371 19.8492 23.7371H20.0929H23.5198C23.8244 23.7371 24.1099 23.8018 24.3612 23.9275C24.6202 24.0569 24.8486 24.2358 25.0352 24.4567C25.2294 24.6813 25.3855 24.9517 25.4997 25.2525C25.6139 25.5533 25.671 25.8693 25.671 26.1892C25.671 26.5052 25.6101 26.8136 25.4921 27.103C25.3741 27.3924 25.2065 27.6475 24.9971 27.8683C24.7839 28.0892 24.5326 28.2682 24.2546 28.3976C23.9881 28.5271 23.6872 28.5918 23.3598 28.5918H18.0481V24.5786C17.7283 24.7004 17.4008 24.8032 17.0696 24.887C16.487 25.0355 15.8854 25.1231 15.2267 25.1535C15.2153 25.1535 15.2 25.1535 15.1886 25.1573V31.1734H23.3598C24.0604 31.1734 24.7305 31.0668 25.3474 30.8497C25.968 30.6365 26.5201 30.3243 26.9961 29.9245C27.472 29.5209 27.8566 29.0297 28.1346 28.4585C28.4125 27.8836 28.5534 27.2439 28.5534 26.5547C28.5496 25.4695 28.2488 24.5024 27.6548 23.6914Z" fill="white"/>
<path d="M1.9685 35.0383H35.0264V1.97656H1.9685V35.0383ZM35.4072 35.4152H1.59155V1.59961H35.4072V35.4152Z" fill="white"/>
<path d="M23.0361 12.5919L25.6328 10.8594L28.2297 12.5919L27.3844 9.58765L29.8327 7.65343L26.7142 7.53156L25.6328 4.60352L24.5515 7.53156L21.4331 7.65343L23.8814 9.58765L23.0361 12.5919Z" fill="white"/>
<path d="M27.6588 23.6989C27.2247 23.1087 26.6764 22.6518 26.0176 22.3281C26.4974 21.9893 26.8896 21.559 27.1942 21.045C27.6359 20.2949 27.8606 19.4649 27.8606 18.5853C27.8606 18.037 27.7654 17.4811 27.575 16.9442C27.3808 16.4035 27.1067 15.9123 26.7564 15.4858C26.4023 15.0556 25.9644 14.7014 25.4617 14.4311C24.9439 14.157 24.3613 14.0161 23.7293 14.0161H15.1888V21.738C14.3435 21.7837 13.5477 21.6238 12.8433 21.2659C12.4778 21.0793 12.1464 20.8432 11.8342 20.5843C11.5943 20.3825 11.366 20.1731 11.1603 19.9294C10.6844 19.3659 10.3074 18.7109 10.0408 17.9798C9.77429 17.2488 9.63729 16.4683 9.63729 15.6534C9.63729 14.9262 9.75148 14.1912 9.97613 13.4716C10.197 12.7595 10.5396 12.1085 10.9851 11.5412C11.4268 10.9776 11.9789 10.5169 12.63 10.1666C13.5667 9.66396 14.7661 9.50403 16.0493 9.77818C16.4415 9.86195 16.8337 10.0067 17.2068 10.2009C17.58 10.3989 17.9265 10.6616 18.2425 10.9853C18.5547 11.3051 18.8327 11.7125 19.0574 12.1961L19.2478 12.5997L21.5475 11.107L21.399 10.7987C20.8622 9.67544 20.0283 8.75011 18.9241 8.0495C17.816 7.3489 16.4796 6.99487 14.9489 6.99487C13.6657 6.99487 12.4929 7.24998 11.4725 7.75259C10.4597 8.25139 9.59152 8.9139 8.89091 9.72873C8.19412 10.5398 7.65726 11.4688 7.29554 12.4855C6.93762 13.5021 6.75488 14.534 6.75488 15.5582C6.75488 16.6472 6.9529 17.7286 7.34508 18.7757C7.73727 19.8228 8.29695 20.7708 9.00897 21.5971C9.721 22.4234 10.5815 23.1011 11.5601 23.6152C11.6515 23.6609 11.7428 23.6951 11.8342 23.737C11.8913 23.7637 11.9485 23.7903 12.0094 23.817C12.1846 23.8931 12.3597 23.9617 12.5425 24.0226C12.6643 24.0645 12.7823 24.1025 12.908 24.1368C13.0908 24.1901 13.2773 24.232 13.4677 24.2701C13.5934 24.2929 13.7228 24.3157 13.8523 24.3348C14.1759 24.3805 14.5034 24.3996 14.8385 24.3996C14.9527 24.3996 15.0745 24.3957 15.1888 24.3919C15.7371 24.3653 16.3006 24.2776 16.8718 24.1329C17.561 23.9578 18.2235 23.6952 18.8441 23.3601C19.0764 23.2344 19.301 23.0935 19.5181 22.945C19.6628 22.846 19.8036 22.7394 19.9407 22.629C20.1463 22.4652 20.3405 22.2901 20.5271 22.1035C20.6527 21.9779 20.7707 21.8484 20.885 21.7113C20.9954 21.5743 21.102 21.4333 21.201 21.2887C21.399 20.9955 21.5666 20.6833 21.7075 20.352L21.8103 20.0931L21.5627 19.8722L21.5665 19.8684L19.7998 18.2464C19.7998 18.2464 19.6209 18.6614 19.5181 18.8518C19.4191 19.0422 19.2096 19.3772 19.0649 19.5676C18.8555 19.8417 18.6804 20.055 18.4519 20.2835C18.3225 20.4129 18.1854 20.5271 18.0483 20.6376V16.5939H23.0135C23.299 16.5939 23.558 16.651 23.8093 16.7652C24.0568 16.8795 24.2662 17.0394 24.4375 17.2374C24.6127 17.4468 24.7574 17.7057 24.864 17.9951C24.9706 18.2883 25.0239 18.6119 25.0239 18.947C25.0239 19.263 24.9668 19.5714 24.8564 19.8532C24.7422 20.1387 24.5898 20.3901 24.3994 20.5995C24.209 20.809 23.9883 20.9726 23.7217 21.0983C23.4704 21.2163 23.1848 21.2772 22.8725 21.2772H22.1224C22.0387 21.4295 21.9473 21.5781 21.8521 21.719C21.6275 22.054 21.3685 22.3662 21.083 22.6518C20.706 23.025 20.291 23.3676 19.8493 23.6608C19.777 23.7103 19.8074 23.737 19.8455 23.737H20.0892H23.5161C23.8207 23.737 24.1063 23.8018 24.3576 23.9274C24.6165 24.0569 24.845 24.2358 25.0315 24.4566C25.2257 24.6813 25.3818 24.9517 25.4961 25.2525C25.6103 25.5533 25.6674 25.8693 25.6674 26.1891C25.6674 26.5052 25.6065 26.8135 25.4884 27.1029C25.3704 27.3923 25.2028 27.6512 24.9934 27.8683C24.7802 28.0891 24.5289 28.2681 24.2509 28.4014C23.9844 28.5308 23.6836 28.5956 23.3561 28.5956H18.0407V24.5785C17.7208 24.7003 17.3934 24.8032 17.0622 24.8869C16.4796 25.0354 15.878 25.123 15.2192 25.1535C15.2078 25.1535 15.1964 25.1535 15.1811 25.1573V31.1771H23.3523C24.0567 31.1771 24.7231 31.0705 25.34 30.8573C25.9606 30.6441 26.5127 30.3319 26.9886 29.9321C27.4646 29.5285 27.8491 29.0372 28.1271 28.4661C28.4051 27.8911 28.546 27.2514 28.546 26.5623C28.5536 25.4809 28.2528 24.5138 27.6588 23.6989Z" fill="white"/>
<path d="M127.506 19.0347H90.5071V18.6577H127.506V19.0347Z" fill="#1D3176"/>
<path d="M122.827 9.53473C122.827 9.64134 122.808 9.7479 122.774 9.85832C122.739 9.96874 122.686 10.0639 122.618 10.1515C122.549 10.2353 122.465 10.3038 122.366 10.3571C122.267 10.4066 122.149 10.4333 122.012 10.4333H120.253V8.73509H122.119C122.21 8.73509 122.301 8.75791 122.385 8.79979C122.473 8.84548 122.549 8.90258 122.614 8.97493C122.678 9.04727 122.732 9.1311 122.77 9.2301C122.804 9.3291 122.827 9.43192 122.827 9.53473ZM123.147 12.7674C123.147 12.8854 123.124 13.0035 123.078 13.1177C123.033 13.2357 122.968 13.3424 122.888 13.4376C122.808 13.5327 122.717 13.6088 122.614 13.6621C122.511 13.7155 122.404 13.7421 122.29 13.7421H120.253V11.9145H122.126C122.446 11.9145 122.698 11.9982 122.88 12.162C123.059 12.3295 123.147 12.5275 123.147 12.7674ZM124.27 11.5451C124.114 11.3737 123.935 11.2367 123.741 11.1377C123.665 11.0997 123.588 11.0692 123.512 11.0425C123.573 11.0159 123.63 10.9854 123.688 10.9473C123.851 10.8407 123.992 10.7036 124.11 10.5475C124.224 10.3914 124.316 10.22 124.384 10.0335C124.453 9.84689 124.487 9.66796 124.487 9.50043C124.487 9.04732 124.422 8.67039 124.301 8.38101C124.175 8.08782 124 7.85171 123.783 7.68418C123.566 7.51664 123.311 7.39864 123.025 7.33772C122.743 7.2768 122.439 7.24634 122.119 7.24634H118.597V15.2347H122.29C122.629 15.2347 122.956 15.1928 123.257 15.1129C123.562 15.0329 123.836 14.8958 124.064 14.7092C124.293 14.5189 124.479 14.2714 124.613 13.963C124.746 13.6584 124.811 13.2852 124.811 12.8474C124.811 12.5961 124.761 12.3523 124.658 12.1315C124.556 11.9144 124.426 11.7164 124.27 11.5451Z" fill="#1D3176"/>
<path d="M130.153 12.5347H128.176L129.17 10.4444L130.153 12.5347ZM129.044 7.25732L124.963 15.2344H126.771L127.369 14.0045H130.956L131.565 15.2344H133.374L129.292 7.25732H129.044Z" fill="#1D3176"/>
<path d="M139.363 11.876L134.36 7.27638L134.337 7.25732H134.063V15.2306H135.719V10.6842L140.749 15.2306H141.023V7.25732H139.363V11.876Z" fill="#1D3176"/>
<path d="M149.305 7.25719H147.256L144.267 11.0686V7.24585H142.607V15.2343H144.267V11.7998L147.431 15.2343H149.632L146.026 11.3733L149.305 7.25719Z" fill="#1D3176"/>
<path d="M150.349 15.2343H156.27V13.7226H152.005V12.0472H155.79V10.528H152.005V8.7346H156.27V7.24585H150.349V15.2343Z" fill="#1D3176"/>
<path d="M162 10.9509C161.897 11.0537 161.775 11.1298 161.642 11.1793C161.505 11.2288 161.375 11.2554 161.249 11.2554H159.273V8.73481H161.249C161.493 8.73481 161.691 8.78054 161.836 8.87192C161.981 8.9633 162.095 9.07749 162.171 9.20695C162.251 9.34022 162.304 9.48114 162.331 9.62964C162.358 9.78194 162.373 9.91513 162.373 10.0217C162.373 10.2312 162.338 10.414 162.27 10.5663C162.194 10.7186 162.106 10.8481 162 10.9509ZM159.27 12.7404H160.625C160.914 13.1555 161.208 13.5705 161.497 13.9665C161.794 14.3815 162.106 14.7927 162.415 15.1964L162.441 15.2268H164.425L164.33 15.0973C163.713 14.2444 163.077 13.3916 162.445 12.5501C162.906 12.3483 163.283 12.0322 163.568 11.6096C163.873 11.1565 164.025 10.6196 164.025 10.0142C164.025 9.61441 163.957 9.23739 163.82 8.89851C163.683 8.55963 163.492 8.2627 163.252 8.0152C163.009 7.76771 162.715 7.57732 162.373 7.44025C162.034 7.30317 161.653 7.23462 161.246 7.23462H157.609V15.223H159.27V12.7404Z" fill="#1D3176"/>
<path d="M71.0008 7.3833H69.3445V15.368H75.1397V13.883H71.0008V7.3833Z" fill="#1D3176"/>
<path d="M90.412 11.5563L88.4853 7.39453H88.2873L86.3607 11.5449L84.8795 7.39453H83.1128L86.037 15.3259L86.0561 15.3791H86.3035L88.3901 10.928L90.4539 15.3678H90.7128L93.6941 7.39453H91.9236L90.412 11.5563Z" fill="#1D3176"/>
<path d="M94.4175 15.368H100.342V13.8601H96.0776V12.1848H99.8624V10.6655H96.0776V8.87215H100.342V7.3833H94.4175V15.368Z" fill="#1D3176"/>
<path d="M103.343 7.3833H101.683V15.368H107.478V13.883H103.343V7.3833Z" fill="#1D3176"/>
<path d="M109.892 7.3833H108.232V15.368H114.027V13.883H109.892V7.3833Z" fill="#1D3176"/>
<path d="M58.7668 8.50307C58.5117 8.24795 58.23 8.0233 57.9215 7.83673C57.6131 7.65396 57.2781 7.50922 56.9202 7.40642C56.5623 7.30361 56.1853 7.25415 55.8008 7.25415C55.2372 7.25415 54.6965 7.36452 54.1977 7.58156C53.6989 7.79859 53.2572 8.09562 52.884 8.46876C52.5109 8.84191 52.214 9.28358 51.9969 9.78238C51.7799 10.2812 51.6694 10.8218 51.6694 11.3854C51.6694 11.9489 51.7799 12.4897 51.9969 12.9885C52.214 13.4873 52.5147 13.9289 52.884 14.3021C53.2572 14.6752 53.6989 14.9722 54.1977 15.1892C54.6965 15.4062 55.2372 15.5167 55.8008 15.5167C56.1853 15.5167 56.5585 15.4672 56.9202 15.3644C57.2781 15.2616 57.6131 15.1169 57.9215 14.9341C58.23 14.7514 58.5117 14.5267 58.7668 14.2678C59.0219 14.0127 59.2352 13.7195 59.4104 13.3996L59.4522 13.3197L57.9063 12.6953L57.8683 12.7485C57.7579 12.9161 57.6246 13.0722 57.4761 13.2245C57.3276 13.373 57.1638 13.5025 56.9849 13.6129C56.8059 13.7233 56.6155 13.8109 56.4137 13.8718C56.2157 13.9327 56.0064 13.9632 55.7969 13.9632C55.4543 13.9632 55.1306 13.8909 54.8336 13.75C54.5328 13.6091 54.2701 13.4186 54.053 13.1864C53.8322 12.9541 53.6532 12.6762 53.5237 12.3678C53.3942 12.0594 53.3258 11.7281 53.3258 11.3854C53.3258 11.0503 53.3904 10.7191 53.5237 10.4069C53.6532 10.0947 53.8322 9.81664 54.053 9.58056C54.2739 9.3483 54.5366 9.15792 54.8336 9.01704C55.1306 8.87616 55.4581 8.8076 55.7969 8.8076C56.0102 8.8076 56.2157 8.83806 56.4137 8.89898C56.6117 8.9599 56.8021 9.04755 56.9849 9.15797C57.1638 9.26839 57.3314 9.39785 57.4799 9.54254C57.6284 9.68723 57.7579 9.84334 57.8683 10.0109L57.9063 10.0641L59.4522 9.43973L59.4066 9.35978C59.2352 9.04756 59.0219 8.75818 58.7668 8.50307Z" fill="#1D3176"/>
<path d="M66.5231 11.3773C66.5231 11.72 66.4583 12.0513 66.3251 12.3597C66.1956 12.6681 66.0129 12.9498 65.7921 13.1859C65.5674 13.422 65.3046 13.6162 65.0038 13.7571C64.7068 13.8979 64.3832 13.9665 64.0405 13.9665C63.6978 13.9665 63.3742 13.8941 63.0772 13.7571C62.7802 13.6162 62.5136 13.4258 62.2928 13.1859C62.0681 12.9498 61.8892 12.6719 61.7597 12.3597C61.6303 12.0513 61.5617 11.72 61.5617 11.3773C61.5617 11.0422 61.6265 10.711 61.7597 10.3988C61.8892 10.0866 62.0681 9.80854 62.2928 9.57247C62.5174 9.3402 62.7802 9.14983 63.081 9.00894C63.378 8.86806 63.7016 8.7996 64.0443 8.7996C64.387 8.7996 64.7107 8.87187 65.0077 9.00894C65.3047 9.14983 65.5712 9.3402 65.7959 9.57247C66.0205 9.80473 66.1994 10.0828 66.3289 10.3988C66.4584 10.711 66.5231 11.0384 66.5231 11.3773ZM66.9686 8.44923C66.5954 8.07608 66.1537 7.77915 65.6549 7.56212C65.1561 7.34508 64.6116 7.23462 64.0405 7.23462C63.477 7.23462 62.9363 7.34508 62.4375 7.56212C61.9387 7.77915 61.497 8.07608 61.1239 8.44923C60.7507 8.82238 60.4537 9.26786 60.2367 9.76666C60.0196 10.2693 59.9092 10.8099 59.9092 11.3773C59.9092 11.9484 60.0196 12.4929 60.2367 12.9917C60.4537 13.4905 60.7545 13.9323 61.1239 14.3054C61.497 14.6786 61.9387 14.9755 62.4375 15.1925C62.9363 15.4096 63.477 15.52 64.0405 15.52C64.6116 15.52 65.1561 15.4096 65.6549 15.1925C66.1537 14.9755 66.5954 14.6786 66.9686 14.3054C67.3417 13.9323 67.6387 13.4905 67.8558 12.9917C68.0728 12.4929 68.1832 11.9484 68.1832 11.3773C68.1832 10.8138 68.0728 10.2693 67.8558 9.76666C67.6387 9.26405 67.3417 8.82238 66.9686 8.44923Z" fill="#1D3176"/>
<path d="M81.3952 11.3851C81.3952 11.9144 81.3229 12.3447 81.1782 12.6683C81.0335 12.992 80.8507 13.2433 80.6299 13.4223C80.409 13.6012 80.1616 13.723 79.8874 13.784C79.6095 13.8449 79.3314 13.8791 79.0611 13.8791H77.5495V8.8912H79.0611C79.3238 8.8912 79.598 8.92166 79.876 8.98639C80.1463 9.04732 80.3976 9.16914 80.6223 9.34429C80.8469 9.51944 81.0335 9.77454 81.1744 10.0982C81.3229 10.4256 81.3952 10.8597 81.3952 11.3851ZM81.8636 8.38857C81.1325 7.72223 80.1882 7.3833 79.0535 7.3833H75.8894V15.3717H79.0535C79.617 15.3717 80.1387 15.288 80.6108 15.1204C81.0868 14.9529 81.5056 14.7016 81.8598 14.378C82.2519 14.0239 82.5489 13.586 82.7507 13.0796C82.9487 12.577 83.0515 12.0058 83.0515 11.3775C83.0515 10.7569 82.9525 10.1895 82.7507 9.68694C82.5565 9.18052 82.2557 8.74268 81.8636 8.38857Z" fill="#1D3176"/>
<path d="M99.7827 23.6038V22.3434H94.3149V29.7835H95.739V26.8555H99.3297V25.5951H95.739V23.6038H99.7827ZM102.414 22.3434H100.99V29.7835H102.414V22.3434ZM107.071 27.4152L108.799 29.7835H110.497L108.635 27.2819C109.572 27.0268 110.181 26.0216 110.181 24.9021C110.181 23.3981 109.134 22.3396 107.619 22.3396H104.245V29.7797H105.658V27.4114H107.071V27.4152ZM105.658 23.6038H107.284C108.331 23.6038 108.769 24.1749 108.769 24.8945C108.769 25.5266 108.483 26.1739 107.284 26.1739H105.658V23.6038ZM111.312 28.7973C112.097 29.3761 112.95 29.9244 114.495 29.9244C116.175 29.9244 117.321 29.1819 117.321 27.6474C117.321 25.656 115.421 25.5114 114.526 25.3286C113.742 25.1649 112.797 24.9821 112.797 24.3006C112.797 23.7218 113.49 23.5466 114.046 23.5466C114.85 23.5466 115.581 23.8398 116.19 24.2587L116.974 23.1811C116.22 22.6099 115.447 22.2253 114.198 22.2253C112.95 22.2253 111.373 22.6937 111.373 24.4414C111.373 26.2424 113.334 26.5165 114.21 26.6879C115.093 26.8592 115.897 27.023 115.897 27.7236C115.897 28.1806 115.543 28.6069 114.473 28.6069C113.608 28.6069 112.531 28.1196 112.024 27.7122L111.312 28.7973ZM123.759 22.3434H118.075V23.6038H120.211V29.7835H121.635V23.6038H123.759V22.3434Z" fill="#1D3176"/>
</svg>
