<svg width="20" height="20" viewBox="0 0 20 20" fill="none" xmlns="http://www.w3.org/2000/svg">
<path fill-rule="evenodd" clip-rule="evenodd" d="M15.9167 4.93424C13.8675 4.77257 12.0025 3.95674 10.5309 2.69424C10.2292 2.4359 9.77004 2.4359 9.46921 2.69424C7.99754 3.9559 6.13254 4.77257 4.08337 4.93424C3.65671 4.96757 3.33337 5.33257 3.33337 5.76007V9.3684C3.33337 13.0076 5.96337 16.4201 9.56504 17.4392C9.84754 17.5192 10.1534 17.5192 10.4359 17.4392C14.0367 16.4192 16.6667 13.0084 16.6667 9.36924V5.7609C16.6667 5.33257 16.3434 4.96757 15.9167 4.93424Z" fill="#83CF77" fill-opacity="0.3" stroke="#6EBB5A" stroke-linecap="round" stroke-linejoin="round"/>
<path d="M12.7658 8.61841L9.30915 12.0751L7.23499 10.0009" stroke="#6EBB5A" stroke-linecap="round" stroke-linejoin="round"/>
</svg>
