<svg width="40" height="40" viewBox="0 0 40 40" fill="none" xmlns="http://www.w3.org/2000/svg">
<circle cx="20" cy="20" r="15.0062" fill="#E5AC8A"/>
<path fill-rule="evenodd" clip-rule="evenodd" d="M16.9985 18.2673C16.3796 17.1955 15.2352 16.5352 13.9975 16.5352V16.5352C12.7597 16.5352 11.6153 17.1955 10.9964 18.2673V18.2673C10.3772 19.3395 10.3772 20.6605 10.9964 21.7327V21.7327C11.6153 22.8045 12.7597 23.4648 13.9975 23.4648V23.4648C15.2352 23.4648 16.3796 22.8045 16.9985 21.7327V21.7327C17.6177 20.6605 17.6177 19.3395 16.9985 18.2673V18.2673Z" stroke="white" stroke-width="2" stroke-linecap="round" stroke-linejoin="round"/>
<path fill-rule="evenodd" clip-rule="evenodd" d="M23.0013 14.8021C22.3823 13.7298 21.2381 13.0688 20 13.0688V13.0688C18.7619 13.0688 17.6176 13.7298 16.9986 14.8021V14.8021C16.3798 15.8743 16.3797 17.1956 16.9988 18.2677V18.2677C17.6178 19.3397 18.7621 20 20 20V20C21.2378 20 22.3821 19.3397 23.0012 18.2677V18.2677C23.6203 17.1956 23.6201 15.8743 23.0013 14.8021V14.8021Z" stroke="white" stroke-width="2" stroke-linecap="round" stroke-linejoin="round"/>
<path fill-rule="evenodd" clip-rule="evenodd" d="M23.0012 21.7322C22.3821 20.6603 21.2378 19.9999 20 19.9999V19.9999C18.7621 19.9999 17.6178 20.6603 16.9988 21.7322V21.7322C16.3797 22.8043 16.3798 24.1256 16.9986 25.1978V25.1978C17.6176 26.2701 18.7619 26.9312 20 26.9312V26.9312C21.2381 26.9312 22.3823 26.2701 23.0013 25.1978V25.1978C23.6201 24.1256 23.6203 22.8043 23.0012 21.7322V21.7322Z" stroke="white" stroke-width="2" stroke-linecap="round" stroke-linejoin="round"/>
<path fill-rule="evenodd" clip-rule="evenodd" d="M29.0035 18.2673C28.3846 17.1955 27.2402 16.5352 26.0025 16.5352V16.5352C24.7647 16.5352 23.6203 17.1955 23.0014 18.2673V18.2673C22.3822 19.3395 22.3822 20.6605 23.0014 21.7327V21.7327C23.6203 22.8045 24.7647 23.4648 26.0025 23.4648V23.4648C27.2402 23.4648 28.3846 22.8045 29.0035 21.7327V21.7327C29.6227 20.6605 29.6227 19.3395 29.0035 18.2673V18.2673Z" stroke="white" stroke-width="2" stroke-linecap="round" stroke-linejoin="round"/>
</svg>
