<svg width="40" height="40" viewBox="0 0 40 40" fill="none" xmlns="http://www.w3.org/2000/svg">
<circle cx="20.0001" cy="20" r="15.8399" fill="#E5AC8A"/>
<path fill-rule="evenodd" clip-rule="evenodd" d="M18.5047 13.7333C18.7856 13.164 19.3653 12.8036 20.0001 12.8036C20.6348 12.8036 21.2146 13.164 21.4954 13.7333L22.522 15.8145C22.7648 16.3067 23.2344 16.6479 23.7775 16.7268L26.0738 17.0606C26.7018 17.1519 27.2235 17.5917 27.4197 18.1951C27.6159 18.7986 27.4525 19.4611 26.9982 19.9042L25.3361 21.5254C24.9433 21.9085 24.7642 22.4602 24.8569 23.0009L25.2492 25.2875C25.3565 25.913 25.0994 26.5452 24.586 26.9183C24.0726 27.2914 23.3919 27.3406 22.8301 27.0454L20.7758 25.9657C20.2902 25.7104 19.71 25.7104 19.2244 25.9657L17.1701 27.0454C16.6083 27.3406 15.9276 27.2914 15.4142 26.9183C14.9008 26.5452 14.6437 25.913 14.751 25.2875L15.1433 23.0009C15.236 22.4602 15.0568 21.9085 14.6641 21.5254L13.002 19.9042C12.5477 19.4611 12.3843 18.7986 12.5805 18.1951C12.7767 17.5917 13.2984 17.1519 13.9264 17.0606L16.2227 16.7268C16.7658 16.6479 17.2354 16.3067 17.4782 15.8145L18.5047 13.7333Z" stroke="white" stroke-width="2" stroke-linecap="round" stroke-linejoin="round"/>
</svg>
