<svg
  width="957"
  height="324"
  viewBox="0 0 957 324"
  fill="none"
  xmlns="http://www.w3.org/2000/svg"
>
  <path
    opacity="0.1"
    d="M478.5 347.974C579.685 347.974 661.691 264.926 661.691 162.506C661.691 60.0862 579.685 -22.9626 478.5 -22.9626C377.314 -22.9626 295.309 60.0862 295.309 162.506C295.309 264.926 377.314 347.974 478.5 347.974Z"
    stroke="#C57E59"
    stroke-width="2"
  />
  <path
    opacity="0.1"
    d="M478.5 454.399C637.736 454.399 766.802 323.702 766.802 162.506C766.802 1.30998 637.736 -129.387 478.5 -129.387C319.264 -129.387 190.199 1.30998 190.199 162.506C190.199 323.702 319.264 454.399 478.5 454.399Z"
    stroke="#C57E59"
    stroke-width="2"
  />
  <path
    opacity="0.1"
    d="M478.5 558.458C694.497 558.458 869.576 381.173 869.576 162.506C869.576 -56.1604 694.497 -233.446 478.5 -233.446C262.503 -233.446 87.4238 -56.1604 87.4238 162.506C87.4238 381.173 262.503 558.458 478.5 558.458Z"
    stroke="#C57E59"
    stroke-width="2"
  />
  <path
    opacity="0.1"
    d="M478.5 645.962C742.228 645.962 956 429.5 956 162.506C956 -104.488 742.228 -320.95 478.5 -320.95C214.772 -320.95 1 -104.488 1 162.506C1 429.5 214.772 645.962 478.5 645.962Z"
    stroke="#C57E59"
    stroke-width="2"
  />
</svg>
