<svg
  width="22"
  height="22"
  viewBox="0 0 22 22"
  fill="none"
  xmlns="http://www.w3.org/2000/svg"
>
  <path
    fill-rule="evenodd"
    clip-rule="evenodd"
    d="M11.0002 0C4.92489 0 0 4.92503 0 11.0001C0 17.0751 4.92489 22 11 22C17.0751 22 22 17.0753 22 11.0001C22.0002 4.92503 17.0751 0 11.0002 0Z"
    fill="#EF5BA1"
  />
  <path
    d="M11.0002 20.9474C5.51523 20.9474 1.05273 16.4848 1.05273 11.0001C1.05273 5.51513 5.51523 1.05267 11.0002 1.05267C16.4852 1.05267 20.9477 5.51513 20.9477 11.0001C20.9475 16.4848 16.485 20.9474 11.0002 20.9474Z"
    fill="#352E46"
  />
  <path
    d="M11.8388 10.8914C11.8388 11.6233 12.433 12.2169 13.1659 12.2169C13.5177 12.2172 13.8552 12.0777 14.1041 11.8291C14.3531 11.5805 14.493 11.2432 14.4931 10.8914C14.493 10.5395 14.3531 10.2021 14.1042 9.95341C13.8553 9.70473 13.5177 9.56515 13.1659 9.56539C12.4333 9.56539 11.8388 10.159 11.8388 10.8914ZM7.53374 10.8914C7.53374 11.6233 8.12791 12.2169 8.861 12.2169C9.59427 12.2169 10.1884 11.6233 10.1884 10.8914C10.1883 10.5395 10.0483 10.2021 9.79939 9.9534C9.55043 9.70472 9.21288 9.56515 8.861 9.56539C8.12791 9.56539 7.53374 10.159 7.53374 10.8914ZM9.02741 15.7806H7.57589C7.10024 15.7809 6.71445 15.3955 6.71415 14.9198V13.4593H6.20153C5.94543 13.4593 5.73771 13.2519 5.7373 12.9959V11.121C5.73735 10.9979 5.78629 10.8799 5.87335 10.7929C5.96041 10.7059 6.07846 10.6571 6.20153 10.6571H6.71378V8.81819C6.71418 8.34269 7.09983 7.95745 7.57534 7.95755H10.754V7.43102C10.1314 7.30493 9.66355 6.75622 9.66355 6.09754C9.66369 5.73643 9.80731 5.39017 10.0628 5.13496C10.3183 4.87976 10.6647 4.73651 11.0258 4.73676C11.7783 4.73676 12.3883 5.34576 12.3883 6.09754C12.3883 6.77546 11.892 7.33718 11.2428 7.44128V7.95755H14.4314C14.907 7.95725 15.2929 8.34254 15.2933 8.81819V10.6571H15.7988C15.922 10.6569 16.0402 10.7056 16.1274 10.7927C16.2146 10.8797 16.2637 10.9978 16.2637 11.121V12.9959C16.2635 13.119 16.2144 13.237 16.1272 13.3239C16.04 13.4108 15.9219 13.4595 15.7988 13.4593H15.2933V14.9198C15.2928 15.3955 14.907 15.7808 14.4314 15.7806H9.02741ZM8.37991 13.4427C8.08887 13.4427 7.85282 13.6833 7.85282 13.9703V14.0506C7.85282 14.342 8.0896 14.5784 8.37991 14.5784H13.767C14.0582 14.5784 14.2941 14.3378 14.2941 14.0506V13.9703C14.294 13.6792 14.0582 13.4431 13.767 13.4427H8.37991Z"
    fill="white"
  />
</svg>
